{"glyphs":{"0":{"ha":991,"x_min":18,"x_max":977,"o":"m 588 798 q 582 808 588 798 q 555 828 576 818 q 507 839 534 839 q 457 827 479 839 q 420 798 435 815 q 395 749 406 780 q 368 522 368 668 q 376 343 368 382 q 418 220 391 258 q 493 183 445 183 q 600 262 570 183 q 625 465 625 329 l 625 478 q 627 577 627 519 q 626 656 627 635 q 621 706 625 677 q 609 757 618 735 q 588 798 601 779 m 928 236 q 631 -23 852 31 q 483 -40 564 -40 q 333 -20 403 -40 q 131 114 205 18 q 34 342 56 211 q 21 460 28 371 l 18 505 q 214 966 18 823 q 500 1065 329 1048 l 509 1065 q 860 919 743 1065 q 977 493 977 773 q 928 236 977 363 z "},"1":{"ha":1071,"x_min":143,"x_max":767,"o":"m 759 956 l 758 757 q 761 414 758 557 l 767 -7 q 680 -23 750 -23 l 621 -22 l 610 -22 l 582 -22 l 554 -22 l 511 -23 q 376 -21 443 -23 l 365 -4 q 358 39 358 5 q 363 479 358 72 l 366 665 q 149 555 255 589 q 144 562 144 556 l 144 633 l 143 664 q 146 843 143 842 q 166 854 149 844 q 205 872 183 863 q 232 884 228 881 q 243 890 237 888 q 456 1034 417 974 l 665 1030 q 757 1033 727 1030 q 759 995 759 1029 l 759 956 z "},"2":{"ha":989,"x_min":46,"x_max":974,"o":"m 974 149 l 970 16 l 970 2 q 956 -16 970 -15 l 676 -10 q 66 -24 385 -10 l 58 -12 q 46 48 46 -4 q 47 162 46 101 l 47 167 q 49 252 49 222 q 157 334 49 262 l 274 412 q 460 553 396 496 q 571 735 571 654 q 550 791 571 770 q 495 812 528 812 q 444 796 462 812 q 422 760 426 780 q 398 697 409 703 q 335 696 377 696 l 130 696 l 99 697 l 73 697 q 46 703 50 697 q 64 824 52 785 q 127 936 82 888 q 235 1010 172 984 q 507 1061 356 1061 q 869 954 745 1061 q 962 745 962 875 q 814 445 962 581 q 620 299 741 378 l 572 256 l 903 262 q 959 234 945 262 q 974 149 974 205 z "},"3":{"ha":986,"x_min":16,"x_max":955,"o":"m 431 412 l 378 412 q 350 426 357 412 q 342 495 342 439 q 346 581 342 551 q 367 610 350 610 l 393 610 l 407 610 l 421 610 q 520 637 485 610 q 555 734 555 665 q 534 796 555 772 q 472 820 513 820 q 416 800 431 820 q 407 788 410 792 q 392 741 400 781 l 393 741 l 390 734 q 375 701 383 707 q 110 705 244 701 l 85 705 l 73 704 q 33 717 37 704 q 37 766 35 728 q 50 833 39 804 q 172 996 90 944 l 172 996 q 502 1062 288 1062 q 625 1054 581 1062 q 713 1031 669 1046 q 868 934 804 1000 q 932 769 932 867 q 870 620 932 670 q 720 541 809 570 q 902 444 848 501 q 955 296 955 387 q 734 -3 955 75 q 446 -41 624 -41 q 90 81 215 -41 q 16 302 22 140 q 24 311 16 311 l 359 317 q 371 308 370 317 q 472 201 385 201 q 542 227 517 201 q 566 289 566 253 q 556 349 566 326 q 498 400 537 389 q 431 412 459 412 z "},"4":{"ha":972,"x_min":-2,"x_max":1000,"o":"m 949 419 l 964 420 q 981 415 976 420 q 986 395 985 410 l 983 393 l 987 222 q 978 150 987 150 l 939 150 l 923 149 l 865 149 q 867 9 867 86 q 854 -21 867 -20 q 717 -20 763 -20 l 692 -20 q 494 -24 563 -20 l 494 -23 l 494 -24 l 477 -1 l 479 119 l 479 144 q 428 173 479 173 q 325 152 377 173 l 131 150 l 50 147 q -2 165 9 147 q 2 410 -2 317 q 85 584 40 505 q 203 773 130 663 l 203 772 q 220 802 213 787 q 360 1019 327 965 q 401 1026 367 1026 q 441 1027 435 1026 l 503 1029 q 728 1034 637 1034 l 854 1034 l 865 1030 q 865 1029 865 1029 l 865 997 l 861 605 l 861 540 l 861 524 l 860 486 q 905 419 860 419 l 949 419 m 986 395 l 992 402 l 996 394 l 986 394 l 986 395 m 998 390 l 996 394 l 1000 394 q 998 390 1000 390 m 528 482 l 530 573 q 483 804 530 801 q 460 785 467 795 l 425 723 q 399 676 418 710 q 371 625 381 643 l 333 559 q 261 430 294 490 l 270 412 l 270 394 l 285 379 l 307 379 l 496 382 q 528 419 525 395 l 528 433 l 528 448 l 528 482 z "},"5":{"ha":996,"x_min":52,"x_max":958,"o":"m 238 279 l 425 275 q 437 246 431 271 q 489 201 460 210 q 573 333 573 201 q 553 442 573 412 q 486 473 533 473 q 428 423 439 473 l 428 422 q 426 410 427 418 q 424 396 425 402 q 410 389 422 390 q 270 391 362 391 l 114 391 q 89 456 89 391 l 89 485 l 90 494 l 87 644 q 86 778 86 734 l 86 908 q 87 964 86 945 l 87 989 q 100 1044 87 1026 q 192 1043 133 1043 l 859 1037 l 869 1038 q 900 1028 895 1038 l 900 853 q 898 802 900 815 q 883 789 895 789 l 870 789 q 425 786 620 789 q 419 739 419 764 q 418 708 419 714 l 414 643 q 413 629 414 640 q 413 616 413 618 q 627 683 515 683 q 867 591 777 683 q 958 356 958 500 q 930 201 958 270 q 754 14 882 77 q 489 -41 644 -41 q 216 18 334 -41 q 105 105 147 52 q 52 269 68 161 q 109 279 56 279 l 125 279 l 238 279 m 429 424 l 440 418 l 428 422 q 428 423 428 423 q 429 424 429 423 z "},"6":{"ha":988,"x_min":36,"x_max":973,"o":"m 528 488 q 396 315 396 488 q 462 177 396 218 l 470 187 q 477 186 472 186 l 474 173 l 484 170 l 484 170 q 536 159 517 159 q 579 170 555 159 q 657 333 657 203 q 628 447 657 407 q 528 488 599 487 m 409 570 q 634 670 493 670 q 874 578 774 670 q 973 347 973 486 q 830 60 973 168 q 544 -37 718 -24 q 330 -9 414 -35 q 210 50 245 18 l 210 49 q 56 305 96 163 q 36 507 36 396 q 97 791 36 667 q 271 989 157 916 q 534 1070 385 1063 q 863 935 764 1065 q 927 774 914 867 q 598 759 867 759 q 584 756 585 759 l 583 797 q 530 820 568 820 q 431 751 457 820 q 408 622 408 692 l 408 591 q 409 570 408 584 z "},"7":{"ha":991,"x_min":49,"x_max":945,"o":"m 52 964 l 49 1007 q 67 1049 49 1049 q 789 1040 311 1049 l 929 1037 q 945 938 945 1036 l 945 906 q 914 686 945 751 q 843 553 883 621 q 545 -12 713 332 q 527 -22 542 -22 l 466 -21 l 433 -21 l 399 -20 l 338 -20 l 294 -21 q 131 -7 131 -21 q 138 15 131 1 q 149 35 146 28 l 435 606 q 511 755 496 728 l 464 755 q 248 752 398 755 l 85 752 q 68 756 74 752 q 52 774 62 760 l 52 964 z "},"8":{"ha":984,"x_min":25,"x_max":970,"o":"m 940 738 q 773 526 940 585 q 912 435 884 471 q 970 267 970 362 q 854 42 970 125 q 713 -21 793 -1 q 504 -40 633 -40 q 298 -22 376 -40 q 92 93 157 9 q 25 265 38 161 q 208 518 41 435 q 57 740 57 588 q 84 866 57 810 q 247 1016 132 968 q 490 1063 361 1063 q 845 956 718 1063 q 940 738 940 876 m 621 291 q 496 438 621 438 q 406 397 441 438 q 370 296 370 355 q 409 200 377 235 q 498 164 441 164 q 588 199 555 164 q 621 291 621 234 m 494 856 q 416 814 443 856 q 389 726 389 772 q 499 597 389 597 q 580 635 554 597 q 606 728 606 673 q 494 856 606 856 z "},"9":{"ha":987,"x_min":34,"x_max":970,"o":"m 77 256 q 96 278 87 271 l 409 273 q 422 247 414 271 q 443 213 430 223 q 480 202 456 202 q 521 209 505 202 q 549 225 538 215 q 568 251 559 235 q 597 387 591 294 l 597 401 q 598 415 597 404 q 598 426 598 425 q 408 369 516 373 q 199 421 296 369 q 60 568 102 473 q 34 680 37 619 q 246 997 50 890 q 492 1058 359 1058 q 849 922 734 1058 l 849 923 q 942 747 915 840 q 970 537 970 654 q 864 130 970 285 q 421 -47 744 -47 q 174 33 273 -47 q 77 256 83 100 m 342 682 q 478 534 351 534 q 605 694 605 534 q 479 855 605 855 q 361 778 395 855 q 342 682 342 736 z "}," ":{"ha":486,"x_min":0,"x_max":0,"o":""},"!":{"ha":537,"x_min":73,"x_max":479,"o":"m 77 935 l 73 1017 q 182 1028 73 1025 l 220 1028 l 263 1031 q 429 1036 304 1035 q 479 1021 477 1036 l 469 894 q 422 381 440 543 q 358 368 420 368 l 317 368 l 304 369 l 276 368 l 249 368 l 192 368 l 171 368 l 161 367 l 134 367 q 110 448 111 377 q 109 490 110 482 l 102 578 q 99 618 102 587 q 96 667 96 650 l 77 935 m 445 211 q 445 209 445 210 q 444 117 444 207 q 447 -7 444 28 q 314 -19 439 -14 l 300 -19 l 163 -22 l 158 -22 q 104 -23 121 -23 l 98 -13 l 86 -2 q 92 152 86 82 q 99 222 98 222 q 393 221 340 222 q 445 211 445 219 z "},"\"":{"ha":871,"x_min":131,"x_max":781,"o":"m 341 593 l 328 594 q 147 591 208 593 l 131 605 q 134 699 131 644 l 138 871 l 137 892 l 141 965 l 141 979 l 140 1002 q 146 1038 140 1031 l 171 1037 l 260 1037 l 309 1038 q 400 1029 388 1038 l 399 1026 l 409 622 q 401 598 409 604 q 368 593 393 593 l 341 593 m 763 1030 q 773 717 773 832 q 772 600 773 602 l 688 597 q 557 593 629 597 l 513 591 q 499 636 499 610 l 499 680 l 506 877 q 507 941 507 897 l 507 995 l 507 1005 q 510 1038 507 1034 l 549 1038 q 765 1040 765 1038 l 765 1036 q 763 1030 763 1036 m 770 600 l 781 593 q 770 585 781 585 l 770 599 l 770 599 l 770 600 z "},"#":{"ha":1050,"x_min":161,"x_max":899,"o":"m 275 758 l 318 757 l 321 757 q 343 808 335 757 q 359 907 351 859 l 376 1031 q 507 1038 386 1038 l 516 1038 q 557 1029 551 1038 q 538 898 547 970 l 536 880 q 516 750 535 867 l 616 750 q 629 888 618 770 q 656 1032 639 1006 l 820 1032 q 829 1029 826 1032 q 800 802 816 918 l 792 751 l 812 751 l 835 751 q 866 751 858 751 l 880 751 l 893 752 q 899 714 899 748 l 898 703 l 898 641 l 899 604 l 899 593 q 832 578 899 578 l 781 580 l 772 580 l 762 511 q 762 506 762 510 q 761 500 761 503 l 754 441 l 841 441 q 860 439 859 441 l 860 337 l 861 319 l 861 272 q 856 267 859 267 l 735 270 q 717 113 717 140 q 716 71 717 85 q 701 7 715 34 q 648 -20 686 -20 l 587 -22 q 510 -8 522 -22 q 518 60 510 -6 l 522 94 q 545 262 532 174 q 506 258 528 260 q 459 252 483 257 l 433 31 q 416 -19 427 -13 q 393 -24 406 -24 l 243 -22 q 234 -12 239 -15 l 235 -11 l 229 0 q 241 92 233 39 l 265 256 l 232 256 q 172 262 182 256 q 162 298 162 267 l 162 393 l 161 416 q 197 444 161 444 l 220 444 l 293 444 l 309 572 l 278 572 q 207 585 207 572 l 209 746 q 275 758 209 758 m 575 612 l 494 616 l 486 616 l 471 589 q 456 494 470 585 l 446 445 q 473 409 447 414 l 479 409 l 484 410 l 574 414 q 600 436 595 415 l 624 578 q 589 612 620 612 l 575 612 m 233 -12 l 223 -15 q 225 -9 223 -9 q 233 -12 228 -9 z "},"$":{"ha":979,"x_min":19,"x_max":1008,"o":"m 964 739 q 920 739 964 739 q 840 737 888 739 l 799 736 q 662 732 709 732 q 608 737 614 732 q 597 762 602 742 q 509 822 580 821 l 491 818 q 422 784 435 804 q 416 759 416 774 q 427 731 416 744 q 450 710 437 718 q 487 694 463 703 q 525 683 511 686 q 565 674 538 680 l 668 651 q 881 572 812 613 q 1008 307 1008 475 q 949 124 1008 195 q 804 16 889 52 q 616 -41 719 -20 l 618 -159 l 618 -170 q 603 -182 617 -182 q 399 -178 501 -182 l 380 -161 q 381 -117 381 -144 q 367 -46 381 -60 q 299 -23 353 -32 q 189 17 244 -14 q 98 94 133 48 q 19 307 31 181 q 53 318 20 318 l 85 317 l 410 317 q 424 285 418 313 q 437 241 430 257 q 505 205 455 205 q 585 228 555 205 q 615 283 615 250 q 593 332 615 317 q 555 348 572 347 q 528 353 539 349 q 499 363 517 357 q 466 373 481 369 l 440 380 q 204 454 257 428 q 43 707 43 526 q 256 1015 43 932 q 393 1054 319 1038 q 389 1143 389 1100 q 393 1194 389 1186 q 446 1193 431 1193 l 587 1195 q 602 1139 602 1195 l 600 1052 q 924 905 842 1036 q 965 740 965 839 l 964 739 z "},"%":{"ha":1460,"x_min":12,"x_max":1478,"o":"m 963 564 q 1174 648 1063 648 q 1366 596 1284 648 l 1365 596 q 1421 531 1396 572 q 1459 454 1447 490 l 1459 454 q 1478 309 1478 395 q 1389 47 1478 137 q 1164 -42 1299 -42 q 886 160 939 -42 q 871 289 871 221 q 891 439 871 356 q 963 564 911 522 m 12 680 q 15 719 12 708 q 100 970 31 894 q 323 1053 206 1053 q 579 910 511 1053 q 615 752 615 833 q 606 620 615 671 q 512 437 585 508 q 304 367 439 367 q 46 517 111 367 q 12 680 12 595 m 389 -60 l 385 -60 l 372 -25 q 597 384 446 113 q 823 793 749 655 l 971 1061 q 1109 1065 1077 1061 l 1097 1039 q 981 814 1035 923 l 917 688 l 917 690 l 857 577 q 752 370 789 450 l 542 -50 q 484 -62 535 -62 q 394 -60 433 -62 l 389 -60 m 1109 1065 l 1118 1079 l 1128 1071 q 1109 1065 1125 1067 m 1259 346 l 1259 361 q 1175 505 1259 505 l 1171 505 q 1112 463 1131 503 q 1088 301 1088 407 l 1088 277 q 1099 166 1090 189 q 1118 127 1108 144 q 1178 95 1135 95 q 1259 237 1259 95 l 1259 257 l 1259 278 l 1259 346 m 398 767 q 323 913 398 913 q 232 776 241 913 q 229 680 229 743 q 321 502 229 502 q 398 652 398 502 l 398 680 l 397 694 l 397 752 l 398 767 z "},"&":{"ha":1231,"x_min":12,"x_max":1276,"o":"m 1032 537 l 1141 534 l 1142 534 q 1205 536 1187 534 q 1215 523 1211 532 l 1211 499 q 1170 345 1204 422 q 1074 207 1135 267 l 1206 70 q 1238 33 1225 50 l 1252 20 q 1276 -13 1275 -3 q 1236 -24 1276 -24 l 1204 -23 l 1028 -23 q 883 -20 951 -23 q 843 9 861 -8 l 817 32 l 781 14 q 538 -47 635 -41 l 478 -49 q 237 -9 344 -49 q 71 98 130 30 q 12 251 12 167 q 283 550 12 450 q 163 663 210 597 q 116 785 116 728 q 185 954 116 890 q 317 1023 227 994 q 515 1052 408 1052 q 856 973 743 1052 q 941 807 941 913 q 889 665 941 730 q 734 526 838 601 q 790 474 770 490 l 790 475 l 863 405 q 903 489 901 455 q 919 529 905 522 q 1032 537 937 537 m 686 191 q 641 233 657 214 q 621 256 625 252 l 518 353 q 505 362 509 353 q 478 392 500 370 q 437 415 455 414 q 371 353 401 397 q 340 268 340 309 q 368 194 340 226 q 501 136 418 136 q 686 191 584 136 m 517 661 l 516 662 q 534 656 525 656 q 551 660 544 656 q 647 760 628 718 q 656 809 656 781 q 633 861 656 838 q 535 899 594 899 q 439 870 475 899 q 404 793 404 842 q 517 661 410 726 z "},"'":{"ha":545,"x_min":134,"x_max":412,"o":"m 145 991 l 144 1003 q 149 1037 144 1031 l 194 1037 q 404 1035 298 1037 q 406 1028 406 1034 l 408 903 q 412 623 412 624 q 376 596 412 603 q 269 590 340 590 l 194 590 l 168 591 l 151 591 q 134 616 134 601 l 142 834 q 145 966 144 920 l 145 991 z "},"(":{"ha":564,"x_min":95,"x_max":549,"o":"m 546 -208 l 530 -228 l 496 -228 q 269 -222 496 -228 q 189 -25 245 -210 l 176 9 q 95 418 109 188 q 140 661 106 515 q 209 917 174 807 q 260 1030 244 1027 q 533 1039 277 1039 q 540 1030 538 1035 l 503 891 q 417 411 417 589 q 507 -72 426 199 l 546 -208 m 546 -208 l 549 -203 l 547 -210 l 546 -208 z "},")":{"ha":566,"x_min":28,"x_max":481,"o":"m 257 1046 l 300 1047 q 319 1032 309 1047 l 319 1034 l 356 931 q 417 756 396 821 q 460 590 439 691 q 481 405 481 489 q 452 198 478 295 q 376 -47 426 101 q 308 -213 327 -195 q 193 -217 236 -217 l 172 -217 l 151 -216 l 110 -216 q 41 -218 62 -216 l 47 -199 q 48 -198 47 -199 l 52 -191 q 157 403 157 167 q 71 878 157 573 l 28 1031 q 41 1046 34 1041 l 257 1046 m 311 -227 l 307 -219 l 307 -229 l 304 -229 l 302 -217 q 320 -211 308 -214 q 310 -229 320 -226 q 311 -227 310 -228 m 40 -224 l 33 -218 q 40 -218 36 -218 l 41 -218 q 40 -224 40 -220 m 309 -229 l 309 -229 l 309 -229 z "},"*":{"ha":631,"x_min":60,"x_max":583,"o":"m 396 1042 q 507 980 507 991 q 485 938 507 969 q 435 845 463 907 l 479 849 q 541 853 500 853 l 549 853 q 578 849 572 853 q 583 817 583 846 q 579 767 583 789 l 579 728 q 439 725 579 725 l 468 681 l 467 681 q 487 640 482 653 l 496 625 q 513 594 507 610 l 425 538 l 426 539 l 399 525 l 400 526 q 328 646 388 534 l 300 591 l 300 592 q 258 522 264 522 q 226 534 252 522 q 187 560 201 547 l 139 591 l 134 592 q 182 680 138 611 l 197 711 l 131 709 l 121 709 q 73 716 84 709 q 61 751 62 723 q 60 809 60 779 q 73 852 60 840 q 209 848 140 852 l 171 907 q 136 979 140 954 q 162 991 137 982 q 253 1043 226 1043 q 259 1033 254 1043 q 275 1004 264 1023 q 291 974 285 985 l 332 898 l 343 942 l 355 970 l 362 983 q 375 1010 364 987 q 396 1042 387 1033 m 515 589 q 514 595 515 590 l 530 604 q 543 572 543 588 l 515 578 l 515 589 m 132 593 l 134 592 l 133 591 q 133 591 133 591 l 132 593 m 131 593 l 132 593 q 131 593 131 593 z "},"+":{"ha":862,"x_min":66,"x_max":806,"o":"m 806 341 l 806 315 l 806 292 q 805 265 806 271 l 802 265 q 770 264 791 264 l 587 264 l 534 265 q 537 47 537 197 l 537 14 q 486 -9 537 -9 l 427 -8 l 393 -8 q 341 -9 341 -8 l 338 252 l 319 252 l 250 252 l 235 252 q 220 252 235 252 l 127 252 l 101 252 l 76 252 q 66 303 66 258 l 66 313 l 66 360 l 66 382 l 66 426 q 70 455 66 448 q 91 462 74 462 q 331 463 179 462 l 331 508 l 333 681 l 333 703 q 337 726 333 720 q 359 731 342 731 l 372 730 l 446 730 l 487 732 q 540 724 532 732 l 538 457 l 800 458 q 806 424 806 456 l 806 341 z "},",":{"ha":498,"x_min":6,"x_max":455,"o":"m 260 284 l 362 286 q 455 279 455 286 l 455 276 q 399 102 416 161 l 390 73 q 378 37 387 60 l 357 -33 l 313 -159 q 175 -170 300 -170 l 146 -169 l 18 -169 q 6 -155 12 -164 q 15 -115 9 -146 q 24 -68 20 -84 l 29 -45 q 42 12 33 -26 q 56 73 51 50 q 69 131 62 97 q 115 283 102 270 q 153 284 127 284 l 260 284 z "},"-":{"ha":583,"x_min":34,"x_max":551,"o":"m 551 373 l 550 345 l 550 267 q 545 254 549 254 l 50 241 q 34 257 41 248 q 35 276 34 257 l 35 296 l 36 385 l 36 395 l 35 439 q 42 496 35 496 l 192 496 l 240 496 l 446 498 l 469 498 l 495 497 l 541 497 q 551 382 551 487 l 551 373 z "},".":{"ha":526,"x_min":87,"x_max":445,"o":"m 442 172 q 444 69 442 100 l 444 22 l 445 14 q 443 -12 445 -12 q 329 -18 441 -12 q 104 -24 216 -24 l 88 1 q 87 17 87 7 l 90 87 l 90 124 q 99 283 90 273 q 339 281 258 281 l 370 281 l 386 282 q 440 276 440 282 l 442 172 z "},"/":{"ha":545,"x_min":-26,"x_max":574,"o":"m 538 1061 l 545 1062 q 574 1055 574 1062 q 550 971 564 1009 l 530 919 q 408 557 470 744 l 393 514 q 327 317 385 491 q 234 55 268 142 l 222 23 l 223 23 q 172 -41 203 -31 q 130 -47 156 -47 l 101 -47 q 28 -51 75 -51 l -7 -51 q -26 -9 -21 -22 q -7 43 -11 39 l 34 155 q 349 1001 153 481 l 372 1060 q 427 1063 384 1063 l 521 1061 l 538 1061 z "},":":{"ha":523,"x_min":84,"x_max":444,"o":"m 226 284 l 264 283 l 367 283 q 437 275 427 283 l 437 148 l 439 84 l 439 35 q 439 -8 439 6 q 219 -24 425 -24 l 176 -23 l 150 -23 q 100 -24 117 -23 q 84 1 84 -3 l 84 24 q 92 277 84 144 q 226 284 92 284 m 439 661 l 439 637 l 439 631 l 442 539 l 437 507 q 444 458 444 482 q 435 435 444 435 q 103 425 249 425 l 87 449 q 87 486 87 463 l 87 500 l 88 547 l 88 588 q 98 731 88 720 q 173 730 124 730 l 222 731 l 269 731 l 347 732 q 438 724 438 732 q 439 661 439 682 z "},";":{"ha":497,"x_min":7,"x_max":456,"o":"m 195 296 l 365 298 q 454 291 454 298 l 454 283 q 389 90 430 214 l 357 -10 l 348 -43 l 333 -80 q 321 -109 330 -90 q 309 -138 313 -128 q 160 -149 302 -149 l 52 -147 l 18 -147 q 7 -133 6 -135 l 11 -111 q 28 -28 23 -48 q 62 144 28 -9 q 112 297 95 297 l 132 297 l 153 296 l 195 296 m 239 719 l 320 720 q 452 718 452 720 q 456 440 456 550 l 456 417 l 454 418 q 338 412 448 412 l 117 404 q 101 430 104 421 q 98 455 98 439 l 98 464 q 99 467 99 467 l 101 530 q 103 624 102 538 q 113 718 105 709 l 138 718 l 189 719 l 239 719 z "},"<":{"ha":862,"x_min":60,"x_max":813,"o":"m 61 391 l 60 403 q 81 470 60 445 l 707 706 q 798 740 754 726 l 800 740 q 810 693 810 740 l 810 685 q 802 547 810 563 q 315 355 621 479 q 603 245 411 318 q 800 168 794 172 q 813 97 813 157 q 808 -7 813 38 l 808 -8 q 800 -26 808 -26 q 793 -24 800 -26 l 143 231 q 136 234 141 232 q 121 239 130 237 q 81 259 101 245 q 60 307 60 273 l 60 346 l 61 360 l 61 391 m 797 740 l 797 754 l 802 755 l 804 742 l 797 740 z "},"=":{"ha":863,"x_min":64,"x_max":810,"o":"m 805 117 l 806 109 q 797 84 806 84 l 604 81 l 80 71 l 66 89 q 64 145 64 121 q 64 177 64 169 l 64 190 q 65 203 64 190 l 65 220 l 64 231 l 64 241 q 73 292 64 274 l 74 292 q 75 292 75 292 l 90 292 q 604 273 392 273 l 630 274 q 799 279 789 278 q 805 187 805 268 l 805 117 m 142 633 l 799 630 q 804 533 804 619 l 804 448 q 803 449 803 448 l 609 442 q 345 432 520 438 q 80 422 169 427 l 66 441 l 66 445 q 64 484 64 471 l 64 541 l 65 559 l 65 576 l 64 585 l 64 593 q 73 633 64 633 l 142 633 m 810 441 l 804 433 l 804 448 l 810 441 z "},">":{"ha":861,"x_min":60,"x_max":812,"o":"m 70 572 l 71 578 l 71 599 q 68 734 71 718 q 355 624 77 728 l 431 595 q 722 484 602 531 l 804 450 q 812 354 812 432 q 811 274 812 275 l 804 267 l 802 265 l 804 265 q 335 73 488 140 l 242 35 q 81 -28 130 -12 l 60 -5 q 67 163 60 82 q 359 290 77 186 l 381 299 q 543 361 485 336 q 347 443 491 382 q 73 551 203 505 q 70 572 70 556 m 71 734 l 69 734 q 66 736 68 734 l 71 734 z "},"?":{"ha":760,"x_min":35,"x_max":749,"o":"m 489 334 q 467 329 475 329 l 386 328 q 137 322 296 328 q 130 366 130 326 q 138 434 130 406 q 168 492 146 462 q 216 546 190 522 q 267 594 241 570 q 338 711 326 652 q 308 761 333 748 q 245 774 283 774 l 241 773 q 58 732 157 770 l 35 751 l 35 762 q 37 1004 37 923 q 295 1063 37 1050 l 321 1065 q 591 1015 484 1065 l 622 1000 l 621 1000 q 707 918 678 964 l 715 901 q 742 814 739 845 l 742 811 q 749 774 745 790 q 709 635 745 688 q 592 532 667 584 q 498 453 516 481 q 479 397 480 425 q 485 334 485 372 l 489 334 m 481 53 l 481 31 l 481 -9 q 411 -12 458 -12 q 347 -14 363 -12 l 310 -16 q 240 -20 283 -18 l 189 -22 q 141 -24 157 -24 q 126 5 126 -3 l 126 66 l 127 79 l 127 136 l 126 150 q 138 232 126 215 l 197 230 q 340 226 250 228 q 455 218 431 224 q 479 187 479 213 l 481 53 m 481 -24 l 481 -10 l 482 -10 l 481 -10 l 481 -9 l 483 -9 l 482 -10 l 491 -9 q 488 -19 491 -14 q 481 -24 484 -24 z "},"@":{"ha":1133,"x_min":54,"x_max":1097,"o":"m 872 302 q 1008 585 1008 359 q 985 712 1008 646 q 842 890 944 836 q 605 945 739 945 q 296 830 425 945 q 196 685 233 774 q 159 496 159 596 q 293 192 159 304 q 603 80 426 80 q 763 99 696 80 q 767 85 765 92 q 770 72 768 77 l 786 24 q 577 -8 692 -8 q 368 31 461 -8 q 206 135 275 69 q 95 296 137 201 q 54 504 54 390 q 99 721 54 618 q 221 890 145 823 q 393 995 296 958 q 589 1032 489 1032 q 780 1004 690 1032 q 942 925 871 976 q 1055 795 1013 874 q 1097 622 1097 717 q 1060 436 1097 527 q 964 287 1023 345 q 844 223 906 230 q 724 338 766 229 l 702 338 q 617 262 662 288 q 497 237 572 237 q 362 296 422 237 q 302 439 302 355 l 302 463 q 374 654 302 570 q 587 744 450 744 q 715 692 662 744 l 764 620 l 771 644 q 783 688 774 654 q 797 738 793 722 l 854 736 l 808 477 q 798 395 798 438 q 813 327 798 351 q 872 302 829 302 m 718 514 q 686 603 718 562 q 588 644 655 644 q 475 596 520 644 q 420 477 431 547 q 451 371 420 410 q 527 330 481 332 q 665 386 612 330 q 718 514 718 441 z "},"A":{"ha":1112,"x_min":-26,"x_max":1151,"o":"m 1151 -7 q 1114 -16 1150 -16 l 1051 -16 l 1009 -17 l 968 -17 l 902 -18 q 739 -13 804 -18 q 734 -5 736 -12 l 730 9 q 699 144 724 79 l 408 142 q 391 73 406 130 q 368 -13 376 16 q 304 -20 361 -20 l 287 -19 l 248 -19 l 71 -23 l 51 -23 l 32 -24 l -16 -24 q -26 -12 -20 -19 q 158 570 42 223 l 174 618 l 173 618 l 191 675 q 242 825 200 702 q 294 985 283 949 q 307 1022 304 1021 l 419 1022 l 660 1025 l 725 1022 l 779 1025 q 819 1009 819 1025 q 1000 465 887 820 q 1128 65 1114 109 l 1137 31 q 1151 -7 1142 13 m 479 363 l 507 362 l 669 363 q 654 481 659 444 l 628 597 q 586 781 587 777 q 584 787 585 784 q 582 791 583 790 q 580 795 581 792 q 578 799 579 798 q 576 802 577 800 q 556 816 571 810 q 447 408 538 812 l 439 363 l 479 363 z "},"B":{"ha":1065,"x_min":71,"x_max":1042,"o":"m 74 757 l 73 770 l 73 812 q 77 1013 73 900 l 75 1015 l 112 1017 q 342 1026 289 1026 l 658 1026 q 927 959 820 1026 q 989 871 965 926 q 1013 747 1013 817 q 833 520 1013 614 q 988 431 935 492 q 1042 281 1042 370 q 901 42 1042 123 q 639 -19 798 -19 l 437 -16 q 90 -22 306 -16 q 71 294 71 18 q 74 757 71 571 m 496 189 q 671 312 671 189 q 624 416 671 390 q 493 442 581 439 l 473 442 l 461 404 q 456 267 456 334 q 471 189 456 199 l 496 189 m 642 643 q 655 705 655 669 q 604 801 655 777 q 498 825 553 825 q 442 785 442 825 q 446 636 442 712 l 447 600 q 477 570 448 574 l 510 574 q 642 643 613 586 z "},"C":{"ha":1055,"x_min":33,"x_max":1043,"o":"m 33 541 q 87 773 50 695 q 304 987 160 924 q 583 1043 432 1043 q 951 905 835 1043 q 1031 701 1021 823 l 1038 637 q 892 626 1026 626 l 784 627 l 775 627 l 716 629 l 700 628 l 686 628 q 657 684 667 628 q 628 757 648 739 q 581 775 608 775 q 535 766 555 775 q 502 743 515 756 q 480 705 489 730 q 460 616 464 663 q 457 511 457 569 l 457 494 l 454 426 q 560 235 454 239 q 598 244 587 235 q 649 348 627 270 q 661 374 654 364 l 686 374 l 718 374 l 827 374 l 861 374 l 925 374 l 964 374 l 1004 373 l 1031 373 q 1043 359 1040 372 l 1041 336 q 1004 191 1035 256 q 822 14 946 72 q 551 -44 699 -44 q 163 109 292 -44 q 33 541 33 261 z "},"D":{"ha":1118,"x_min":78,"x_max":1102,"o":"m 349 1025 l 475 1027 q 941 918 807 1027 q 1004 847 970 897 q 1102 531 1102 704 q 890 75 1102 222 q 598 -16 763 -14 l 595 -18 l 578 -18 l 398 -16 q 91 -22 275 -16 q 78 35 78 2 l 79 60 l 79 165 l 80 316 l 80 564 q 79 692 79 650 l 79 803 l 79 819 l 79 1013 q 153 1022 79 1018 q 271 1025 227 1025 l 349 1025 m 636 791 q 551 822 597 819 q 506 823 534 823 q 465 825 478 824 q 449 798 453 806 l 437 772 l 437 734 q 442 416 437 617 l 446 220 q 473 195 450 199 q 581 205 543 197 q 715 530 715 252 q 636 791 715 735 z "},"E":{"ha":886,"x_min":73,"x_max":878,"o":"m 77 840 l 74 1018 q 79 1016 75 1018 q 855 1025 594 1025 q 859 1021 858 1024 l 859 830 q 858 785 859 802 q 818 774 854 774 l 813 774 q 471 779 649 774 q 470 758 471 773 q 467 735 468 742 l 464 709 q 459 620 460 684 l 669 625 q 748 626 724 626 l 759 626 q 813 624 800 626 q 826 610 826 621 l 825 604 l 825 588 l 829 414 l 828 413 l 828 414 q 498 404 622 404 l 467 404 l 467 239 l 835 251 q 873 242 865 251 q 873 192 873 224 l 878 7 q 863 -12 878 -9 l 637 -10 q 373 -15 571 -10 l 262 -18 q 87 -22 144 -22 l 85 -20 l 85 -20 q 73 -7 79 -14 l 73 16 l 77 741 l 77 840 z "},"F":{"ha":858,"x_min":77,"x_max":861,"o":"m 861 992 l 861 929 q 858 764 861 836 q 641 757 779 757 l 484 756 l 484 736 l 483 677 q 485 631 483 653 q 736 645 654 645 q 836 633 818 645 l 836 406 q 827 376 836 383 q 800 368 819 368 l 791 368 l 755 370 q 486 359 633 363 l 490 90 l 490 66 l 490 3 q 477 -19 490 -18 l 90 -22 q 79 -4 88 -18 q 77 72 77 41 l 81 1015 q 173 1024 81 1024 l 190 1023 l 236 1023 l 564 1027 l 796 1024 l 819 1024 l 829 1025 q 855 1016 848 1025 q 861 992 861 1008 z "},"G":{"ha":1140,"x_min":35,"x_max":1102,"o":"m 1094 39 q 1095 37 1094 39 l 1093 31 l 1093 31 l 1093 30 q 1093 28 1093 28 q 937 -17 1061 3 q 767 -37 813 -37 q 715 -37 720 -37 l 680 -39 q 618 -42 626 -42 q 184 101 333 -42 q 35 508 35 244 q 196 907 35 771 q 630 1044 356 1044 q 754 1034 680 1044 q 883 1006 827 1025 q 999 926 951 979 q 1063 810 1048 873 q 1069 754 1065 792 q 1076 699 1073 717 q 1046 689 1072 689 l 702 695 q 695 713 699 696 l 695 711 q 647 779 683 766 q 604 785 631 785 q 554 776 578 785 q 515 751 531 767 q 488 715 500 736 q 469 671 475 694 q 458 622 463 647 q 453 572 454 597 q 451 526 452 548 q 450 489 450 503 q 451 469 451 474 l 451 422 q 455 361 451 378 q 465 323 459 344 q 477 292 470 302 q 535 240 504 254 q 631 225 566 225 q 755 245 696 225 l 759 352 l 710 356 l 703 353 l 633 353 l 625 352 l 608 370 q 606 406 606 381 l 606 558 q 623 581 606 570 l 668 581 q 800 580 727 581 l 807 580 q 908 578 873 578 l 949 578 l 964 579 q 1102 564 1085 579 l 1094 49 l 1094 39 z "},"H":{"ha":1122,"x_min":69,"x_max":1061,"o":"m 1061 232 l 1060 151 q 1061 -9 1060 100 q 911 -22 1052 -22 q 659 -18 770 -22 q 646 -1 657 -17 l 646 107 l 647 315 q 640 351 647 346 q 599 357 633 357 l 589 357 q 488 351 525 357 l 488 256 l 486 -7 q 316 -18 476 -18 l 283 -18 q 82 -14 145 -18 q 69 83 69 -9 l 73 233 l 80 840 l 80 873 q 81 944 81 883 q 88 1021 81 1004 l 92 1021 q 157 1019 136 1019 l 233 1019 l 315 1021 l 341 1021 q 475 994 456 1021 q 485 953 485 981 l 483 868 l 483 836 l 479 702 q 481 663 479 687 l 523 663 l 540 662 l 594 662 q 655 667 624 662 l 655 827 l 656 878 l 656 924 l 655 935 l 655 970 q 659 1019 655 1010 q 678 1027 663 1027 l 692 1027 l 736 1027 l 882 1031 q 1057 1003 1057 1031 l 1057 955 l 1058 939 l 1057 903 l 1057 798 l 1061 366 q 1059 337 1061 355 l 1059 304 q 1061 248 1059 283 l 1061 232 z "},"I":{"ha":571,"x_min":67,"x_max":500,"o":"m 70 73 q 77 264 70 210 q 85 859 77 559 q 83 945 83 901 l 83 967 q 81 1004 81 988 q 84 1025 81 1021 q 338 1017 229 1017 q 488 1021 448 1017 q 490 1009 490 1019 l 486 1009 l 486 764 l 490 212 q 492 201 490 205 l 492 200 q 494 191 494 196 l 500 -6 q 488 -18 496 -14 l 465 -18 l 85 -24 q 67 -14 78 -20 l 68 -2 l 70 73 z "},"J":{"ha":938,"x_min":-7,"x_max":882,"o":"m 88 337 l 170 336 l 193 336 l 202 337 l 317 335 q 351 297 347 333 q 354 269 352 283 q 403 235 359 235 q 460 277 448 235 q 469 354 469 309 l 469 372 l 467 372 l 464 468 q 461 747 461 562 q 464 1014 461 931 l 463 1015 q 467 1023 463 1020 l 476 1024 l 509 1023 l 758 1023 l 807 1024 l 873 1024 q 882 1018 879 1024 q 880 972 880 1003 l 880 962 l 880 950 l 878 916 q 873 533 873 787 l 873 458 q 873 299 873 363 q 841 171 872 235 q 764 68 810 106 q 656 5 718 30 q 431 -39 549 -39 q 235 -16 314 -39 q 120 38 165 2 q 49 107 74 75 q -7 288 -7 180 l -7 305 l -7 313 q 1 340 -7 340 l 88 337 z "},"K":{"ha":1116,"x_min":75,"x_max":1147,"o":"m 78 922 l 76 981 q 83 1027 76 1018 q 153 1027 102 1027 q 241 1027 204 1027 l 337 1025 q 414 1027 363 1027 q 477 1014 464 1027 q 474 621 474 848 l 498 616 q 535 696 508 643 q 566 758 562 749 l 573 774 q 598 826 576 780 q 643 931 620 873 q 692 1022 666 989 q 808 1023 740 1023 q 967 1020 876 1023 q 1103 1018 1058 1018 q 829 534 910 669 l 844 509 q 966 312 872 475 q 1101 81 1059 149 l 1118 54 q 1147 -2 1147 5 q 1143 -14 1147 -9 l 1139 -14 q 1078 -13 1101 -13 q 1017 -14 1055 -13 l 712 -14 q 495 410 608 181 q 479 153 490 355 l 479 144 l 480 -9 q 409 -22 472 -22 l 395 -21 l 358 -21 l 166 -22 l 104 -22 q 77 -8 85 -22 l 75 -6 l 75 97 l 76 203 l 76 587 l 78 922 z "},"L":{"ha":858,"x_min":79,"x_max":861,"o":"m 861 260 q 857 220 857 241 l 857 204 q 861 153 857 168 q 861 -5 861 50 q 191 -23 857 -23 q 90 -22 161 -23 q 79 45 79 -1 l 81 90 l 81 243 l 81 372 l 81 500 l 82 705 q 81 812 82 762 l 81 820 l 79 918 q 93 1029 79 1004 q 130 1029 106 1029 l 163 1029 l 277 1030 q 491 1006 471 1030 l 486 769 l 484 570 l 483 562 l 480 280 l 507 264 q 745 272 630 272 q 861 260 860 272 z "},"M":{"ha":1487,"x_min":88,"x_max":1445,"o":"m 428 583 q 420 189 420 391 l 420 -14 l 370 -14 l 353 -13 l 113 -15 q 88 -16 90 -15 q 91 -4 88 -15 l 91 0 l 92 3 q 88 121 88 52 l 91 879 l 90 914 l 90 948 l 89 1012 q 96 1026 89 1019 l 189 1026 l 243 1027 q 517 1021 435 1027 q 635 1016 600 1016 q 694 707 655 899 l 742 464 l 766 464 l 852 907 q 862 967 854 918 q 873 1021 869 1016 l 876 1021 l 1318 1025 l 1344 1025 l 1420 1025 q 1427 1000 1426 1022 l 1434 743 q 1445 247 1442 425 q 1441 -10 1445 110 q 1414 -20 1439 -18 l 1383 -21 q 1329 -22 1347 -22 l 1294 -22 q 1100 -23 1228 -23 q 1076 159 1076 -2 l 1078 372 l 1078 427 q 1077 534 1078 499 l 1051 538 q 965 173 1029 456 l 959 146 q 943 71 954 125 q 925 -11 932 17 q 853 -20 917 -20 l 844 -20 l 768 -18 l 727 -19 l 695 -19 l 642 -20 l 623 -20 q 588 -5 591 -20 l 589 -6 l 527 263 q 515 308 524 273 q 504 365 505 342 l 453 585 l 428 583 z "},"N":{"ha":1171,"x_min":61,"x_max":1105,"o":"m 1103 475 l 1103 429 l 1103 178 l 1104 59 l 1104 25 l 1105 -7 q 1072 -12 1101 -12 l 1054 -12 l 841 -15 q 639 -14 705 -15 q 565 183 629 -3 l 435 527 l 411 524 l 410 454 l 410 271 l 413 87 l 413 11 q 399 -21 413 -20 q 271 -19 332 -19 l 250 -19 l 148 -22 l 134 -22 l 85 -23 l 83 -22 q 61 9 61 -1 l 61 21 l 62 35 l 65 299 q 73 958 65 734 l 75 1014 q 542 1025 75 1020 q 554 995 546 1022 l 554 997 l 558 983 q 680 653 608 840 q 753 463 752 467 l 777 465 l 779 1017 q 878 1023 779 1023 l 1048 1019 l 1099 1019 q 1103 475 1103 795 z "},"O":{"ha":1116,"x_min":24,"x_max":1090,"o":"m 414 515 q 413 512 414 515 l 413 510 q 410 446 410 481 q 416 372 410 411 q 435 293 422 332 q 476 229 448 254 q 543 203 506 203 q 605 214 580 203 q 648 241 631 224 q 678 285 665 257 q 711 514 711 359 q 674 735 711 672 q 565 799 638 799 q 501 781 528 799 q 459 745 473 764 q 431 664 446 726 q 416 550 416 602 l 414 515 m 24 510 l 25 525 q 47 675 33 610 q 91 798 60 741 q 293 988 163 923 q 573 1053 423 1053 q 846 992 724 1053 q 961 901 920 956 q 1065 719 1040 802 q 1090 526 1090 635 q 990 156 1090 283 l 959 115 q 781 2 896 41 q 552 -39 665 -38 q 234 42 358 -39 q 24 510 24 178 z "},"P":{"ha":1036,"x_min":79,"x_max":1038,"o":"m 79 448 l 81 727 l 81 1010 q 94 1010 82 1010 l 119 1010 q 140 1012 133 1010 l 224 1015 q 275 1017 257 1017 l 382 1017 l 582 1021 q 671 1018 623 1021 l 676 1018 q 705 1019 699 1019 q 937 933 841 1019 q 1011 827 984 892 q 1038 692 1038 762 q 1024 574 1038 623 q 987 491 1010 525 q 641 331 898 354 l 494 325 q 488 72 488 162 l 488 51 l 488 -4 q 478 -17 486 -14 l 91 -23 q 79 81 79 9 l 79 448 m 673 739 q 529 815 646 810 q 482 816 512 816 q 472 616 474 816 l 471 565 l 473 524 q 620 559 556 526 q 683 683 683 593 q 673 739 683 721 z "},"Q":{"ha":1114,"x_min":33,"x_max":1127,"o":"m 1037 248 l 1081 250 q 1127 220 1127 248 q 1126 212 1127 220 l 1126 205 q 1126 189 1126 201 l 1126 164 l 1126 155 l 1127 90 l 1126 72 l 1126 39 l 1126 15 l 1126 3 l 1126 -16 q 1111 -31 1124 -25 q 937 -20 1024 -20 q 726 -34 849 -20 q 544 -47 604 -47 q 302 8 401 -47 q 135 170 203 64 q 126 169 126 170 l 117 178 q 33 507 33 309 q 64 715 33 622 q 274 974 121 886 q 589 1053 410 1053 q 804 1013 707 1053 q 964 902 901 972 q 1097 534 1097 755 q 1071 387 1097 463 q 1000 248 1045 310 l 1037 248 m 553 195 l 562 196 l 574 196 l 587 195 q 656 225 630 195 q 688 285 682 256 q 709 450 707 357 l 709 463 l 711 551 q 687 727 711 671 q 621 802 663 783 q 557 813 597 813 q 485 782 517 813 q 431 680 452 751 q 410 497 410 608 q 419 347 410 387 q 468 231 437 266 q 553 195 498 195 z "},"R":{"ha":1059,"x_min":70,"x_max":1069,"o":"m 379 1020 l 597 1022 q 722 1019 666 1022 q 952 948 873 1015 q 1031 759 1031 881 q 982 614 1031 674 q 838 509 932 554 q 1020 278 988 461 q 1032 186 1027 238 q 1039 117 1036 135 l 1046 83 q 1065 -5 1057 22 l 1062 -7 q 851 -15 947 -15 q 683 -12 756 -15 l 679 -12 q 634 189 658 -12 l 631 218 q 605 318 628 292 q 524 344 581 344 l 515 343 l 479 343 l 479 137 l 479 115 l 479 -9 q 469 -17 477 -16 q 259 -20 395 -20 q 79 -20 123 -20 l 75 -19 l 74 -20 q 70 -18 73 -20 l 71 43 l 71 64 l 73 345 l 73 395 l 74 446 l 75 621 l 75 644 l 73 798 q 76 1015 73 798 q 115 1020 76 1020 l 158 1019 l 199 1019 l 286 1019 l 379 1020 m 1069 -3 l 1065 -5 l 1065 -4 q 1069 -3 1065 -3 m 1065 -5 l 1065 -6 q 1065 -5 1065 -6 l 1065 -5 m 630 799 q 522 817 589 817 l 482 817 q 475 702 475 806 q 478 564 475 599 q 690 710 690 568 q 630 799 690 770 z "},"S":{"ha":1006,"x_min":36,"x_max":999,"o":"m 42 280 l 401 286 q 424 263 414 286 q 441 227 433 240 q 511 194 463 194 q 589 217 559 194 q 619 275 619 239 q 601 325 619 311 q 561 350 583 338 q 497 370 539 363 q 450 378 454 376 l 452 378 l 413 388 q 351 403 376 395 q 116 512 189 446 q 44 689 44 578 q 74 834 44 770 q 152 939 104 899 q 536 1057 291 1057 q 842 986 730 1057 l 841 986 q 939 885 912 935 q 972 762 965 835 l 954 744 q 638 737 776 737 q 589 762 597 737 q 581 782 585 772 q 520 806 572 806 l 517 806 q 449 788 477 806 q 420 751 420 769 q 428 722 420 734 q 444 704 435 711 q 471 690 453 697 q 499 681 490 683 q 528 673 508 678 l 551 667 q 634 646 566 663 q 749 615 703 630 l 749 616 q 946 494 894 567 q 999 324 999 421 q 690 -11 999 66 q 499 -43 601 -33 q 252 -6 374 -43 q 89 113 130 31 q 52 187 61 153 q 36 281 42 220 q 42 280 38 280 z "},"T":{"ha":894,"x_min":-3,"x_max":907,"o":"m 907 770 q 902 747 907 747 q 656 749 902 747 q 655 544 655 684 q 656 350 655 404 l 659 -9 q 645 -20 655 -19 l 502 -18 l 501 -18 l 456 -18 l 332 -18 q 257 -18 282 -18 l 245 -8 q 237 3 245 -7 q 241 268 237 62 l 249 629 l 248 646 q 238 725 243 713 q 221 739 234 738 q 202 740 208 740 l 175 739 l 7 741 q -2 821 -2 759 l -1 880 l -1 899 q -3 1015 -1 1007 q 3 1013 -1 1015 l 866 1021 q 899 1017 892 1021 q 906 1003 906 1013 l 906 824 l 907 770 z "},"U":{"ha":1095,"x_min":71,"x_max":1053,"o":"m 1048 526 l 1046 335 q 1018 180 1046 248 q 944 72 990 113 q 573 -42 819 -42 q 191 77 328 -42 q 110 185 143 119 q 71 334 77 251 q 74 859 74 618 q 71 930 71 859 q 77 1018 71 1001 l 91 1018 q 363 1023 191 1023 q 407 1020 375 1021 q 452 1018 439 1019 l 473 1015 q 479 646 477 881 l 475 373 q 553 237 475 237 q 609 267 587 237 q 633 332 632 296 l 636 339 l 638 568 l 639 588 q 635 892 639 745 l 633 941 q 632 995 632 971 q 640 1027 632 1019 q 1034 1025 901 1027 q 1046 1017 1039 1021 l 1046 1017 l 1053 1012 q 1048 682 1048 884 l 1048 566 l 1048 526 z "},"V":{"ha":1055,"x_min":-14,"x_max":1081,"o":"m 724 -17 l 639 -15 l 588 -15 q 494 -18 566 -18 q 279 -21 422 -18 q 230 116 253 3 q 171 350 207 230 q 127 500 136 469 l 106 572 q 76 679 98 604 q -14 1017 7 911 q 383 1023 -14 1023 q 402 1014 395 1023 q 523 321 456 696 l 528 285 l 555 285 l 562 320 q 642 747 583 452 l 658 823 q 695 1016 666 862 q 1040 1024 726 1024 l 1071 1024 q 1081 1015 1079 1019 l 945 522 q 927 454 930 469 l 895 329 q 785 -18 819 3 q 728 -17 767 -18 l 724 -17 z "},"W":{"ha":1444,"x_min":-28,"x_max":1487,"o":"m 553 1021 l 671 1022 l 935 1022 q 939 1021 937 1022 l 963 862 q 994 653 972 793 q 1021 477 1015 514 l 1026 441 l 1052 441 q 1118 957 1069 637 l 1121 972 q 1122 987 1122 978 q 1128 1014 1122 1004 q 1164 1025 1134 1025 q 1482 1013 1381 1025 q 1487 997 1485 1010 q 1434 760 1471 921 q 1378 515 1396 600 l 1373 490 q 1364 466 1371 486 q 1358 437 1357 446 l 1310 222 l 1289 116 q 1263 -14 1270 26 l 1260 -12 q 1116 -15 1213 -15 l 1010 -15 l 973 -14 q 833 -17 897 -14 q 814 90 827 -17 q 799 205 800 197 l 793 239 q 749 539 771 381 l 724 540 q 656 56 686 340 q 627 -22 648 -19 q 439 -19 530 -19 q 205 -24 348 -19 q 176 58 186 -8 l 172 85 q 64 589 146 222 l 50 655 q 16 811 42 694 q -28 1017 -9 927 q -18 1027 -27 1023 q 15 1025 -3 1025 l 23 1025 l 87 1027 l 181 1029 q 252 1027 227 1029 l 295 1027 q 317 1025 301 1027 l 327 1025 q 388 686 349 1025 q 409 507 406 533 l 414 469 l 440 468 q 496 836 465 625 q 507 932 496 860 q 529 1022 517 1005 q 553 1021 536 1021 z "},"X":{"ha":1085,"x_min":-18,"x_max":1120,"o":"m 1107 1009 l 1106 1004 l 946 747 q 908 687 945 745 l 791 502 l 806 475 l 827 446 l 886 357 l 902 328 q 920 300 907 319 q 935 279 933 281 l 935 279 l 1057 91 l 1057 92 l 1118 -5 q 1120 -10 1120 -7 q 1086 -22 1120 -20 l 738 -24 q 682 -15 697 -24 q 665 20 677 -3 q 650 50 654 42 l 541 278 q 488 171 501 202 q 382 -20 414 10 q 156 -18 279 -18 q 112 -18 156 -18 l -15 -18 q -18 -14 -18 -16 q 47 102 -18 5 q 54 112 52 106 l 309 511 l 246 614 q 102 863 172 745 l 7 1019 q 7 1021 7 1020 l 115 1021 q 326 1016 247 1021 q 422 1017 389 1016 q 528 796 448 991 l 538 769 l 562 724 l 583 771 q 645 911 603 820 q 699 1016 687 1002 l 703 1014 l 780 1017 q 1101 1025 1006 1025 q 1107 1009 1107 1021 m 1119 -5 l 1118 -5 l 1118 -3 l 1119 -5 m 1117 -1 l 1118 -3 q 1117 -1 1117 -3 z "},"Y":{"ha":1034,"x_min":-22,"x_max":1070,"o":"m 1038 1022 l 1060 1023 q 1070 1006 1067 1019 l 1050 966 l 1050 966 l 1006 882 q 877 635 906 697 l 854 591 q 727 338 817 519 q 726 269 726 315 l 726 -12 q 712 -22 722 -22 l 323 -25 q 309 18 309 -6 l 310 103 l 310 123 l 311 143 l 311 193 q 239 496 311 334 q 193 592 223 530 l 92 794 q 71 836 88 802 q 32 909 53 869 l 32 908 q -22 1018 -22 991 q -1 1021 -22 1021 l 174 1021 q 391 1019 318 1021 q 505 693 413 1015 l 535 585 q 681 1018 604 770 q 781 1023 682 1023 l 868 1023 q 920 1022 899 1023 l 1038 1022 z "},"Z":{"ha":946,"x_min":13,"x_max":935,"o":"m 916 935 l 914 800 l 914 791 q 766 572 904 723 l 713 515 q 572 346 626 412 l 494 252 l 530 252 l 924 257 q 934 136 934 257 l 934 60 l 935 16 q 927 -11 935 -5 q 897 -17 918 -17 l 879 -17 l 66 -24 q 37 -20 47 -24 q 18 -1 28 -16 q 13 230 18 184 l 24 239 l 119 355 q 446 757 330 618 l 245 755 l 195 753 q 47 751 121 751 q 40 772 39 755 q 40 798 41 788 l 40 810 l 41 816 l 41 856 l 35 1011 l 35 1015 q 41 1013 37 1015 q 175 1013 59 1013 q 726 1019 290 1013 l 873 1021 q 907 1013 896 1021 q 918 980 918 1005 l 916 942 l 916 935 z "},"[":{"ha":702,"x_min":117,"x_max":673,"o":"m 258 1037 l 594 1042 q 655 1022 640 1042 q 670 970 670 1001 q 668 810 670 824 q 585 808 629 808 q 439 817 541 808 q 435 332 435 533 q 438 18 435 132 l 635 21 l 660 21 q 673 -76 673 8 l 671 -144 l 671 -161 l 673 -180 q 657 -224 673 -222 l 142 -230 l 134 -220 q 117 -167 117 -203 l 118 -128 l 118 -76 l 119 -58 l 119 33 q 134 1033 119 700 q 155 1038 134 1038 l 232 1037 l 258 1037 m 668 809 l 669 810 q 668 809 669 809 z "},"\\":{"ha":549,"x_min":-18,"x_max":583,"o":"m 182 1061 q 181 1049 181 1057 q 366 551 181 1040 l 406 445 q 493 208 435 366 q 581 -30 552 50 q 583 -38 581 -35 q 568 -49 583 -49 l 541 -49 l 526 -50 l 447 -50 l 426 -49 l 407 -49 q 353 -50 363 -49 l 286 151 q -18 1061 93 738 l -14 1064 q 103 1060 58 1060 q 180 1061 148 1060 l 182 1061 z "},"]":{"ha":703,"x_min":43,"x_max":604,"o":"m 587 307 l 581 -145 l 581 -199 q 573 -221 581 -213 q 473 -224 527 -224 l 451 -224 l 245 -222 q 59 -220 74 -220 q 52 -205 54 -218 l 52 -203 q 49 -54 49 -108 q 53 8 49 1 q 67 15 56 15 l 89 15 q 282 17 223 15 l 282 95 q 273 795 282 332 l 171 795 l 58 793 q 43 810 46 806 l 43 945 l 44 981 l 44 1003 l 43 1012 q 52 1049 43 1040 l 107 1049 l 236 1048 l 332 1048 l 380 1048 l 429 1049 l 597 1042 l 597 994 l 596 961 l 596 842 q 590 426 596 739 l 587 307 m 597 1042 l 597 1049 l 604 1042 l 597 1042 z "},"^":{"ha":865,"x_min":90,"x_max":785,"o":"m 683 513 l 613 515 l 598 515 q 572 548 588 515 q 549 597 557 581 q 538 619 542 613 l 511 675 q 439 826 474 758 l 298 530 q 291 524 293 525 l 277 524 l 134 522 l 115 523 q 105 522 108 523 q 208 737 143 607 l 260 846 q 307 944 276 878 q 354 1041 338 1009 l 355 1042 q 466 1042 410 1042 q 526 1042 522 1042 q 529 1029 527 1042 q 657 780 571 946 q 785 530 743 613 q 683 513 777 513 m 104 521 l 102 516 l 98 516 l 93 522 l 104 521 m 93 521 l 90 521 l 91 523 l 93 521 m 104 520 q 102 516 104 517 l 104 520 m 105 522 l 104 521 q 105 522 104 522 z "},"_":{"ha":712,"x_min":-10,"x_max":740,"o":"m 221 -114 l 475 -113 q 668 -115 627 -113 q 720 -123 709 -117 q 730 -157 730 -130 l 729 -178 q 719 -189 729 -189 l 711 -189 l 665 -189 l 636 -189 l 606 -188 q 9 -205 321 -188 l -6 -184 l -6 -182 q -10 -138 -10 -162 q 0 -114 -10 -114 l 221 -114 m 740 -194 l 728 -188 l 728 -186 l 740 -194 z "},"`":{"ha":429,"x_min":-79,"x_max":402,"o":"m 145 970 l 139 967 q 115 997 138 968 l 115 996 l 94 1022 q -23 1151 33 1095 q -79 1225 -79 1208 q -73 1234 -79 1228 q 225 1221 66 1221 l 245 1221 l 250 1222 q 320 1118 264 1211 q 389 1005 375 1025 q 402 978 402 986 q 361 970 402 970 l 145 970 z "},"a":{"ha":1068,"x_min":24,"x_max":1027,"o":"m 382 450 l 389 450 l 406 450 q 441 453 429 450 l 478 458 q 591 508 572 465 q 600 563 600 530 q 596 589 596 570 q 577 629 596 608 q 531 650 557 650 l 528 650 q 463 539 463 650 q 451 535 459 534 q 414 536 444 536 l 64 536 q 88 637 67 583 q 243 788 128 742 q 471 838 358 833 l 512 840 l 534 842 q 542 840 538 842 l 551 840 l 581 841 q 624 836 591 841 l 644 833 q 659 833 648 833 q 701 828 669 833 q 783 805 734 824 q 983 555 948 740 q 998 382 998 477 q 1003 354 1003 367 l 1000 307 l 1000 229 q 1000 217 1000 227 l 999 171 l 999 165 q 1001 155 1001 161 l 1000 149 l 1000 135 q 1020 13 1000 71 l 1027 -2 l 720 -2 l 696 -1 q 654 -2 669 -1 q 613 109 633 39 q 583 67 604 91 q 551 44 562 44 q 399 -12 451 -5 q 316 -24 321 -24 q 310 -24 310 -24 q 65 88 148 -24 q 24 222 24 146 q 177 424 24 387 q 329 444 216 433 l 351 446 l 382 450 m 605 293 l 606 315 q 600 380 606 349 q 557 361 585 372 q 511 344 528 351 q 480 319 494 337 q 467 270 467 301 q 487 213 467 239 q 530 187 507 187 q 603 224 581 187 l 604 231 l 605 273 l 605 293 z "},"b":{"ha":1034,"x_min":26,"x_max":1002,"o":"m 1001 459 l 1002 447 l 1002 443 l 1002 408 q 795 1 998 87 q 651 -24 732 -24 q 434 75 540 -24 l 403 54 l 374 -3 l 26 -3 l 26 526 l 26 1055 q 432 1056 165 1056 q 433 902 433 992 q 432 732 433 812 q 559 812 492 783 q 686 840 626 840 q 881 762 802 840 q 905 736 897 749 q 917 720 913 723 l 917 720 l 924 715 q 989 571 965 660 q 1002 492 1002 519 q 1001 459 1002 466 m 582 379 q 569 498 582 444 q 494 598 545 598 q 431 534 454 598 q 409 355 409 471 q 449 218 409 277 q 495 188 471 188 q 536 206 519 188 q 568 266 554 224 q 582 333 582 307 q 581 361 582 359 l 581 363 q 582 370 582 366 l 582 379 z "},"c":{"ha":1031,"x_min":0,"x_max":1012,"o":"m 533 -21 l 479 -24 q 397 -15 437 -24 q 324 -1 370 -15 q 94 126 170 36 l 81 140 q 5 345 22 216 l 3 359 q 0 411 0 380 q 12 492 0 441 q 191 755 54 683 l 283 804 q 536 841 385 841 q 643 826 594 841 l 656 822 q 656 823 656 822 l 657 823 q 963 621 887 762 l 964 616 q 1010 463 998 547 l 994 468 l 570 468 l 566 493 q 530 597 555 571 l 516 605 q 449 442 456 601 q 447 416 448 420 l 448 395 l 450 355 q 450 345 450 351 l 457 338 l 450 338 q 471 260 453 288 q 507 233 489 233 q 555 275 542 233 q 568 352 568 317 q 725 355 620 355 l 751 355 l 816 354 l 881 354 l 1012 353 q 806 45 991 136 q 769 30 793 41 l 743 18 q 546 -24 635 -24 q 533 -21 536 -24 z "},"d":{"ha":1036,"x_min":22,"x_max":999,"o":"m 591 806 l 593 874 l 593 1054 l 795 1054 l 998 1055 q 999 -4 998 1055 l 653 -4 q 632 39 639 19 l 605 86 q 483 2 540 28 q 342 -24 425 -24 q 115 83 207 -24 q 22 357 22 190 q 47 566 22 468 q 135 744 75 661 q 292 837 195 826 l 302 836 l 360 840 q 548 768 443 840 l 562 759 l 562 760 q 581 745 577 749 l 602 754 q 591 802 591 789 l 591 806 m 446 389 l 445 365 l 445 346 q 459 269 445 309 l 458 270 q 486 218 463 250 q 531 186 508 186 q 545 190 540 186 q 616 380 616 220 q 579 556 616 490 q 530 597 557 597 q 483 556 503 597 q 446 389 446 482 z "},"e":{"ha":1000,"x_min":-7,"x_max":968,"o":"m 375 831 q 440 840 406 840 q 506 838 475 840 l 534 835 q 637 819 602 829 l 637 820 l 652 814 q 873 680 794 770 l 873 680 q 919 615 892 659 q 945 554 945 571 l 951 536 l 954 516 q 967 440 967 471 q 968 393 967 410 l 409 393 l 409 371 q 413 338 413 355 q 413 312 413 321 q 415 293 414 302 q 417 278 416 283 q 420 264 417 272 q 423 254 422 256 q 427 243 423 251 q 433 228 431 235 q 442 214 435 220 l 442 214 l 450 200 q 485 180 463 186 q 535 218 522 188 q 557 294 549 249 q 627 301 582 301 l 713 299 l 964 299 q 915 147 956 216 l 916 147 q 806 52 880 92 q 535 -22 595 -22 q 517 -21 524 -22 l 502 -21 l 496 -22 l 490 -22 q 476 -20 484 -22 q 460 -24 469 -24 l 401 -18 q 381 -20 396 -20 q 305 -1 367 -20 l 305 -2 l 289 3 l 273 8 q 98 113 171 38 q 5 288 26 188 q -2 325 3 300 q -7 358 -7 349 l -7 391 q -7 408 -7 402 l -7 418 q 79 667 -7 562 q 308 814 164 772 l 324 819 q 376 832 360 825 l 375 831 m 578 483 l 592 492 q 570 586 581 565 q 551 621 560 606 q 504 650 533 650 q 455 621 475 650 q 410 480 419 571 q 490 483 453 483 l 578 483 z "},"f":{"ha":606,"x_min":31,"x_max":564,"o":"m 111 795 l 110 850 q 133 944 110 882 q 194 1040 155 1006 q 337 1065 230 1065 q 564 1063 445 1065 l 564 919 l 541 919 q 506 920 517 919 q 452 807 452 900 q 454 801 454 803 q 453 797 454 800 l 453 778 q 503 774 475 774 l 534 774 q 562 773 551 774 l 562 565 l 451 565 l 451 -1 l 309 -1 q 109 0 246 -1 l 109 566 l 32 566 l 31 668 l 31 770 l 111 770 l 111 795 z "},"g":{"ha":1084,"x_min":26,"x_max":1038,"o":"m 632 85 l 635 125 q 629 180 635 135 q 605 149 620 164 q 579 130 589 133 q 400 98 505 98 q 211 141 294 98 q 76 265 127 184 q 26 439 26 347 q 53 603 26 531 q 130 727 81 674 q 252 810 179 780 q 410 841 324 841 q 640 764 548 841 q 675 734 657 746 l 685 764 l 685 811 l 861 811 l 1037 812 l 1038 179 q 1036 143 1038 168 l 1036 140 q 1036 100 1036 127 l 1036 92 l 1037 56 l 1033 18 q 1033 14 1033 15 q 1027 -16 1034 14 q 1013 -69 1021 -46 q 902 -205 985 -144 q 758 -275 819 -267 q 732 -286 751 -282 q 708 -291 712 -290 l 708 -290 q 582 -312 642 -312 q 520 -311 522 -312 l 500 -311 q 468 -313 494 -313 q 372 -297 441 -313 l 351 -292 q 260 -263 301 -282 q 109 -160 164 -224 q 35 18 54 -96 l 33 24 q 97 23 55 23 l 208 25 l 509 25 l 508 22 q 523 -42 508 -13 q 564 -71 538 -71 q 623 -20 608 -71 q 635 63 635 19 l 635 77 q 633 74 633 77 q 632 85 632 76 m 651 454 l 652 463 q 565 659 646 659 q 524 642 542 659 q 485 561 496 615 q 475 467 475 507 l 477 443 l 477 437 l 476 432 l 476 428 q 503 320 476 372 q 570 267 529 267 q 644 378 614 267 l 641 378 q 651 433 651 405 l 651 454 z "},"h":{"ha":975,"x_min":27,"x_max":932,"o":"m 931 451 l 932 240 l 932 116 l 932 -1 l 547 -1 l 547 347 l 549 422 q 531 514 549 484 q 486 544 513 544 q 424 494 436 544 q 415 401 415 458 l 415 315 l 416 286 l 416 0 l 221 -1 l 28 -1 l 27 531 l 27 1063 q 420 1065 163 1065 l 420 723 q 536 808 468 777 q 661 840 604 840 q 771 813 717 840 q 861 741 825 786 q 911 628 890 694 q 932 518 932 562 l 931 451 z "},"i":{"ha":518,"x_min":35,"x_max":465,"o":"m 461 1070 l 462 884 l 44 884 q 43 977 44 949 l 42 1069 l 461 1070 m 35 1069 l 42 1076 l 42 1069 l 35 1069 m 464 215 l 465 209 l 465 107 q 463 41 465 79 q 458 1 460 2 l 446 -1 l 199 -1 l 170 -3 q 41 -1 64 -3 l 41 4 l 41 17 l 41 47 q 45 269 41 181 l 52 791 l 52 812 l 105 812 l 117 812 l 136 812 l 153 811 l 162 812 l 211 812 l 221 812 l 452 810 q 456 810 455 810 q 458 806 458 810 l 458 742 q 461 569 459 677 q 463 416 463 461 l 463 332 l 463 296 l 465 260 l 465 239 q 464 236 465 238 l 464 215 z "},"j":{"ha":623,"x_min":26,"x_max":570,"o":"m 172 878 l 170 1054 l 368 1054 l 566 1055 l 567 878 l 172 878 m 43 -361 q 28 -330 24 -347 l 28 -328 q 30 -318 30 -320 l 30 -305 l 32 -240 l 32 -85 l 54 -85 q 159 -27 140 -85 q 168 45 168 1 l 168 55 l 170 141 l 170 811 l 368 811 l 566 812 q 568 -73 568 374 l 568 -76 q 570 -102 570 -90 q 547 -219 570 -159 q 486 -306 524 -280 l 487 -306 q 231 -363 400 -363 l 159 -361 l 155 -361 l 151 -361 l 138 -361 q 132 -360 134 -361 l 119 -360 q 97 -363 109 -363 q 68 -362 85 -363 l 64 -362 q 43 -361 52 -361 m 32 -85 l 26 -85 l 32 -79 l 32 -85 z "},"k":{"ha":1107,"x_min":14,"x_max":1057,"o":"m 927 812 l 940 812 l 992 812 q 1004 812 996 812 q 1017 813 1012 813 q 977 728 1011 781 q 956 695 966 714 l 956 696 q 826 477 922 644 q 914 292 875 372 q 975 167 954 212 l 1057 -1 l 591 -1 l 544 139 q 474 357 515 222 l 448 299 l 448 1 q 239 -1 382 -1 q 14 0 95 -1 l 14 1064 l 229 1064 l 445 1065 q 447 770 445 983 q 448 471 448 557 l 474 547 q 564 812 498 625 l 927 812 z "},"l":{"ha":522,"x_min":42,"x_max":458,"o":"m 42 1065 l 214 1065 q 458 1064 293 1065 l 458 -1 l 43 -1 l 42 1065 z "},"m":{"ha":1508,"x_min":21,"x_max":1476,"o":"m 915 675 q 1166 840 1041 840 q 1388 747 1292 840 q 1451 645 1434 701 l 1455 627 q 1474 548 1474 563 q 1471 523 1474 532 q 1476 511 1476 519 l 1474 484 q 1476 416 1476 435 l 1476 -1 l 1065 -1 l 1064 398 l 1065 413 q 1010 511 1065 511 q 948 403 948 511 l 949 356 l 949 0 l 761 -1 l 573 -1 l 572 363 l 574 408 q 519 512 574 496 q 456 414 456 509 l 457 373 l 457 0 l 239 -1 l 22 -1 l 21 407 l 21 812 l 207 812 l 393 812 l 398 796 q 436 658 423 707 q 539 787 480 734 q 656 840 597 840 q 692 840 674 840 q 813 792 751 840 q 915 675 875 743 z "},"n":{"ha":990,"x_min":34,"x_max":949,"o":"m 214 811 l 396 812 q 408 767 399 798 q 425 706 417 736 l 438 655 q 471 731 465 724 l 482 745 q 692 841 551 841 q 820 801 760 841 q 915 695 881 760 q 949 559 949 631 q 947 546 949 551 l 947 129 l 947 -1 l 551 -1 l 549 338 l 552 408 q 497 511 552 511 q 438 413 438 511 q 439 383 438 391 l 439 373 l 439 361 l 439 0 l 237 -1 l 35 -1 l 34 406 l 34 812 l 214 811 z "},"o":{"ha":1064,"x_min":15,"x_max":1026,"o":"m 1026 410 q 1025 402 1025 404 l 1025 397 q 973 195 1023 285 l 974 195 q 781 33 905 90 q 537 -24 657 -24 q 338 -1 417 -24 q 192 67 259 22 q 92 153 125 112 q 15 429 15 251 q 17 439 15 435 l 17 450 q 15 456 15 453 l 16 463 l 16 463 q 66 619 28 582 q 75 636 66 627 l 75 635 l 85 652 q 269 792 165 754 l 292 801 q 418 833 337 823 l 439 836 q 459 837 444 836 q 479 840 473 838 l 509 839 q 513 840 511 840 q 519 839 516 840 l 519 840 q 531 838 523 838 q 541 840 534 840 q 791 780 688 840 l 804 774 q 1026 410 1026 667 m 604 406 q 566 589 602 541 q 529 608 551 608 q 492 584 508 608 q 466 506 475 559 q 456 412 456 453 q 459 341 456 371 q 471 279 463 312 q 494 224 478 246 q 529 202 509 202 q 604 406 604 202 z "},"p":{"ha":1053,"x_min":23,"x_max":1015,"o":"m 23 811 l 198 812 l 375 812 q 398 767 388 785 l 424 720 q 556 813 496 785 q 689 840 617 840 q 818 814 761 840 q 967 655 918 767 q 1015 416 1015 543 q 1013 387 1015 400 q 971 191 1002 269 q 865 43 941 113 l 865 44 q 736 -14 798 -14 q 701 -22 719 -22 q 651 -18 683 -22 q 608 -8 618 -14 q 456 72 514 12 l 430 71 q 436 5 436 33 l 435 -7 l 435 -215 l 229 -216 l 24 -216 l 23 298 l 23 811 m 591 341 l 594 384 q 593 387 593 385 q 594 390 593 389 l 594 401 q 591 456 594 435 l 587 485 q 580 526 586 492 q 511 614 564 614 q 427 393 427 614 q 465 216 427 271 q 508 184 482 190 q 591 341 578 190 z "},"q":{"ha":1055,"x_min":22,"x_max":1016,"o":"m 1013 582 q 1016 -216 1013 582 l 604 -216 l 603 81 q 545 47 568 65 q 454 -2 515 17 q 342 -22 393 -22 q 179 33 253 -22 q 66 172 106 88 q 27 347 27 256 q 22 367 22 355 q 26 393 22 378 q 23 402 23 399 q 48 572 23 487 q 121 720 73 658 q 382 841 224 841 q 454 829 410 838 q 509 807 497 819 q 592 739 547 789 l 600 731 l 618 720 q 639 766 630 749 q 651 789 648 783 l 658 804 q 662 810 658 804 q 666 819 665 817 q 1012 812 712 812 l 1013 582 m 616 371 l 618 401 q 535 614 618 597 q 483 581 496 609 q 465 525 470 552 q 454 474 460 498 q 448 418 448 450 l 448 387 q 529 184 448 206 q 573 201 561 186 q 606 279 594 227 l 617 361 l 616 371 z "},"r":{"ha":804,"x_min":30,"x_max":762,"o":"m 30 812 l 210 812 l 391 812 l 406 722 q 424 613 421 626 l 448 613 q 544 778 473 729 l 571 793 q 595 808 573 798 l 593 808 l 608 814 q 723 841 675 840 q 736 840 733 841 l 762 840 l 762 461 q 717 465 747 465 q 654 456 686 465 q 600 433 622 447 q 562 397 578 419 q 511 196 511 330 l 513 125 l 513 0 l 271 -1 l 31 -1 l 30 404 l 30 812 z "},"s":{"ha":1111,"x_min":25,"x_max":1076,"o":"m 863 635 l 802 636 q 631 635 747 636 q 598 673 623 657 q 544 688 574 688 q 495 675 514 688 q 476 638 476 662 q 494 595 476 614 q 545 569 512 576 q 609 558 577 561 q 685 553 642 555 q 750 546 728 550 q 806 538 772 543 q 912 516 866 530 q 1010 458 959 503 q 1037 433 1020 454 q 1076 298 1067 387 q 1004 124 1072 200 q 833 15 937 49 q 812 9 825 11 l 789 4 q 675 -15 724 -15 q 582 -24 646 -24 l 565 -24 l 515 -24 l 508 -24 q 283 9 403 -24 l 283 9 q 26 229 27 72 q 126 226 62 226 q 299 227 190 226 q 464 228 408 228 q 463 214 463 224 q 494 165 463 184 q 564 146 524 146 q 627 162 604 146 q 650 202 650 178 q 637 244 650 227 q 600 269 625 260 q 553 280 574 277 q 498 287 532 284 q 448 292 464 290 q 399 299 431 295 q 343 307 368 304 q 287 316 319 310 q 230 329 255 322 q 177 346 205 335 q 127 370 149 357 q 25 555 25 433 q 87 724 25 665 q 338 821 164 798 q 388 830 355 823 q 433 838 420 838 q 449 836 445 838 l 535 841 l 654 836 q 694 833 661 835 q 836 810 774 827 q 953 745 897 793 q 1017 641 1009 697 l 1013 642 l 863 635 z "},"t":{"ha":707,"x_min":34,"x_max":667,"o":"m 535 338 l 534 328 q 536 293 534 304 q 550 266 538 281 q 629 251 562 251 l 648 250 q 666 252 658 250 l 667 -1 l 296 -1 l 273 -2 l 265 -2 q 210 14 240 -2 q 166 43 180 31 q 141 75 151 56 q 118 148 122 112 q 115 236 115 183 l 115 612 l 35 612 l 34 707 l 34 804 l 112 804 l 112 1028 l 321 1028 l 531 1029 l 532 805 l 645 805 l 646 708 l 646 612 l 535 612 l 535 338 z "},"u":{"ha":1043,"x_min":37,"x_max":1003,"o":"m 469 746 l 467 315 q 517 246 467 246 q 558 319 558 246 l 558 810 l 781 811 l 1002 811 l 1003 1 l 623 1 l 591 111 q 353 -24 505 -24 q 134 50 223 -24 l 135 55 q 106 80 123 58 q 81 117 90 101 q 37 352 37 197 l 37 374 l 37 810 l 253 810 l 469 811 l 469 746 z "},"v":{"ha":1128,"x_min":-3,"x_max":1112,"o":"m -3 811 l 254 812 l 507 812 q 513 758 510 792 l 528 610 q 559 337 536 526 l 560 337 l 633 812 l 1112 812 l 1109 798 l 1107 798 q 876 0 995 405 l 220 0 q 138 284 170 172 l 126 333 q -3 811 64 572 z "},"w":{"ha":1333,"x_min":1,"x_max":1324,"o":"m 774 804 l 824 480 l 825 480 q 850 628 835 532 l 861 699 l 870 749 q 880 812 875 795 l 1324 812 q 1179 149 1284 629 l 1141 -1 l 709 -1 l 694 113 q 670 291 683 187 q 656 395 658 395 l 597 -1 l 138 -1 q 91 259 115 106 q 62 442 67 412 l 48 532 q 1 813 48 533 l 228 813 l 454 814 q 457 787 455 795 l 461 758 q 491 473 486 544 l 494 473 q 502 527 496 489 q 511 587 507 566 l 544 785 l 545 803 q 774 804 619 804 z "},"x":{"ha":1101,"x_min":22,"x_max":1057,"o":"m 279 812 l 492 812 q 513 683 500 768 q 530 570 525 597 l 539 526 l 563 526 l 589 654 q 602 726 591 661 q 621 812 614 790 l 1046 812 l 941 589 l 930 562 q 909 520 925 550 q 893 487 893 491 l 875 453 q 961 236 913 360 q 1057 -1 1010 111 l 626 -1 q 542 366 596 119 l 517 366 q 504 296 515 352 q 488 211 493 239 l 476 138 q 451 -1 468 87 l 444 -1 q 278 0 332 0 l 210 0 l 140 -1 l 22 -1 q 44 59 32 29 l 57 92 q 98 206 65 113 q 159 361 130 299 l 194 454 q 137 611 172 508 l 138 611 l 126 646 q 96 735 115 678 q 70 812 76 791 l 279 812 z "},"y":{"ha":951,"x_min":-11,"x_max":932,"o":"m 161 -94 q 224 28 224 -73 q 199 149 224 66 l 188 182 q -11 810 109 437 l 196 810 l 400 811 l 431 635 q 441 553 434 606 q 452 472 449 499 l 518 811 l 919 811 l 919 812 l 932 811 l 929 798 l 928 798 l 749 301 q 707 184 721 231 q 677 96 694 137 q 617 -67 660 54 q 536 -257 575 -188 q 342 -370 475 -361 l 278 -370 l 223 -373 q 197 -371 208 -373 q 182 -372 192 -372 l 141 -370 l 115 -372 q 98 -371 111 -372 q 41 -371 69 -371 l 28 -336 q 26 -326 26 -332 q 27 -317 26 -319 l 27 -312 l 28 -305 l 28 -228 q 27 -109 28 -148 q 48 -108 37 -108 q 66 -110 59 -108 q 91 -108 75 -108 l 96 -108 q 121 -102 102 -104 q 150 -96 140 -99 q 161 -94 160 -94 l 161 -94 z "},"z":{"ha":977,"x_min":-2,"x_max":949,"o":"m 309 555 l 155 557 l 99 557 l 99 811 l 949 811 q 946 809 948 809 l 869 686 q 622 251 704 400 l 750 251 l 899 250 l 899 -1 l 98 -1 q 39 -3 98 -1 q 7 -1 20 -3 l 8 -1 q 3 0 6 -1 q -2 1 -1 1 q 92 150 5 17 q 210 334 179 283 l 347 555 l 309 555 z "},"{":{"ha":700,"x_min":37,"x_max":631,"o":"m 555 1040 l 608 1038 l 614 1038 l 631 1023 l 630 912 l 630 856 q 631 827 630 856 q 618 789 631 789 l 605 789 l 572 789 q 514 772 533 789 q 492 709 496 755 l 490 654 q 489 543 489 618 q 449 460 489 495 q 353 405 410 425 l 410 383 q 473 322 458 361 q 488 200 488 283 l 488 176 l 487 138 l 487 125 q 501 46 487 65 q 536 21 515 27 q 593 16 557 16 l 603 16 q 623 12 620 16 l 623 -3 l 622 -11 l 622 -65 l 623 -87 q 614 -220 623 -211 l 489 -215 q 304 -196 364 -215 q 214 -137 245 -176 q 180 -45 182 -98 q 177 50 177 9 q 176 114 176 90 q 176 164 176 138 q 174 203 175 190 q 170 232 173 217 q 149 265 163 254 q 98 282 134 276 l 74 285 q 41 290 41 289 q 37 454 37 389 q 45 526 37 518 q 174 601 168 528 l 173 783 l 172 789 l 172 806 q 350 1029 172 998 q 468 1039 398 1038 l 555 1040 z "},"|":{"ha":334,"x_min":60,"x_max":276,"o":"m 263 1056 l 261 1017 l 264 786 q 273 190 268 414 l 276 -41 q 199 -57 269 -57 l 149 -57 q 75 -54 95 -57 l 68 -45 q 60 -38 66 -45 q 67 554 60 193 l 69 654 q 74 1030 71 709 l 74 1035 l 73 1040 l 73 1049 q 76 1065 73 1061 q 170 1065 108 1065 q 262 1065 233 1065 q 263 1056 263 1064 z "},"}":{"ha":702,"x_min":68,"x_max":661,"o":"m 175 1025 q 180 1026 176 1025 l 246 1026 q 416 1001 366 1026 q 526 765 519 951 l 526 734 l 522 606 q 618 525 522 532 q 653 524 633 524 l 656 524 q 661 515 661 523 l 661 435 l 660 406 l 660 319 l 661 290 q 621 281 654 282 q 570 275 588 279 q 526 213 526 264 q 528 176 526 197 l 530 130 q 532 32 532 75 q 524 -53 532 -10 q 499 -125 515 -96 q 416 -204 467 -184 q 301 -225 364 -225 l 270 -225 l 259 -224 l 174 -225 l 154 -227 l 109 -227 l 92 -226 q 84 -227 87 -226 q 80 -221 82 -224 q 77 -216 79 -218 q 73 -211 75 -214 l 73 -212 l 68 -205 l 70 -100 l 69 -70 q 81 21 69 16 l 118 21 q 185 38 163 21 q 208 107 208 55 l 206 206 q 238 337 209 298 q 356 408 267 377 q 242 472 272 433 q 212 587 212 510 l 214 705 q 190 775 214 756 q 99 793 166 793 q 77 796 77 793 l 79 892 l 79 932 l 77 976 q 83 1027 77 1015 q 139 1026 103 1026 l 157 1026 l 162 1025 l 175 1025 z "},"~":{"ha":884,"x_min":94,"x_max":798,"o":"m 716 505 q 712 519 713 511 l 719 522 l 726 515 l 732 516 q 771 442 745 516 q 798 350 798 368 q 797 329 798 332 l 797 326 q 708 233 754 266 q 604 200 662 200 q 468 239 547 200 q 458 243 462 240 l 441 251 q 311 294 356 294 q 240 273 266 294 q 190 207 214 252 l 143 214 l 132 243 q 129 250 132 243 q 125 262 126 257 l 125 261 q 94 382 94 346 q 95 385 94 384 q 290 524 174 524 q 372 510 339 524 q 441 479 404 496 l 464 467 q 475 462 473 462 q 593 418 563 418 q 716 505 658 418 z "},"":{"ha":486,"x_min":0,"x_max":0,"o":""},"":{"ha":532,"x_min":52,"x_max":475,"o":"m 159 472 l 201 471 l 315 471 q 401 462 389 471 q 415 424 414 452 q 420 370 416 395 l 426 331 q 469 -172 456 14 l 473 -233 q 475 -261 475 -249 q 420 -275 469 -274 l 414 -275 l 67 -281 l 54 -271 q 52 -269 53 -270 l 61 -176 q 74 -36 64 -115 q 99 250 84 43 q 128 469 113 456 q 159 472 130 472 m 402 831 l 439 831 q 447 683 447 816 l 447 602 q 345 590 437 590 l 320 591 l 261 591 l 104 586 q 87 606 94 597 l 91 710 l 92 726 l 92 736 q 97 830 92 830 l 144 830 l 288 831 l 402 831 m 448 604 l 447 602 q 448 604 447 603 z "},"":{"ha":1015,"x_min":97,"x_max":936,"o":"m 633 892 l 630 743 l 636 736 q 833 660 757 729 q 922 456 909 591 q 847 452 914 452 l 825 453 l 785 453 l 639 451 q 608 456 617 451 l 608 458 q 579 555 608 534 q 541 565 564 565 q 444 354 444 562 q 448 274 444 302 l 448 269 q 526 151 448 151 q 606 198 585 151 q 622 248 615 220 l 626 264 q 928 262 731 262 q 936 252 933 262 q 891 102 928 145 q 798 22 858 52 q 646 -36 739 -8 q 650 -132 650 -96 q 648 -183 650 -174 q 635 -194 646 -193 l 587 -194 q 439 -191 502 -194 l 422 -171 l 425 -41 q 231 37 279 -4 q 116 231 125 126 q 97 363 97 304 q 427 738 97 641 l 427 775 l 426 893 q 525 902 426 902 q 633 897 624 902 l 633 892 z "},"":{"ha":977,"x_min":8,"x_max":977,"o":"m 770 266 l 954 271 q 964 236 964 267 l 964 216 l 967 10 q 955 -14 966 -8 q 924 -20 944 -20 l 898 -20 l 884 -21 l 738 -21 l 702 -20 q 302 -24 463 -20 l 278 -25 q 231 -26 245 -26 l 195 -26 l 176 -26 l 111 -26 q 47 -24 69 -26 l 35 -9 l 34 3 l 34 17 l 31 184 q 42 248 31 235 l 138 254 q 140 366 140 354 l 140 386 l 141 414 l 85 414 l 71 414 l 52 414 l 43 414 q 8 426 8 414 l 9 480 l 9 506 l 9 532 l 9 542 l 8 579 q 16 614 8 606 l 44 613 l 72 613 l 144 612 q 142 701 142 657 q 190 901 142 815 q 349 1021 244 979 q 572 1063 454 1063 q 939 905 836 1063 q 977 742 977 861 q 971 725 977 728 q 686 728 723 727 q 640 735 650 729 q 629 750 631 741 q 612 786 626 766 q 568 806 599 806 q 498 698 498 800 q 500 643 498 665 l 500 639 q 502 607 502 625 l 672 610 q 708 606 702 610 l 710 435 q 701 420 710 420 q 686 420 691 420 l 646 422 q 574 423 633 423 q 510 413 516 423 q 503 337 505 402 l 501 263 q 732 266 604 266 l 770 266 z "},"":{"ha":1002,"x_min":150,"x_max":937,"o":"m 520 40 q 430 53 453 49 q 363 76 407 58 q 285 125 320 95 l 237 73 q 182 26 195 26 q 168 34 178 26 q 150 41 160 35 q 210 122 174 83 l 249 163 q 207 239 220 199 l 208 239 l 199 262 q 173 350 180 309 l 169 425 q 192 573 170 494 q 266 704 214 651 l 230 741 q 151 829 151 822 q 164 846 151 836 q 184 857 178 855 l 300 733 q 515 802 398 802 q 751 726 669 802 l 767 713 l 903 856 q 936 831 905 855 q 900 786 935 822 q 852 737 865 749 q 835 720 840 725 l 836 720 l 800 681 q 878 397 878 577 q 818 182 878 279 l 876 122 q 937 41 916 79 q 920 33 929 35 l 908 26 l 905 26 q 853 68 892 26 q 849 73 850 72 l 784 142 q 676 70 733 92 q 551 41 618 47 l 520 40 m 901 857 l 904 858 l 903 856 l 901 857 m 183 858 l 188 856 l 185 856 l 183 858 m 497 203 l 503 204 l 520 204 q 614 217 588 204 q 711 397 711 267 q 663 595 711 546 q 599 633 633 625 q 522 640 565 640 l 498 640 q 336 519 372 640 q 324 410 324 480 q 433 223 324 270 q 497 203 458 203 z "},"":{"ha":987,"x_min":-20,"x_max":1026,"o":"m 895 555 l 904 555 q 912 522 912 551 l 913 457 q 904 401 913 405 l 727 401 l 696 421 q 703 258 696 354 q 837 264 782 264 q 904 257 892 264 q 917 230 917 250 q 916 203 917 230 l 916 140 q 909 108 916 115 q 884 101 903 101 l 838 102 l 816 102 l 793 102 q 696 100 752 102 l 696 41 l 696 12 q 680 -24 696 -22 l 555 -25 l 494 -25 l 431 -26 l 418 -26 q 414 -25 417 -26 l 313 -23 q 297 -3 311 -20 l 297 -1 q 298 15 297 9 l 298 24 l 298 38 l 297 74 l 297 98 l 149 94 q 86 110 88 94 l 86 171 l 87 193 l 85 231 q 109 264 85 264 l 131 263 l 153 263 l 245 262 l 279 262 l 307 266 q 266 400 307 400 q 97 397 207 397 q 87 457 87 403 l 87 474 l 89 530 q 108 553 89 551 q 123 553 115 553 l 140 553 l 170 552 l 192 552 l 180 621 l 97 792 q 66 860 89 809 q 19 949 43 911 l 16 956 q -20 1033 -20 1015 q 103 1038 -20 1038 l 153 1038 l 254 1040 q 378 1028 365 1040 q 394 969 381 1002 q 410 925 407 935 l 436 845 l 435 845 l 455 783 q 468 745 458 774 q 481 702 477 717 l 498 648 l 517 581 q 604 864 592 823 l 642 990 q 678 1028 652 1019 q 777 1037 705 1037 l 876 1036 l 902 1036 l 922 1036 l 942 1036 l 979 1037 q 1026 1030 1021 1037 q 987 950 1012 1004 q 947 868 962 895 l 891 753 q 836 614 863 684 l 813 556 q 864 554 848 554 q 886 555 880 554 l 895 555 m 924 408 l 910 407 l 910 410 l 924 408 z "},"":{"ha":335,"x_min":68,"x_max":269,"o":"m 264 1056 l 262 1017 l 264 786 l 269 539 q 197 522 262 522 l 146 522 q 128 520 146 522 q 120 520 124 520 q 77 531 81 520 l 68 541 l 75 1030 l 75 1035 l 74 1040 l 74 1049 q 77 1065 74 1061 q 171 1065 109 1065 q 263 1065 234 1065 q 264 1056 264 1064 m 264 323 l 263 300 q 264 285 263 288 l 264 4 l 266 -7 l 269 -236 q 197 -253 262 -253 l 146 -253 l 128 -254 q 120 -254 124 -254 q 77 -243 81 -254 l 68 -234 l 75 298 l 74 304 l 74 317 q 132 335 74 335 q 264 333 191 335 q 263 332 263 332 l 264 323 z "},"":{"ha":1234,"x_min":136,"x_max":924,"o":"m 172 203 q 401 153 320 153 q 439 163 421 153 q 458 195 458 173 q 374 255 458 224 q 303 283 367 258 q 208 332 239 309 l 208 332 q 136 485 136 395 q 179 599 136 545 q 297 680 222 654 q 213 751 244 708 q 180 844 182 794 q 302 1020 196 968 q 519 1057 393 1057 q 833 1027 644 1057 l 834 900 l 835 856 q 832 842 835 845 q 651 869 714 869 q 587 838 587 869 q 687 776 587 808 l 730 762 l 730 762 l 747 756 q 871 671 827 724 q 924 556 916 617 q 909 458 922 484 q 770 323 876 377 q 841 252 814 293 q 867 165 867 210 q 846 80 867 119 q 725 -17 808 13 q 562 -46 642 -46 q 176 -14 349 -46 l 160 5 q 158 131 158 58 q 172 203 158 203 m 433 572 l 443 563 l 433 571 q 419 526 419 549 q 444 479 419 503 q 520 436 469 455 q 590 418 571 418 q 634 433 609 418 q 659 473 659 449 q 606 521 659 497 q 506 557 553 545 q 454 568 458 568 q 450 568 450 568 l 480 599 q 433 572 451 599 m 909 458 l 909 456 l 909 458 z "},"":{"ha":447,"x_min":-73,"x_max":568,"o":"m 397 1227 l 513 1230 q 556 1224 554 1230 q 561 992 559 1121 q 559 985 559 988 l 554 986 l 328 977 l 311 996 q 315 1138 311 1054 q 327 1230 319 1221 q 397 1227 364 1227 m 311 996 l 311 996 l 311 996 m 558 985 l 568 984 q 558 972 568 972 q 551 975 554 972 l 558 985 m 172 1181 l 173 1114 l 173 1093 q 174 987 173 1019 q 119 980 167 980 l 104 981 l 70 981 l -57 976 l -73 1000 q -58 1230 -73 1213 q 45 1229 -34 1229 q 168 1227 124 1228 q 172 1210 172 1225 l 172 1202 l 172 1181 z "},"":{"ha":1116,"x_min":8,"x_max":1122,"o":"m 1000 164 q 559 -45 820 -45 q 271 41 422 -45 l 271 40 q 33 385 99 147 q 8 505 16 444 q 160 886 18 735 q 347 1013 238 969 q 563 1057 456 1057 q 771 1013 670 1057 q 947 895 872 970 q 1070 717 1023 821 q 1122 497 1117 613 q 1088 318 1120 406 q 1000 163 1057 231 l 1000 164 m 572 920 l 562 920 q 400 884 477 920 q 266 788 323 849 q 186 666 210 727 q 151 514 163 606 q 207 309 151 406 q 356 154 262 212 q 545 96 450 96 q 716 129 640 96 q 849 219 792 162 q 940 357 905 276 q 974 523 974 437 q 941 681 974 608 q 853 805 908 753 q 725 887 798 857 q 572 920 651 918 m 785 441 l 794 441 l 803 441 q 839 428 834 441 q 747 265 817 330 q 591 199 678 199 q 328 339 411 199 q 279 513 282 417 q 330 668 285 598 q 443 776 376 738 q 585 814 511 814 q 748 755 687 814 q 831 598 810 696 q 800 592 829 592 l 784 593 l 683 593 l 677 598 q 577 675 652 675 q 454 563 479 675 q 448 507 448 536 q 478 396 448 442 q 566 350 509 350 q 640 378 624 350 q 681 439 665 424 q 730 441 699 441 l 785 441 m 832 599 l 832 597 l 831 598 l 832 599 z "},"":{"ha":573,"x_min":43,"x_max":537,"o":"m 366 889 q 299 988 366 988 q 211 949 233 988 q 139 948 186 949 q 66 947 91 947 q 294 1026 100 1026 l 332 1026 q 513 982 452 1026 q 537 900 537 954 l 536 825 l 536 636 q 532 635 535 636 l 526 636 l 514 636 q 444 637 491 636 l 439 637 q 373 639 395 639 l 372 653 q 371 656 371 655 l 371 693 q 198 627 275 627 q 43 730 43 627 q 258 849 43 849 q 366 847 320 849 l 366 889 m 349 838 q 200 755 200 838 q 224 698 200 716 q 284 680 248 680 q 340 695 320 680 q 366 748 360 710 l 366 769 l 367 802 l 366 825 l 366 838 l 349 838 z "},"":{"ha":905,"x_min":1,"x_max":939,"o":"m 851 709 l 899 708 l 918 708 q 939 702 937 708 l 885 585 q 777 357 820 443 l 787 332 l 787 328 q 857 168 848 186 l 876 127 q 936 -7 904 66 q 896 -16 932 -16 l 885 -16 l 857 -16 l 810 -16 l 672 -16 q 648 -9 659 -16 q 562 127 642 1 l 563 127 l 538 165 q 429 339 480 252 l 431 350 q 546 536 469 412 q 651 703 624 659 q 689 707 657 707 l 704 707 l 851 709 m 802 330 l 803 326 l 789 326 l 788 338 q 802 330 802 338 m 393 708 l 414 709 l 503 709 l 509 707 q 511 707 510 707 q 471 615 509 682 l 454 585 q 449 573 453 581 q 444 561 445 565 l 349 353 q 434 163 378 283 q 510 -5 489 43 q 416 -13 504 -13 l 237 -17 q 231 -9 232 -17 l 205 28 q 1 338 184 59 q 43 427 3 369 q 60 451 54 442 q 77 477 66 460 l 100 510 q 134 559 130 552 l 133 559 l 226 704 q 235 709 227 705 l 237 709 q 328 708 300 708 l 393 708 z "},"":{"ha":870,"x_min":70,"x_max":823,"o":"m 776 154 l 765 155 q 621 151 701 155 l 600 174 l 600 418 l 77 420 q 73 433 73 423 l 75 550 l 75 566 l 75 583 l 75 617 q 806 625 75 617 q 819 621 818 623 l 821 394 q 823 168 823 242 q 808 154 819 154 l 776 154 m 70 618 l 75 621 q 75 617 75 618 q 70 618 73 618 z "},"":{"ha":1160,"x_min":38,"x_max":1152,"o":"m 273 54 q 38 506 65 189 q 168 871 47 728 q 297 979 227 939 q 590 1057 437 1057 q 799 1013 699 1057 q 975 896 899 970 q 1098 718 1050 822 q 1152 497 1146 614 q 1107 292 1149 391 q 996 120 1066 193 q 814 -1 918 43 q 615 -45 711 -45 q 272 54 425 -45 l 273 54 m 907 782 q 594 916 773 916 q 425 890 498 916 q 292 797 353 864 q 214 668 237 730 q 191 521 191 606 q 219 362 191 436 q 296 231 246 288 q 420 141 346 174 q 598 108 495 108 q 794 162 701 108 q 939 314 887 217 q 991 543 991 412 q 907 782 991 674 m 420 758 l 600 763 q 732 730 680 763 q 784 633 784 698 q 713 507 784 541 q 654 493 683 493 l 726 357 q 745 326 733 348 l 776 273 l 776 266 q 694 262 743 262 q 650 354 677 293 q 610 441 623 414 l 587 484 l 494 484 l 494 418 q 493 338 494 390 q 491 266 491 286 q 470 267 485 267 l 433 267 q 418 267 433 267 l 418 614 q 416 707 416 677 l 416 758 l 420 758 m 505 257 l 491 257 l 491 266 q 505 257 505 265 m 777 266 l 777 266 q 783 267 781 267 l 776 260 l 776 266 l 777 266 m 694 262 l 697 258 l 690 262 l 694 262 m 494 548 l 612 545 q 685 560 660 545 q 710 613 710 574 q 696 672 710 651 q 655 694 682 690 q 585 699 629 699 q 494 694 541 699 l 494 654 l 494 548 z "},"":{"ha":460,"x_min":-79,"x_max":543,"o":"m -79 921 l -79 935 q -67 1004 -79 977 q 391 986 216 986 l 436 986 l 539 989 q 542 970 542 985 l 541 961 l 541 912 q 542 873 541 884 l 542 855 l 543 836 q 522 819 543 819 l 501 819 l 493 820 l 401 819 l 384 818 l 366 818 q 264 815 310 818 l 81 813 q -65 810 -16 810 l -79 827 l -79 870 l -79 882 l -79 921 z "},"":{"ha":595,"x_min":84,"x_max":507,"o":"m 507 858 l 507 848 q 448 709 506 772 q 309 647 389 647 q 160 697 228 647 q 106 764 127 722 q 84 861 85 807 q 155 1006 100 948 q 296 1063 210 1063 q 445 1005 382 1063 q 507 858 507 947 z "},"":{"ha":859,"x_min":62,"x_max":806,"o":"m 261 454 l 127 452 l 96 452 q 66 460 66 452 l 66 515 l 66 534 l 66 649 q 174 659 66 659 l 191 659 l 208 660 l 328 662 l 328 779 q 332 807 328 798 q 353 815 335 815 l 368 814 l 507 814 l 516 815 q 543 808 538 815 l 542 800 l 540 656 l 662 656 l 700 655 l 802 655 q 806 637 806 652 l 804 477 l 805 471 q 801 458 805 458 l 536 458 l 535 387 q 536 341 536 358 l 536 324 q 537 307 536 307 l 511 307 l 500 308 l 349 306 l 341 306 q 335 451 336 366 q 261 454 296 454 m 338 309 l 342 302 q 329 298 334 298 q 324 308 324 298 l 338 309 m 64 111 l 62 144 q 79 196 62 184 l 95 194 q 344 185 208 185 l 458 186 l 515 186 l 572 186 q 802 180 724 186 q 804 123 804 178 l 804 104 l 804 -12 q 784 -17 801 -17 l 778 -16 l 307 -22 l 244 -22 l 153 -23 l 111 -23 q 76 -24 86 -23 l 62 -4 l 64 101 l 64 111 z "},"":{"ha":787,"x_min":87,"x_max":728,"o":"m 728 100 l 725 7 l 725 -2 q 720 -11 725 -10 l 684 -10 q 433 -7 536 -7 q 100 -16 330 -7 l 95 -10 q 87 33 87 -4 l 90 172 q 114 193 90 176 l 259 290 q 375 380 330 340 q 454 511 454 452 q 438 553 454 538 q 398 568 422 568 q 360 558 374 568 q 343 535 347 547 q 336 508 340 522 q 328 488 333 493 q 285 488 311 488 l 163 488 l 141 488 l 101 488 q 87 490 90 488 q 101 577 90 538 q 144 648 113 616 q 238 708 175 681 q 385 734 301 734 q 524 722 469 734 q 623 684 578 709 q 694 616 668 659 q 720 525 720 574 q 707 438 720 477 q 622 314 682 369 q 483 209 563 260 l 484 210 q 441 172 473 203 l 684 175 q 719 156 709 175 q 728 100 728 137 z "},"":{"ha":832,"x_min":90,"x_max":738,"o":"m 374 288 l 338 288 q 322 297 327 288 q 317 331 317 306 q 319 394 317 370 q 331 418 321 418 l 340 418 l 370 418 q 441 438 416 418 q 467 499 467 459 q 407 574 467 574 q 368 564 382 574 q 351 541 354 553 q 334 490 342 498 q 151 493 235 490 l 126 493 q 102 497 106 493 q 105 532 103 503 q 113 578 106 562 q 195 686 144 655 q 308 726 245 718 q 433 735 370 735 q 541 723 495 735 q 629 687 587 710 q 696 623 670 663 q 722 542 722 583 q 676 431 722 467 q 562 375 630 396 q 697 305 656 346 q 738 203 738 264 q 488 -25 738 7 q 382 -29 444 -29 q 253 -10 320 -29 q 140 56 186 9 q 90 208 94 97 q 91 210 90 210 l 309 212 l 326 213 q 330 209 329 213 q 351 152 334 171 q 403 133 368 133 q 457 152 439 133 q 475 198 475 172 q 374 288 475 288 m 114 581 l 115 583 q 114 581 115 582 z "},"":{"ha":435,"x_min":31,"x_max":509,"o":"m 85 956 l 74 956 l 41 956 l 31 975 l 144 1169 q 178 1217 174 1212 l 225 1217 l 509 1210 l 509 1208 q 420 1108 481 1177 q 329 1006 358 1039 q 278 966 300 972 q 209 958 257 959 l 85 956 z "},"":{"ha":921,"x_min":50,"x_max":895,"o":"m 784 -13 l 749 -14 l 659 -14 q 547 -11 596 -14 q 539 49 539 -5 l 539 63 l 516 67 l 505 45 q 424 -33 463 -33 q 397 -25 421 -33 l 397 -81 l 399 -282 l 395 -282 l 317 -286 q 220 -290 261 -290 l 184 -290 l 172 -289 l 100 -289 l 94 -290 q 58 -288 62 -290 q 62 -272 61 -278 l 58 -43 q 54 414 54 224 l 52 559 l 52 606 l 50 701 q 56 719 50 713 q 168 720 94 720 l 187 719 l 400 719 q 414 700 408 715 q 412 621 412 672 l 409 380 l 408 368 l 408 356 l 407 309 q 421 211 407 236 q 460 186 436 186 q 515 216 504 186 q 526 291 526 247 l 525 337 l 525 349 l 527 435 q 528 531 528 467 l 528 708 q 581 713 528 713 q 644 711 635 713 l 656 711 l 881 715 q 890 698 887 713 l 890 641 l 884 205 q 885 193 884 195 q 886 189 886 190 l 886 190 l 890 94 l 895 89 q 889 -5 889 -3 q 862 -14 884 -14 l 854 -14 l 848 -13 l 784 -13 m 401 -282 l 413 -286 q 414 -294 414 -290 q 407 -298 414 -298 q 399 -293 399 -298 q 401 -282 399 -288 z "},"":{"ha":897,"x_min":22,"x_max":855,"o":"m 549 884 q 539 215 539 762 l 539 154 l 540 94 l 540 -21 l 381 -23 q 341 -17 341 -23 l 341 118 l 343 542 q 22 785 33 556 q 141 975 32 917 q 409 1025 236 1025 l 425 1023 l 492 1023 l 499 1025 l 631 1027 q 834 1030 766 1030 q 854 1002 854 1030 l 854 970 l 855 960 l 854 949 l 852 703 q 851 530 851 654 q 849 339 850 406 l 843 -17 q 844 -21 843 -18 q 825 -32 841 -30 q 766 -35 808 -35 l 648 -33 q 629 -9 643 -33 l 629 -2 l 628 8 l 628 31 q 633 372 628 102 l 640 871 l 597 875 q 549 884 580 876 m 540 -21 l 541 -21 q 541 -22 541 -21 q 540 -21 540 -22 z "},"":{"ha":536,"x_min":88,"x_max":450,"o":"m 267 528 l 274 528 q 288 527 277 528 l 296 527 q 402 472 355 527 q 450 346 450 417 q 398 220 450 274 q 271 165 347 165 q 145 217 196 165 q 88 341 95 269 q 105 401 95 359 q 142 473 115 444 l 141 473 q 267 528 190 528 z "},"":{"ha":410,"x_min":3,"x_max":416,"o":"m 168 -1 l 173 -1 l 184 -1 l 278 -3 q 286 -11 286 -4 q 281 -24 286 -17 q 266 -48 277 -32 q 245 -82 255 -64 q 372 -116 327 -82 q 416 -205 416 -150 q 353 -321 416 -279 q 211 -363 289 -363 q 68 -350 133 -363 q 3 -318 3 -337 q 22 -270 3 -304 l 31 -250 q 35 -238 31 -248 q 47 -224 39 -229 q 66 -232 52 -227 q 165 -256 126 -256 q 239 -214 239 -256 q 186 -184 239 -184 q 165 -189 181 -186 l 150 -194 q 126 -183 142 -194 l 111 -174 l 112 -174 q 82 -134 82 -157 q 154 -5 117 -72 q 164 -1 157 -2 l 168 -1 m 150 -194 l 150 -208 l 146 -208 l 145 -195 l 150 -194 z "},"":{"ha":699,"x_min":109,"x_max":537,"o":"m 532 636 l 532 608 l 532 525 q 534 285 532 407 l 537 -9 q 480 -15 531 -15 l 465 -14 l 332 -14 q 296 -15 332 -14 l 290 -15 l 277 -16 l 271 -15 l 263 -5 l 263 -5 q 260 9 260 0 q 265 469 260 232 q 111 389 183 414 q 109 389 109 389 l 109 584 l 172 614 q 178 616 174 616 l 191 623 q 327 715 296 671 q 473 713 421 713 q 532 714 525 713 q 532 690 532 711 l 532 636 z "},"":{"ha":636,"x_min":-12,"x_max":650,"o":"m -12 824 l -12 831 q 189 1044 16 996 q 298 1057 237 1057 q 530 1010 431 1057 q 650 829 642 958 q 420 602 637 648 q 298 590 361 590 q 93 641 180 590 q -12 824 6 692 z "},"":{"ha":903,"x_min":5,"x_max":912,"o":"m 621 -14 l 562 -13 l 549 -13 q 454 -15 513 -15 l 433 -15 q 407 -13 408 -15 l 555 350 l 545 372 l 549 376 l 408 701 q 408 705 408 702 q 449 709 408 709 l 597 709 l 665 711 q 710 682 691 711 l 710 682 q 720 665 715 671 l 840 472 l 839 472 l 859 440 q 912 353 912 363 q 909 333 912 342 q 898 313 905 325 q 885 292 890 301 q 868 268 879 283 q 853 246 857 252 l 838 224 q 765 107 811 185 q 693 -8 718 30 q 621 -14 682 -14 m 7 697 l 6 707 q 65 713 6 713 q 283 709 125 713 q 284 706 283 708 l 393 534 q 446 445 409 507 q 505 349 483 383 l 503 347 q 431 227 469 291 l 431 227 q 368 124 404 184 l 292 -4 q 239 -10 282 -10 l 217 -10 l 173 -11 q 57 -16 109 -16 q 5 -10 5 -16 q 39 75 5 9 l 78 164 q 111 239 106 229 l 155 344 l 7 697 m 543 379 l 545 372 l 524 351 l 530 379 l 543 379 m 303 -14 l 301 -16 l 292 -6 l 294 -4 l 303 -14 m 506 350 l 505 350 l 505 353 l 506 350 m 505 350 l 505 349 l 505 350 z "},"":{"ha":1758,"x_min":74,"x_max":1712,"o":"m 497 1060 l 496 1032 l 496 949 q 498 709 496 831 l 502 414 q 445 409 496 409 l 430 410 l 296 410 q 261 409 296 410 l 254 409 l 242 408 l 236 409 l 228 419 l 228 418 q 224 433 224 424 q 230 893 224 656 q 76 812 148 838 q 74 813 74 812 l 74 1008 l 137 1038 q 142 1040 139 1040 l 155 1046 q 292 1139 260 1095 q 438 1137 387 1137 q 496 1138 490 1137 q 497 1114 497 1135 l 497 1060 m 1053 1066 l 1060 1067 q 1088 1059 1088 1067 q 1065 976 1078 1014 l 1045 924 q 923 562 985 749 l 908 519 q 841 321 900 496 q 749 60 783 147 l 736 28 l 738 28 q 688 -37 718 -26 q 645 -43 671 -42 l 616 -43 q 543 -46 590 -46 l 508 -46 q 489 -5 494 -17 q 508 48 504 44 l 549 160 q 864 1006 667 486 l 887 1065 q 941 1068 899 1068 l 1036 1066 l 1053 1066 m 1662 294 l 1673 294 q 1691 292 1687 294 q 1697 277 1696 289 q 1712 278 1706 278 l 1696 262 l 1699 146 q 1696 99 1699 111 q 1683 87 1693 87 l 1655 87 l 1645 86 l 1613 86 q 1615 5 1615 28 q 1612 -25 1615 -18 q 1597 -33 1609 -32 q 1464 -32 1533 -32 q 1340 -35 1394 -32 l 1322 -15 l 1324 75 l 1324 92 q 1298 102 1324 102 q 1228 88 1272 102 l 1104 87 l 1040 85 q 1021 85 1040 85 q 1004 87 1006 85 q 998 91 1001 90 q 994 94 996 92 q 990 98 992 96 q 987 104 989 101 q 990 280 987 229 q 1058 419 1021 358 q 1115 511 1095 480 q 1143 553 1135 541 q 1152 566 1151 564 l 1152 566 l 1248 716 q 1274 717 1253 717 q 1305 719 1295 718 l 1350 720 q 1499 724 1411 724 l 1598 724 l 1613 720 l 1615 713 l 1613 714 l 1613 689 l 1610 425 q 1611 369 1610 385 l 1611 366 l 1610 357 l 1610 349 q 1609 332 1609 344 q 1632 294 1609 294 l 1662 294 m 1192 292 l 1204 267 l 1213 267 l 1344 269 q 1358 286 1355 275 l 1358 295 l 1358 328 l 1359 403 q 1339 545 1359 540 q 1329 536 1331 541 l 1293 473 q 1269 430 1279 448 l 1192 292 z "},"":{"ha":1764,"x_min":74,"x_max":1626,"o":"m 497 1060 l 496 1032 l 496 949 q 498 709 496 831 l 502 414 q 445 409 496 409 l 430 410 l 296 410 q 261 409 296 410 l 254 409 l 242 408 l 236 409 l 228 419 l 228 418 q 224 433 224 424 q 230 893 224 656 q 76 812 148 838 q 74 813 74 812 l 74 1008 l 137 1038 q 142 1040 139 1040 l 155 1046 q 292 1139 260 1095 q 438 1137 387 1137 q 496 1138 490 1137 q 497 1114 497 1135 l 497 1060 m 1053 1066 l 1060 1067 q 1088 1059 1088 1067 q 1065 976 1078 1014 l 1045 924 q 923 562 985 749 l 908 519 q 841 321 900 496 q 749 60 783 147 l 736 28 l 738 28 q 688 -37 718 -26 q 645 -43 671 -42 l 616 -43 q 543 -46 590 -46 l 508 -46 q 489 -5 494 -17 q 508 48 504 44 l 549 160 q 864 1006 667 486 l 887 1065 q 941 1068 899 1068 l 1036 1066 l 1053 1066 m 1626 96 l 1624 2 l 1624 -7 q 1618 -16 1624 -15 l 1582 -15 q 1332 -12 1435 -12 q 998 -20 1229 -12 l 994 -15 q 986 28 986 -9 l 988 168 q 1008 184 988 172 q 1032 201 1027 197 q 1045 210 1037 204 l 1158 286 q 1274 376 1228 335 q 1353 507 1353 447 q 1337 548 1353 533 q 1297 564 1321 564 q 1259 553 1272 564 q 1242 530 1245 543 q 1235 503 1238 517 q 1227 484 1232 488 q 1183 483 1210 483 l 1062 483 l 1040 484 l 1000 484 q 986 485 989 484 q 1000 572 989 534 q 1042 644 1011 611 q 1137 703 1074 676 q 1283 730 1200 730 q 1422 717 1367 730 q 1522 680 1477 705 q 1593 612 1567 654 q 1619 520 1619 569 q 1605 433 1619 472 q 1521 310 1580 364 q 1381 204 1461 255 l 1382 205 q 1340 167 1371 198 l 1582 170 q 1617 151 1608 170 q 1626 96 1626 132 z "},"":{"ha":1755,"x_min":56,"x_max":1730,"o":"m 304 711 q 283 746 283 711 q 284 818 283 793 q 296 842 286 842 l 305 842 l 335 842 q 407 862 381 842 q 433 922 433 883 q 372 998 433 998 q 333 987 347 998 q 317 964 319 977 q 300 914 308 922 q 117 917 200 914 l 92 917 q 67 921 71 917 q 70 956 68 927 q 79 1002 72 985 q 160 1110 110 1079 q 273 1150 211 1141 q 398 1159 336 1159 q 507 1146 460 1159 q 594 1111 553 1134 q 662 1047 635 1087 q 688 966 688 1007 q 642 855 688 890 q 528 799 595 820 q 663 729 622 770 q 703 627 703 688 q 453 399 703 431 q 347 395 409 395 q 219 414 286 395 q 105 480 152 433 q 56 631 59 521 q 56 633 56 633 l 275 636 l 291 637 q 296 633 294 637 q 316 576 300 595 q 369 557 333 557 q 422 576 404 557 q 440 622 440 595 q 340 712 440 712 l 304 711 m 79 1005 l 80 1006 q 79 1005 80 1006 m 1149 1066 l 1156 1067 q 1184 1059 1184 1067 q 1160 976 1174 1014 l 1141 924 q 1019 562 1080 749 l 1004 519 q 937 321 996 496 q 844 60 878 147 l 832 28 l 833 28 q 783 -37 814 -26 q 741 -43 766 -42 l 711 -43 q 638 -46 686 -46 l 604 -46 q 585 -5 589 -17 q 604 48 600 44 l 644 160 q 960 1006 763 486 l 983 1065 q 1037 1068 994 1068 l 1131 1066 l 1149 1066 m 1680 294 l 1691 294 q 1709 292 1704 294 q 1715 277 1714 289 q 1730 278 1723 278 l 1714 262 l 1717 146 q 1714 99 1717 111 q 1700 87 1711 87 l 1672 87 l 1662 86 l 1631 86 q 1632 5 1632 28 q 1629 -25 1632 -18 q 1615 -33 1626 -32 q 1481 -32 1551 -32 q 1358 -35 1412 -32 l 1339 -15 l 1341 75 l 1341 92 q 1315 102 1341 102 q 1246 88 1289 102 l 1122 87 l 1057 85 l 1039 85 q 1021 87 1024 85 q 1016 91 1019 90 q 1011 94 1013 92 q 1008 98 1010 96 q 1004 104 1006 101 q 1008 280 1004 229 q 1076 419 1038 358 q 1133 511 1113 480 q 1160 553 1152 541 q 1170 566 1168 564 l 1170 566 l 1265 716 q 1292 717 1271 717 q 1323 719 1313 718 l 1368 720 q 1517 724 1429 724 l 1615 724 l 1631 720 l 1632 713 l 1631 714 l 1631 689 l 1628 425 q 1628 369 1628 385 l 1628 366 l 1628 357 l 1628 349 q 1627 332 1627 344 q 1649 294 1627 294 l 1680 294 m 1209 292 l 1222 267 l 1230 267 l 1362 269 q 1376 286 1373 275 l 1375 295 l 1375 328 l 1377 403 q 1356 545 1377 540 q 1347 536 1349 541 l 1311 473 q 1286 430 1297 448 l 1209 292 z "},"":{"ha":760,"x_min":35,"x_max":749,"o":"m 306 577 l 299 642 q 304 645 301 644 l 304 645 q 318 646 310 646 l 399 648 l 425 647 q 578 651 437 647 l 647 653 q 654 574 654 646 l 654 568 q 618 449 654 497 q 572 396 597 420 q 520 347 546 372 q 447 229 459 288 q 478 179 453 191 q 541 166 503 166 l 543 167 q 727 208 635 170 l 749 189 l 749 178 q 748 -64 748 17 q 465 -125 748 -114 q 193 -75 302 -125 l 163 -60 l 163 -60 q 78 22 105 -23 l 69 39 q 50 109 58 64 q 35 167 41 153 q 77 305 39 252 q 198 431 123 374 q 250 473 225 452 q 306 577 303 519 m 305 831 l 303 894 l 303 999 q 596 1010 313 999 l 644 1013 q 659 983 659 991 l 659 936 l 658 923 l 658 854 l 659 838 q 646 758 659 773 l 589 760 q 427 765 515 764 q 321 772 338 767 q 304 806 304 778 l 304 823 l 305 831 m 303 1014 l 303 1000 l 284 999 q 303 1014 299 1014 z "},"":{"ha":1112,"x_min":-26,"x_max":1151,"o":"m 1151 -7 q 1114 -16 1150 -16 l 1051 -16 l 1009 -17 l 968 -17 l 902 -18 q 739 -13 804 -18 q 734 -5 736 -12 l 730 9 q 699 144 724 79 l 408 142 q 391 73 406 130 q 368 -13 376 16 q 304 -20 361 -20 l 287 -19 l 248 -19 l 71 -23 l 51 -23 l 32 -24 l -16 -24 q -26 -12 -20 -19 q 158 570 42 223 l 174 618 l 173 618 l 191 675 q 242 825 200 702 q 294 985 283 949 q 307 1022 304 1021 l 419 1022 l 660 1025 l 725 1022 l 779 1025 q 819 1009 819 1025 q 1000 465 887 820 q 1128 65 1114 109 l 1137 31 q 1151 -7 1142 13 m 479 363 l 507 362 l 669 363 q 654 481 659 444 l 628 597 q 586 781 587 777 q 584 787 585 784 q 582 791 583 790 q 580 795 581 792 q 578 799 579 798 q 576 802 577 800 q 556 816 571 810 q 447 408 538 812 l 439 363 l 479 363 m 543 1124 l 536 1121 q 512 1151 535 1122 l 512 1150 l 491 1176 q 374 1305 431 1249 q 318 1379 318 1362 q 324 1388 318 1382 q 623 1375 463 1375 l 643 1375 l 647 1376 q 717 1272 662 1365 q 786 1159 772 1179 q 800 1132 800 1140 q 758 1124 800 1124 l 543 1124 z "},"":{"ha":1112,"x_min":-26,"x_max":1151,"o":"m 1151 -7 q 1114 -16 1150 -16 l 1051 -16 l 1009 -17 l 968 -17 l 902 -18 q 739 -13 804 -18 q 734 -5 736 -12 l 730 9 q 699 144 724 79 l 408 142 q 391 73 406 130 q 368 -13 376 16 q 304 -20 361 -20 l 287 -19 l 248 -19 l 71 -23 l 51 -23 l 32 -24 l -16 -24 q -26 -12 -20 -19 q 158 570 42 223 l 174 618 l 173 618 l 191 675 q 242 825 200 702 q 294 985 283 949 q 307 1022 304 1021 l 419 1022 l 660 1025 l 725 1022 l 779 1025 q 819 1009 819 1025 q 1000 465 887 820 q 1128 65 1114 109 l 1137 31 q 1151 -7 1142 13 m 479 363 l 507 362 l 669 363 q 654 481 659 444 l 628 597 q 586 781 587 777 q 584 787 585 784 q 582 791 583 790 q 580 795 581 792 q 578 799 579 798 q 576 802 577 800 q 556 816 571 810 q 447 408 538 812 l 439 363 l 479 363 m 378 1127 l 367 1126 l 334 1126 l 323 1146 l 437 1340 q 471 1388 467 1383 l 518 1388 l 802 1381 l 802 1379 q 713 1279 774 1348 q 622 1177 651 1210 q 571 1137 593 1143 q 502 1129 550 1130 l 378 1127 z "},"":{"ha":1112,"x_min":-26,"x_max":1151,"o":"m 1151 -7 q 1114 -16 1150 -16 l 1051 -16 l 1009 -17 l 968 -17 l 902 -18 q 739 -13 804 -18 q 734 -5 736 -12 l 730 9 q 699 144 724 79 l 408 142 q 391 73 406 130 q 368 -13 376 16 q 304 -20 361 -20 l 287 -19 l 248 -19 l 71 -23 l 51 -23 l 32 -24 l -16 -24 q -26 -12 -20 -19 q 158 570 42 223 l 174 618 l 173 618 l 191 675 q 242 825 200 702 q 294 985 283 949 q 307 1022 304 1021 l 419 1022 l 660 1025 l 725 1022 l 779 1025 q 819 1009 819 1025 q 1000 465 887 820 q 1128 65 1114 109 l 1137 31 q 1151 -7 1142 13 m 479 363 l 507 362 l 669 363 q 654 481 659 444 l 628 597 q 586 781 587 777 q 584 787 585 784 q 582 791 583 790 q 580 795 581 792 q 578 799 579 798 q 576 802 577 800 q 556 816 571 810 q 447 408 538 812 l 439 363 l 479 363 m 826 1147 l 626 1143 q 588 1191 605 1155 q 583 1201 584 1199 l 562 1242 q 536 1208 551 1232 q 508 1167 520 1184 q 488 1150 496 1150 l 300 1150 l 267 1148 q 228 1156 228 1148 q 229 1160 228 1158 q 351 1332 275 1232 l 366 1356 q 415 1389 383 1383 q 597 1398 447 1395 l 718 1400 q 741 1377 730 1394 q 756 1355 753 1360 q 765 1342 760 1351 q 774 1330 771 1333 l 774 1331 l 816 1268 q 848 1224 824 1256 l 861 1205 q 871 1190 865 1200 l 883 1175 q 894 1154 894 1161 q 876 1147 894 1147 l 868 1147 l 826 1147 z "},"":{"ha":1112,"x_min":-26,"x_max":1151,"o":"m 1151 -7 q 1114 -16 1150 -16 l 1051 -16 l 1009 -17 l 968 -17 l 902 -18 q 739 -13 804 -18 q 734 -5 736 -12 l 730 9 q 699 144 724 79 l 408 142 q 391 73 406 130 q 368 -13 376 16 q 304 -20 361 -20 l 287 -19 l 248 -19 l 71 -23 l 51 -23 l 32 -24 l -16 -24 q -26 -12 -20 -19 q 158 570 42 223 l 174 618 l 173 618 l 191 675 q 242 825 200 702 q 294 985 283 949 q 307 1022 304 1021 l 419 1022 l 660 1025 l 725 1022 l 779 1025 q 819 1009 819 1025 q 1000 465 887 820 q 1128 65 1114 109 l 1137 31 q 1151 -7 1142 13 m 479 363 l 507 362 l 669 363 q 654 481 659 444 l 628 597 q 586 781 587 777 q 584 787 585 784 q 582 791 583 790 q 580 795 581 792 q 578 799 579 798 q 576 802 577 800 q 556 816 571 810 q 447 408 538 812 l 439 363 l 479 363 m 680 1373 l 696 1386 l 867 1381 q 876 1371 869 1381 q 684 1138 861 1138 q 587 1152 647 1138 l 548 1164 q 459 1187 476 1187 q 436 1184 443 1187 q 427 1173 429 1181 q 425 1155 426 1164 q 266 1146 423 1146 l 248 1146 q 243 1158 243 1150 q 296 1332 243 1275 q 444 1390 348 1390 q 570 1364 480 1390 l 570 1365 q 629 1348 591 1358 l 650 1343 q 659 1337 652 1343 l 676 1356 q 680 1373 680 1367 m 654 1369 l 660 1376 l 665 1364 l 654 1369 z "},"":{"ha":1112,"x_min":-26,"x_max":1151,"o":"m 1151 -7 q 1114 -16 1150 -16 l 1051 -16 l 1009 -17 l 968 -17 l 902 -18 q 739 -13 804 -18 q 734 -5 736 -12 l 730 9 q 699 144 724 79 l 408 142 q 391 73 406 130 q 368 -13 376 16 q 304 -20 361 -20 l 287 -19 l 248 -19 l 71 -23 l 51 -23 l 32 -24 l -16 -24 q -26 -12 -20 -19 q 158 570 42 223 l 174 618 l 173 618 l 191 675 q 242 825 200 702 q 294 985 283 949 q 307 1022 304 1021 l 419 1022 l 660 1025 l 725 1022 l 779 1025 q 819 1009 819 1025 q 1000 465 887 820 q 1128 65 1114 109 l 1137 31 q 1151 -7 1142 13 m 479 363 l 507 362 l 669 363 q 654 481 659 444 l 628 597 q 586 781 587 777 q 584 787 585 784 q 582 791 583 790 q 580 795 581 792 q 578 799 579 798 q 576 802 577 800 q 556 816 571 810 q 447 408 538 812 l 439 363 l 479 363 m 735 1381 l 850 1383 q 894 1378 892 1383 q 899 1146 897 1275 q 897 1139 897 1142 l 892 1140 l 666 1131 l 648 1150 q 652 1292 648 1208 q 665 1383 656 1375 q 735 1381 702 1381 m 648 1149 l 648 1150 l 648 1149 m 896 1139 l 905 1138 q 896 1126 905 1126 q 889 1129 892 1126 l 896 1139 m 509 1335 l 511 1268 l 511 1247 q 511 1141 511 1173 q 456 1134 505 1134 l 442 1135 l 408 1135 l 281 1130 l 264 1154 q 279 1383 264 1367 q 383 1382 304 1383 q 505 1381 462 1382 q 510 1364 510 1379 l 509 1356 l 509 1335 z "},"":{"ha":1112,"x_min":-26,"x_max":1151,"o":"m 1151 -7 q 1114 -16 1150 -16 l 1051 -16 l 1009 -17 l 968 -17 l 902 -18 q 739 -13 804 -18 q 734 -5 736 -12 l 730 9 q 699 144 724 79 l 408 142 q 391 73 406 130 q 368 -13 376 16 q 304 -20 361 -20 l 287 -19 l 248 -19 l 71 -23 l 51 -23 l 32 -24 l -16 -24 q -26 -12 -20 -19 q 158 570 42 223 l 174 618 l 173 618 l 191 675 q 242 825 200 702 q 294 985 283 949 q 307 1022 304 1021 l 419 1022 l 660 1025 l 725 1022 l 779 1025 q 819 1009 819 1025 q 1000 465 887 820 q 1128 65 1114 109 l 1137 31 q 1151 -7 1142 13 m 479 363 l 507 362 l 669 363 q 654 481 659 444 l 628 597 q 586 781 587 777 q 584 787 585 784 q 582 791 583 790 q 580 795 581 792 q 578 799 579 798 q 576 802 577 800 q 556 816 571 810 q 447 408 538 812 l 439 363 l 479 363 m 553 1514 q 595 1514 553 1514 q 696 1458 637 1514 q 756 1322 756 1403 q 698 1185 756 1241 q 564 1130 640 1130 q 385 1251 441 1130 q 366 1309 366 1291 q 368 1342 366 1328 q 383 1390 370 1356 q 419 1451 396 1423 q 553 1514 469 1514 m 651 1322 q 651 1344 651 1322 q 624 1390 651 1365 q 562 1414 597 1414 q 499 1392 526 1414 q 465 1331 472 1370 q 495 1258 465 1284 q 563 1231 526 1231 q 625 1255 599 1231 q 651 1322 651 1279 z "},"":{"ha":1616,"x_min":-28,"x_max":1584,"o":"m 1577 -9 l 1352 -7 q 1148 -11 1259 -7 q 1083 -16 1137 -16 l 1048 -16 q 991 -18 1017 -18 l 964 -17 l 863 -18 q 736 -13 804 -18 q 731 -5 734 -12 l 727 10 q 656 144 706 144 q 655 144 655 144 l 405 142 q 385 64 399 117 q 366 -13 372 12 q 300 -20 358 -20 l 285 -19 l 245 -19 l 68 -23 l 47 -23 l 29 -24 l -18 -24 q -28 -12 -23 -19 q 145 537 28 185 q 281 955 261 890 q 303 1022 302 1021 l 416 1022 l 657 1025 l 722 1022 l 776 1025 q 798 1023 789 1025 q 1268 1028 1112 1028 q 1278 1021 1274 1025 l 1313 900 q 1352 760 1343 792 q 1317 756 1348 756 l 1312 756 q 964 762 1144 756 q 991 623 978 675 l 1192 627 q 1299 629 1248 629 q 1361 608 1350 629 l 1366 587 q 1397 488 1375 554 l 1396 488 l 1423 395 q 1102 385 1226 385 l 1063 385 l 1101 256 l 1463 267 q 1510 256 1497 267 l 1565 67 q 1575 35 1566 61 q 1584 1 1584 9 q 1577 -9 1584 -8 m 1423 395 l 1428 396 l 1431 394 q 1426 391 1426 394 l 1426 389 l 1423 395 m 867 -20 l 871 -23 l 861 -33 l 858 -31 l 867 -20 m 477 363 l 505 362 q 666 404 663 362 q 659 449 666 423 q 651 481 652 474 l 625 597 q 585 777 610 661 l 582 783 q 580 789 582 787 q 577 795 578 792 q 575 799 576 798 q 573 802 574 800 q 553 816 568 810 q 499 719 525 813 q 452 530 473 625 q 424 408 431 434 l 450 363 l 477 363 z "},"":{"ha":1055,"x_min":33,"x_max":1043,"o":"m 33 541 q 87 773 50 695 q 304 987 160 924 q 583 1043 432 1043 q 951 905 835 1043 q 1031 701 1021 823 l 1038 637 q 892 626 1026 626 l 784 627 l 775 627 l 716 629 l 700 628 l 686 628 q 657 684 667 628 q 628 757 648 739 q 581 775 608 775 q 535 766 555 775 q 502 743 515 756 q 480 705 489 730 q 460 616 464 663 q 457 511 457 569 l 457 494 l 454 426 q 560 235 454 239 q 598 244 587 235 q 649 348 627 270 q 661 374 654 364 l 686 374 l 718 374 l 827 374 l 861 374 l 925 374 l 964 374 l 1004 373 l 1031 373 q 1043 359 1040 372 l 1041 336 q 1004 191 1035 256 q 822 14 946 72 q 551 -44 699 -44 q 163 109 292 -44 q 33 541 33 261 m 490 -1 l 496 -1 l 507 -1 l 601 -3 q 608 -11 608 -4 q 604 -24 608 -17 q 589 -48 600 -32 q 568 -82 578 -64 q 694 -116 650 -82 q 739 -205 739 -150 q 675 -321 739 -279 q 534 -363 612 -363 q 391 -350 456 -363 q 326 -318 326 -337 q 345 -270 326 -304 l 354 -250 q 358 -238 354 -248 q 370 -224 362 -229 q 389 -232 375 -227 q 488 -256 449 -256 q 562 -214 562 -256 q 509 -184 562 -184 q 488 -189 504 -186 l 473 -194 q 449 -183 465 -194 l 434 -174 l 435 -174 q 405 -134 405 -157 q 477 -5 440 -72 q 487 -1 479 -2 l 490 -1 m 473 -194 l 473 -208 l 469 -208 l 468 -195 l 473 -194 z "},"":{"ha":886,"x_min":73,"x_max":878,"o":"m 77 840 l 74 1018 q 79 1016 75 1018 q 855 1025 594 1025 q 859 1021 858 1024 l 859 830 q 858 785 859 802 q 818 774 854 774 l 813 774 q 471 779 649 774 q 470 758 471 773 q 467 735 468 742 l 464 709 q 459 620 460 684 l 669 625 q 748 626 724 626 l 759 626 q 813 624 800 626 q 826 610 826 621 l 825 604 l 825 588 l 829 414 l 828 413 l 828 414 q 498 404 622 404 l 467 404 l 467 239 l 835 251 q 873 242 865 251 q 873 192 873 224 l 878 7 q 863 -12 878 -9 l 637 -10 q 373 -15 571 -10 l 262 -18 q 87 -22 144 -22 l 85 -20 l 85 -20 q 73 -7 79 -14 l 73 16 l 77 741 l 77 840 m 400 1143 l 394 1140 q 370 1170 393 1141 l 370 1169 l 349 1195 q 232 1324 288 1267 q 176 1398 176 1381 q 182 1407 176 1401 q 480 1394 321 1394 l 500 1394 l 505 1395 q 575 1291 519 1384 q 644 1178 630 1198 q 657 1151 657 1159 q 616 1143 657 1143 l 400 1143 z "},"":{"ha":886,"x_min":73,"x_max":878,"o":"m 77 840 l 74 1018 q 79 1016 75 1018 q 855 1025 594 1025 q 859 1021 858 1024 l 859 830 q 858 785 859 802 q 818 774 854 774 l 813 774 q 471 779 649 774 q 470 758 471 773 q 467 735 468 742 l 464 709 q 459 620 460 684 l 669 625 q 748 626 724 626 l 759 626 q 813 624 800 626 q 826 610 826 621 l 825 604 l 825 588 l 829 414 l 828 413 l 828 414 q 498 404 622 404 l 467 404 l 467 239 l 835 251 q 873 242 865 251 q 873 192 873 224 l 878 7 q 863 -12 878 -9 l 637 -10 q 373 -15 571 -10 l 262 -18 q 87 -22 144 -22 l 85 -20 l 85 -20 q 73 -7 79 -14 l 73 16 l 77 741 l 77 840 m 269 1270 l 258 1270 l 225 1270 l 215 1289 l 329 1483 q 362 1531 358 1526 l 410 1531 l 693 1524 l 693 1522 q 604 1422 666 1491 q 513 1320 543 1353 q 463 1280 484 1286 q 393 1272 441 1273 l 269 1270 z "},"":{"ha":886,"x_min":73,"x_max":878,"o":"m 77 840 l 74 1018 q 79 1016 75 1018 q 855 1025 594 1025 q 859 1021 858 1024 l 859 830 q 858 785 859 802 q 818 774 854 774 l 813 774 q 471 779 649 774 q 470 758 471 773 q 467 735 468 742 l 464 709 q 459 620 460 684 l 669 625 q 748 626 724 626 l 759 626 q 813 624 800 626 q 826 610 826 621 l 825 604 l 825 588 l 829 414 l 828 413 l 828 414 q 498 404 622 404 l 467 404 l 467 239 l 835 251 q 873 242 865 251 q 873 192 873 224 l 878 7 q 863 -12 878 -9 l 637 -10 q 373 -15 571 -10 l 262 -18 q 87 -22 144 -22 l 85 -20 l 85 -20 q 73 -7 79 -14 l 73 16 l 77 741 l 77 840 m 732 1139 l 532 1135 q 494 1183 511 1147 q 488 1193 490 1191 l 468 1234 q 441 1200 457 1223 q 414 1159 426 1176 q 394 1142 401 1142 l 205 1142 l 172 1140 q 134 1148 134 1140 q 134 1152 134 1149 q 257 1324 180 1223 l 272 1348 q 321 1381 289 1375 q 503 1390 353 1387 l 623 1392 q 647 1369 635 1385 q 662 1347 659 1352 q 671 1334 665 1343 q 680 1322 677 1325 l 680 1322 l 722 1260 q 753 1216 730 1248 l 767 1197 q 777 1182 770 1192 l 789 1167 q 800 1146 800 1153 q 781 1139 800 1139 l 774 1139 l 732 1139 z "},"":{"ha":886,"x_min":73,"x_max":878,"o":"m 77 840 l 74 1018 q 79 1016 75 1018 q 855 1025 594 1025 q 859 1021 858 1024 l 859 830 q 858 785 859 802 q 818 774 854 774 l 813 774 q 471 779 649 774 q 470 758 471 773 q 467 735 468 742 l 464 709 q 459 620 460 684 l 669 625 q 748 626 724 626 l 759 626 q 813 624 800 626 q 826 610 826 621 l 825 604 l 825 588 l 829 414 l 828 413 l 828 414 q 498 404 622 404 l 467 404 l 467 239 l 835 251 q 873 242 865 251 q 873 192 873 224 l 878 7 q 863 -12 878 -9 l 637 -10 q 373 -15 571 -10 l 262 -18 q 87 -22 144 -22 l 85 -20 l 85 -20 q 73 -7 79 -14 l 73 16 l 77 741 l 77 840 m 624 1383 l 739 1385 q 783 1380 781 1385 q 787 1148 786 1277 q 785 1141 785 1144 l 781 1142 l 555 1133 l 537 1152 q 541 1294 537 1210 q 553 1385 545 1377 q 624 1383 591 1383 m 537 1152 l 537 1152 l 537 1152 m 785 1141 l 794 1140 q 785 1128 794 1128 q 778 1131 781 1128 l 785 1141 m 398 1337 l 399 1270 l 399 1249 q 400 1143 399 1175 q 345 1136 393 1136 l 331 1137 l 296 1137 l 170 1132 q 153 1156 155 1153 q 168 1385 153 1369 q 272 1384 193 1385 q 394 1383 351 1384 q 399 1366 399 1381 l 398 1358 l 398 1337 z "},"":{"ha":562,"x_min":34,"x_max":515,"o":"m 66 73 q 74 264 66 210 q 82 859 74 559 q 80 945 80 901 l 80 967 q 77 1004 77 988 q 81 1025 77 1021 q 335 1017 226 1017 q 485 1021 444 1017 q 487 1009 486 1019 l 482 1009 l 482 764 l 487 212 q 489 201 487 205 l 489 200 q 491 191 491 196 l 496 -6 q 484 -18 493 -14 l 461 -18 l 81 -24 q 64 -14 75 -20 l 64 -2 l 66 73 m 359 1392 l 363 1393 q 433 1289 378 1382 q 502 1176 488 1196 q 515 1149 515 1157 q 474 1141 515 1141 l 258 1141 l 254 1139 q 252 1138 254 1139 q 228 1168 251 1139 l 228 1167 l 207 1193 q 90 1322 146 1265 q 34 1396 34 1379 q 40 1404 34 1400 q 338 1392 179 1392 l 359 1392 z "},"":{"ha":564,"x_min":66,"x_max":597,"o":"m 69 73 q 77 264 69 210 q 85 859 77 559 q 83 945 83 901 l 83 967 q 80 1004 80 988 q 83 1025 80 1021 q 338 1017 229 1017 q 488 1021 447 1017 q 490 1009 489 1019 l 485 1009 l 485 764 l 490 212 q 492 201 490 205 l 492 200 q 494 191 494 196 l 499 -6 q 487 -18 496 -14 l 464 -18 l 84 -24 q 66 -14 77 -20 l 67 -2 l 69 73 m 174 1133 l 163 1133 l 130 1133 l 119 1152 l 233 1346 q 267 1394 262 1389 l 314 1394 l 597 1387 l 597 1385 q 509 1285 570 1354 q 418 1183 447 1216 q 367 1143 389 1149 q 298 1135 346 1136 l 174 1133 z "},"":{"ha":572,"x_min":-3,"x_max":663,"o":"m 68 73 q 75 264 68 210 q 83 859 75 559 q 81 945 81 901 l 81 967 q 79 1004 79 988 q 82 1025 79 1021 q 336 1017 227 1017 q 486 1021 446 1017 q 488 1009 488 1019 l 484 1009 l 484 764 l 488 212 q 490 201 488 205 l 490 200 q 492 191 492 196 l 498 -6 q 486 -18 494 -14 l 463 -18 l 83 -24 q 65 -14 76 -20 l 66 -2 l 68 73 m 595 1141 l 395 1137 q 357 1185 374 1149 q 352 1195 353 1193 l 332 1236 q 305 1202 321 1225 q 277 1161 290 1178 q 258 1144 265 1144 l 69 1144 l 36 1142 q -3 1150 -3 1142 q -2 1154 -3 1152 q 121 1326 44 1225 l 136 1350 q 184 1383 153 1377 q 367 1392 216 1389 l 487 1394 q 511 1371 499 1388 q 526 1349 522 1354 q 535 1336 529 1345 q 543 1324 541 1327 l 543 1324 l 585 1262 q 617 1218 593 1250 l 631 1199 q 642 1184 634 1194 l 652 1169 q 663 1148 663 1155 q 645 1141 663 1141 l 637 1141 l 595 1141 z "},"":{"ha":562,"x_min":3,"x_max":644,"o":"m 64 73 q 71 264 64 210 q 79 859 71 559 q 77 945 77 901 l 77 967 q 75 1004 75 988 q 78 1025 75 1021 q 332 1017 223 1017 q 482 1021 441 1017 q 484 1009 484 1019 l 479 1009 l 479 764 l 484 212 q 486 201 484 205 l 486 200 q 488 191 488 196 l 494 -6 q 481 -18 490 -14 l 458 -18 l 79 -24 q 61 -14 72 -20 l 62 -2 l 64 73 m 473 1388 l 589 1390 q 632 1385 630 1390 q 637 1153 635 1282 q 635 1146 635 1149 l 630 1147 l 404 1137 l 387 1157 q 391 1298 387 1215 q 403 1390 395 1382 q 473 1388 440 1388 m 387 1156 l 387 1157 l 387 1156 m 634 1145 l 644 1145 q 634 1133 644 1133 q 627 1136 630 1133 l 634 1145 m 248 1341 l 249 1275 l 249 1254 q 250 1148 249 1180 q 195 1141 243 1141 l 180 1141 l 146 1141 l 19 1137 q 3 1160 5 1158 q 18 1390 3 1373 q 121 1389 42 1390 q 243 1388 200 1389 q 248 1371 248 1386 l 248 1363 l 248 1341 z "},"":{"ha":1116,"x_min":-35,"x_max":1100,"o":"m 348 1025 l 473 1027 q 939 918 808 1027 l 945 913 l 945 913 q 1086 651 1049 819 q 1100 500 1100 586 q 1073 330 1100 415 q 892 77 1023 169 q 596 -16 762 -14 l 593 -18 l 576 -18 l 397 -16 q 90 -22 275 -16 q 76 31 76 0 l 77 60 l 77 165 l 78 316 l 78 430 q -18 429 61 429 q -35 439 -22 431 l -34 449 l -34 460 l -33 515 l -33 523 l -34 551 q -24 581 -34 581 l 77 581 q 77 692 77 613 l 77 803 l 77 819 l 77 1013 q 152 1022 77 1018 q 269 1025 226 1025 l 348 1025 m 442 317 l 441 271 q 471 195 441 199 q 579 205 542 197 q 714 530 714 252 q 700 685 714 644 q 630 795 673 764 q 562 821 593 819 q 504 823 531 823 q 465 825 477 824 q 448 798 452 807 l 435 773 l 435 734 q 436 606 435 682 l 436 582 l 470 582 l 498 581 l 543 581 q 554 513 554 572 l 553 494 l 553 458 q 534 437 553 437 l 522 438 l 440 438 l 442 317 z "},"":{"ha":1171,"x_min":61,"x_max":1105,"o":"m 1103 475 l 1103 429 l 1103 178 l 1104 59 l 1104 25 l 1105 -7 q 1072 -12 1101 -12 l 1054 -12 l 841 -15 q 639 -14 705 -15 q 565 183 629 -3 l 435 527 l 411 524 l 410 454 l 410 271 l 413 87 l 413 11 q 399 -21 413 -20 q 271 -19 332 -19 l 250 -19 l 148 -22 l 134 -22 l 85 -23 l 83 -22 q 61 9 61 -1 l 61 21 l 62 35 l 65 299 q 73 958 65 734 l 75 1014 q 542 1025 75 1020 q 554 995 546 1022 l 554 997 l 558 983 q 680 653 608 840 q 753 463 752 467 l 777 465 l 779 1017 q 878 1023 779 1023 l 1048 1019 l 1099 1019 q 1103 475 1103 795 m 708 1501 l 724 1514 l 895 1510 q 904 1499 897 1509 q 711 1266 889 1266 q 615 1280 674 1266 l 576 1293 q 487 1315 504 1315 q 464 1312 471 1315 q 455 1301 456 1309 q 452 1283 454 1293 q 294 1274 451 1274 l 275 1274 q 271 1286 271 1278 q 323 1460 271 1403 q 472 1518 376 1518 q 598 1493 508 1518 l 598 1493 q 657 1476 618 1486 l 677 1472 q 687 1465 680 1472 l 704 1484 q 708 1501 707 1495 m 682 1497 l 688 1504 l 692 1493 l 682 1497 z "},"":{"ha":1116,"x_min":24,"x_max":1090,"o":"m 414 515 q 413 512 414 515 l 413 510 q 410 446 410 481 q 416 372 410 411 q 435 293 422 332 q 476 229 448 254 q 543 203 506 203 q 605 214 580 203 q 648 241 631 224 q 678 285 665 257 q 711 514 711 359 q 674 735 711 672 q 565 799 638 799 q 501 781 528 799 q 459 745 473 764 q 431 664 446 726 q 416 550 416 602 l 414 515 m 24 510 l 25 525 q 47 675 33 610 q 91 798 60 741 q 293 988 163 923 q 573 1053 423 1053 q 846 992 724 1053 q 961 901 920 956 q 1065 719 1040 802 q 1090 526 1090 635 q 990 156 1090 283 l 959 115 q 781 2 896 41 q 552 -39 665 -38 q 234 42 358 -39 q 24 510 24 178 m 493 1151 l 487 1148 q 463 1178 486 1149 l 463 1177 l 441 1203 q 325 1332 381 1276 q 269 1406 269 1389 q 275 1415 269 1409 q 573 1402 414 1402 l 593 1402 l 597 1403 q 668 1299 612 1392 q 736 1186 723 1206 q 750 1159 750 1167 q 709 1151 750 1151 l 493 1151 z "},"":{"ha":1116,"x_min":24,"x_max":1090,"o":"m 414 515 q 413 512 414 515 l 413 510 q 410 446 410 481 q 416 372 410 411 q 435 293 422 332 q 476 229 448 254 q 543 203 506 203 q 605 214 580 203 q 648 241 631 224 q 678 285 665 257 q 711 514 711 359 q 674 735 711 672 q 565 799 638 799 q 501 781 528 799 q 459 745 473 764 q 431 664 446 726 q 416 550 416 602 l 414 515 m 24 510 l 25 525 q 47 675 33 610 q 91 798 60 741 q 293 988 163 923 q 573 1053 423 1053 q 846 992 724 1053 q 961 901 920 956 q 1065 719 1040 802 q 1090 526 1090 635 q 990 156 1090 283 l 959 115 q 781 2 896 41 q 552 -39 665 -38 q 234 42 358 -39 q 24 510 24 178 m 368 1140 l 357 1139 l 324 1139 l 314 1159 l 428 1353 q 461 1400 457 1396 l 509 1400 l 792 1394 l 792 1392 q 703 1292 765 1360 q 612 1190 642 1223 q 562 1149 583 1156 q 492 1142 541 1143 l 368 1140 z "},"":{"ha":1116,"x_min":24,"x_max":1090,"o":"m 414 515 q 413 512 414 515 l 413 510 q 410 446 410 481 q 416 372 410 411 q 435 293 422 332 q 476 229 448 254 q 543 203 506 203 q 605 214 580 203 q 648 241 631 224 q 678 285 665 257 q 711 514 711 359 q 674 735 711 672 q 565 799 638 799 q 501 781 528 799 q 459 745 473 764 q 431 664 446 726 q 416 550 416 602 l 414 515 m 24 510 l 25 525 q 47 675 33 610 q 91 798 60 741 q 293 988 163 923 q 573 1053 423 1053 q 846 992 724 1053 q 961 901 920 956 q 1065 719 1040 802 q 1090 526 1090 635 q 990 156 1090 283 l 959 115 q 781 2 896 41 q 552 -39 665 -38 q 234 42 358 -39 q 24 510 24 178 m 834 1145 l 634 1141 q 596 1189 613 1153 q 591 1199 592 1197 l 570 1240 q 544 1206 559 1230 q 516 1165 528 1182 q 496 1148 504 1148 l 308 1148 l 275 1146 q 236 1154 236 1146 q 237 1158 236 1156 q 359 1330 283 1230 l 374 1354 q 423 1387 391 1381 q 606 1396 455 1393 l 726 1398 q 749 1375 738 1392 q 764 1353 761 1358 q 773 1340 768 1349 q 782 1328 779 1331 l 782 1329 l 824 1266 q 856 1222 832 1254 l 869 1203 q 880 1188 873 1198 l 891 1173 q 902 1152 902 1159 q 884 1145 902 1145 l 876 1145 l 834 1145 z "},"":{"ha":1116,"x_min":24,"x_max":1090,"o":"m 414 515 q 413 512 414 515 l 413 510 q 410 446 410 481 q 416 372 410 411 q 435 293 422 332 q 476 229 448 254 q 543 203 506 203 q 605 214 580 203 q 648 241 631 224 q 678 285 665 257 q 711 514 711 359 q 674 735 711 672 q 565 799 638 799 q 501 781 528 799 q 459 745 473 764 q 431 664 446 726 q 416 550 416 602 l 414 515 m 24 510 l 25 525 q 47 675 33 610 q 91 798 60 741 q 293 988 163 923 q 573 1053 423 1053 q 846 992 724 1053 q 961 901 920 956 q 1065 719 1040 802 q 1090 526 1090 635 q 990 156 1090 283 l 959 115 q 781 2 896 41 q 552 -39 665 -38 q 234 42 358 -39 q 24 510 24 178 m 675 1373 l 690 1386 l 862 1381 q 871 1371 864 1381 q 678 1138 856 1138 q 582 1152 642 1138 l 543 1164 q 454 1187 471 1187 q 430 1184 437 1187 q 422 1173 423 1181 q 419 1155 420 1164 q 260 1146 418 1146 l 242 1146 q 238 1158 238 1150 q 290 1332 238 1275 q 439 1390 342 1390 q 565 1364 475 1390 l 565 1365 q 624 1348 585 1358 l 644 1343 q 654 1337 647 1343 l 671 1356 q 675 1373 674 1367 m 648 1369 l 654 1376 l 659 1364 l 648 1369 z "},"":{"ha":1116,"x_min":24,"x_max":1090,"o":"m 414 515 q 413 512 414 515 l 413 510 q 410 446 410 481 q 416 372 410 411 q 435 293 422 332 q 476 229 448 254 q 543 203 506 203 q 605 214 580 203 q 648 241 631 224 q 678 285 665 257 q 711 514 711 359 q 674 735 711 672 q 565 799 638 799 q 501 781 528 799 q 459 745 473 764 q 431 664 446 726 q 416 550 416 602 l 414 515 m 24 510 l 25 525 q 47 675 33 610 q 91 798 60 741 q 293 988 163 923 q 573 1053 423 1053 q 846 992 724 1053 q 961 901 920 956 q 1065 719 1040 802 q 1090 526 1090 635 q 990 156 1090 283 l 959 115 q 781 2 896 41 q 552 -39 665 -38 q 234 42 358 -39 q 24 510 24 178 m 735 1541 l 850 1544 q 894 1538 892 1544 q 899 1306 897 1435 q 897 1299 897 1302 l 892 1300 l 666 1291 l 648 1310 q 652 1452 648 1368 q 665 1544 656 1535 q 735 1541 702 1541 m 648 1310 l 648 1310 l 648 1310 m 896 1299 l 905 1298 q 896 1286 905 1286 q 889 1289 892 1286 l 896 1299 m 509 1495 l 511 1428 l 511 1407 q 511 1301 511 1333 q 456 1294 505 1294 l 442 1295 l 408 1295 l 281 1290 l 264 1314 q 279 1544 264 1527 q 383 1542 304 1543 q 505 1541 462 1542 q 510 1524 510 1539 l 509 1516 l 509 1495 z "},"":{"ha":870,"x_min":113,"x_max":772,"o":"m 660 59 l 637 36 l 450 217 q 387 152 427 191 q 334 102 347 114 l 267 35 l 260 33 q 228 56 250 35 q 200 81 206 77 l 180 102 q 159 121 170 113 q 142 137 149 130 q 123 156 134 144 q 113 173 113 168 q 137 204 113 179 q 201 268 161 229 q 252 317 241 307 l 295 361 q 142 519 239 422 l 129 530 q 114 553 114 543 q 153 597 114 564 l 194 638 q 214 659 201 646 q 260 694 247 694 l 325 627 q 446 505 376 574 l 631 691 q 633 692 633 692 q 722 607 644 692 l 751 576 q 772 553 770 558 q 762 545 768 549 l 710 494 q 580 366 632 420 q 734 214 648 301 l 748 201 q 770 173 770 181 q 697 96 770 165 l 671 71 q 665 65 669 68 q 659 59 661 62 l 660 59 m 637 36 l 635 35 q 637 36 637 35 z "},"":{"ha":1116,"x_min":24,"x_max":1090,"o":"m 24 510 l 25 525 q 47 675 33 610 q 91 798 60 741 q 293 988 163 923 q 575 1053 423 1053 q 860 984 728 1053 l 941 1111 q 939 1107 939 1108 q 957 1101 941 1107 q 972 1090 972 1095 q 895 963 972 1077 q 1043 772 996 888 q 1090 526 1090 656 q 990 156 1090 283 l 959 115 q 781 1 896 41 q 535 -39 663 -39 q 291 9 406 -39 l 263 -37 q 194 -125 212 -121 l 181 -121 q 168 -116 178 -121 l 189 -61 l 247 31 l 238 39 q 24 510 24 178 m 414 515 q 413 512 414 515 l 413 510 q 410 438 410 481 q 425 309 410 395 l 685 713 q 565 799 642 799 q 501 781 528 799 q 459 745 473 764 q 431 664 446 726 q 416 550 416 602 l 414 515 m 703 657 l 452 258 q 544 203 488 206 q 676 281 641 203 q 711 534 711 359 q 703 657 711 574 z "},"":{"ha":1095,"x_min":71,"x_max":1053,"o":"m 1048 526 l 1046 335 q 1018 180 1046 248 q 944 72 990 113 q 573 -42 819 -42 q 191 77 328 -42 q 110 185 143 119 q 71 334 77 251 q 74 859 74 618 q 71 930 71 859 q 77 1018 71 1001 l 91 1018 q 363 1023 191 1023 q 407 1020 375 1021 q 452 1018 439 1019 l 473 1015 q 479 646 477 881 l 475 373 q 553 237 475 237 q 609 267 587 237 q 633 332 632 296 l 636 339 l 638 568 l 639 588 q 635 892 639 745 l 633 941 q 632 995 632 971 q 640 1027 632 1019 q 1034 1025 901 1027 q 1046 1017 1039 1021 l 1046 1017 l 1053 1012 q 1048 682 1048 884 l 1048 566 l 1048 526 m 510 1141 l 504 1138 q 479 1168 503 1139 l 479 1167 l 458 1193 q 342 1322 398 1265 q 286 1396 286 1379 q 292 1404 286 1399 q 590 1392 431 1392 l 610 1392 l 614 1393 q 685 1289 629 1382 q 753 1176 740 1196 q 767 1149 767 1157 q 726 1141 767 1141 l 510 1141 z "},"":{"ha":1095,"x_min":71,"x_max":1053,"o":"m 1048 526 l 1046 335 q 1018 180 1046 248 q 944 72 990 113 q 573 -42 819 -42 q 191 77 328 -42 q 110 185 143 119 q 71 334 77 251 q 74 859 74 618 q 71 930 71 859 q 77 1018 71 1001 l 91 1018 q 363 1023 191 1023 q 407 1020 375 1021 q 452 1018 439 1019 l 473 1015 q 479 646 477 881 l 475 373 q 553 237 475 237 q 609 267 587 237 q 633 332 632 296 l 636 339 l 638 568 l 639 588 q 635 892 639 745 l 633 941 q 632 995 632 971 q 640 1027 632 1019 q 1034 1025 901 1027 q 1046 1017 1039 1021 l 1046 1017 l 1053 1012 q 1048 682 1048 884 l 1048 566 l 1048 526 m 378 1135 l 368 1135 l 334 1135 l 324 1154 l 438 1348 q 471 1396 467 1391 l 519 1396 l 802 1389 l 802 1387 q 713 1287 775 1356 q 623 1185 652 1218 q 572 1145 593 1152 q 503 1137 551 1138 l 378 1135 z "},"":{"ha":1095,"x_min":71,"x_max":1053,"o":"m 1048 526 l 1046 335 q 1018 180 1046 248 q 944 72 990 113 q 573 -42 819 -42 q 191 77 328 -42 q 110 185 143 119 q 71 334 77 251 q 74 859 74 618 q 71 930 71 859 q 77 1018 71 1001 l 91 1018 q 363 1023 191 1023 q 407 1020 375 1021 q 452 1018 439 1019 l 473 1015 q 479 646 477 881 l 475 373 q 553 237 475 237 q 609 267 587 237 q 633 332 632 296 l 636 339 l 638 568 l 639 588 q 635 892 639 745 l 633 941 q 632 995 632 971 q 640 1027 632 1019 q 1034 1025 901 1027 q 1046 1017 1039 1021 l 1046 1017 l 1053 1012 q 1048 682 1048 884 l 1048 566 l 1048 526 m 827 1141 l 627 1137 q 589 1185 606 1149 q 583 1195 585 1193 l 563 1236 q 536 1202 552 1225 q 509 1161 521 1178 q 489 1144 496 1144 l 300 1144 l 267 1142 q 229 1150 229 1142 q 229 1154 229 1152 q 352 1326 275 1225 l 367 1350 q 416 1383 384 1377 q 598 1392 448 1389 l 718 1394 q 742 1371 730 1388 q 757 1349 753 1354 q 766 1336 760 1345 q 774 1324 772 1327 l 774 1324 l 817 1262 q 848 1218 825 1250 l 862 1199 q 872 1184 865 1194 l 884 1169 q 895 1148 895 1155 q 876 1141 895 1141 l 869 1141 l 827 1141 z "},"":{"ha":1095,"x_min":71,"x_max":1053,"o":"m 1048 526 l 1046 335 q 1018 180 1046 248 q 944 72 990 113 q 573 -42 819 -42 q 191 77 328 -42 q 110 185 143 119 q 71 334 77 251 q 74 859 74 618 q 71 930 71 859 q 77 1018 71 1001 l 91 1018 q 363 1023 191 1023 q 407 1020 375 1021 q 452 1018 439 1019 l 473 1015 q 479 646 477 881 l 475 373 q 553 237 475 237 q 609 267 587 237 q 633 332 632 296 l 636 339 l 638 568 l 639 588 q 635 892 639 745 l 633 941 q 632 995 632 971 q 640 1027 632 1019 q 1034 1025 901 1027 q 1046 1017 1039 1021 l 1046 1017 l 1053 1012 q 1048 682 1048 884 l 1048 566 l 1048 526 m 728 1541 l 843 1544 q 886 1538 884 1544 q 891 1306 890 1435 q 889 1299 889 1302 l 884 1300 l 659 1291 l 641 1310 q 645 1452 641 1368 q 657 1544 649 1535 q 728 1541 694 1541 m 641 1310 l 641 1310 l 641 1310 m 888 1299 l 898 1298 q 888 1286 898 1286 q 882 1289 884 1286 l 888 1299 m 502 1495 l 503 1428 l 503 1407 q 504 1301 503 1333 q 449 1294 497 1294 l 435 1295 l 400 1295 l 273 1290 l 257 1314 q 272 1544 257 1527 q 375 1542 296 1543 q 498 1541 454 1542 q 503 1524 503 1539 l 502 1516 l 502 1495 z "},"":{"ha":1034,"x_min":-22,"x_max":1070,"o":"m 1038 1022 l 1060 1023 q 1070 1006 1067 1019 l 1050 966 l 1050 966 l 1006 882 q 877 635 906 697 l 854 591 q 727 338 817 519 q 726 269 726 315 l 726 -12 q 712 -22 722 -22 l 323 -25 q 309 18 309 -6 l 310 103 l 310 123 l 311 143 l 311 193 q 239 496 311 334 q 193 592 223 530 l 92 794 q 71 836 88 802 q 32 909 53 869 l 32 908 q -22 1018 -22 991 q -1 1021 -22 1021 l 174 1021 q 391 1019 318 1021 q 505 693 413 1015 l 535 585 q 681 1018 604 770 q 781 1023 682 1023 l 868 1023 q 920 1022 899 1023 l 1038 1022 m 370 1116 l 359 1116 l 326 1116 l 315 1135 l 429 1329 q 463 1377 458 1372 l 510 1377 l 793 1370 l 793 1368 q 705 1268 766 1337 q 614 1166 643 1199 q 563 1126 585 1133 q 494 1118 542 1119 l 370 1116 z "},"":{"ha":1036,"x_min":79,"x_max":1038,"o":"m 490 1026 l 489 1006 l 491 934 q 671 927 608 932 l 676 927 q 705 928 699 928 q 937 842 841 928 q 1011 736 984 801 q 1038 602 1038 671 q 1024 484 1038 533 q 987 400 1010 435 q 641 241 897 264 l 494 235 q 488 72 492 197 l 488 51 l 488 -5 q 479 -17 486 -15 l 91 -23 q 79 81 79 9 l 79 357 l 81 636 l 80 921 q 81 923 81 922 l 81 996 q 92 1100 81 1067 l 480 1094 q 490 1081 488 1092 l 490 1026 m 500 434 q 683 593 683 441 q 604 711 683 686 q 501 725 559 725 l 465 725 q 472 474 472 682 l 500 434 z "},"":{"ha":1057,"x_min":49,"x_max":1089,"o":"m 954 463 q 1089 239 1089 380 q 1009 43 1089 110 q 736 -45 905 -45 q 492 22 568 -45 l 490 21 q 428 144 448 62 l 402 143 l 402 95 q 405 -12 402 -9 q 304 -15 359 -15 l 75 -12 l 53 -12 l 50 489 q 52 713 50 634 q 118 938 57 876 q 285 1029 186 996 q 486 1061 385 1061 q 686 1042 587 1061 q 960 893 900 1018 q 979 793 979 854 q 935 680 979 732 q 879 627 926 670 q 831 563 831 585 q 858 520 831 541 q 917 484 884 500 q 954 463 949 467 l 954 463 m 542 688 l 541 688 l 563 703 q 598 730 585 720 q 624 760 611 741 q 637 799 637 779 q 550 872 637 872 q 431 810 463 872 q 404 684 406 758 l 401 678 q 402 460 402 607 l 402 212 l 433 243 l 679 245 q 692 218 694 243 q 692 209 692 213 q 724 170 692 170 q 735 172 728 170 l 749 173 q 760 215 760 201 q 733 269 760 246 q 675 310 707 291 q 625 345 659 323 q 516 433 562 388 q 470 551 470 478 q 542 688 470 623 m 488 20 l 493 10 l 484 0 l 472 8 l 484 22 l 490 21 l 490 20 l 488 20 m 52 -15 q 52 -13 52 -13 l 49 -13 q 53 -12 50 -12 l 53 -14 l 52 -15 z "},"":{"ha":1068,"x_min":24,"x_max":1027,"o":"m 382 450 l 389 450 l 406 450 q 441 453 429 450 l 478 458 q 591 508 572 465 q 600 563 600 530 q 596 589 596 570 q 577 629 596 608 q 531 650 557 650 l 528 650 q 463 539 463 650 q 451 535 459 534 q 414 536 444 536 l 64 536 q 88 637 67 583 q 243 788 128 742 q 471 838 358 833 l 512 840 l 534 842 q 542 840 538 842 l 551 840 l 581 841 q 624 836 591 841 l 644 833 q 659 833 648 833 q 701 828 669 833 q 783 805 734 824 q 983 555 948 740 q 998 382 998 477 q 1003 354 1003 367 l 1000 307 l 1000 229 q 1000 217 1000 227 l 999 171 l 999 165 q 1001 155 1001 161 l 1000 149 l 1000 135 q 1020 13 1000 71 l 1027 -2 l 720 -2 l 696 -1 q 654 -2 669 -1 q 613 109 633 39 q 583 67 604 91 q 551 44 562 44 q 399 -12 451 -5 q 316 -24 321 -24 q 310 -24 310 -24 q 65 88 148 -24 q 24 222 24 146 q 177 424 24 387 q 329 444 216 433 l 351 446 l 382 450 m 605 293 l 606 315 q 600 380 606 349 q 557 361 585 372 q 511 344 528 351 q 480 319 494 337 q 467 270 467 301 q 487 213 467 239 q 530 187 507 187 q 603 224 581 187 l 604 231 l 605 273 l 605 293 m 520 970 l 514 967 q 490 997 513 968 l 490 996 l 469 1022 q 352 1151 408 1095 q 296 1225 296 1208 q 302 1234 296 1228 q 600 1221 441 1221 l 621 1221 l 625 1222 q 695 1118 640 1211 q 764 1005 750 1025 q 777 978 777 986 q 736 970 777 970 l 520 970 z "},"":{"ha":1068,"x_min":24,"x_max":1027,"o":"m 1001 155 l 1000 149 l 1000 135 q 1020 13 1000 71 l 1027 -2 l 720 -2 l 696 -1 q 654 -2 669 -1 q 613 109 633 39 q 583 67 604 91 q 551 44 562 44 q 399 -12 452 -5 q 316 -24 321 -24 q 310 -24 310 -24 q 65 88 148 -24 q 24 222 24 146 q 177 424 24 387 q 329 444 216 433 l 351 446 l 382 450 l 389 450 l 406 450 q 441 453 429 450 l 478 458 q 591 508 572 465 q 600 563 600 530 q 596 589 596 570 q 577 629 596 608 q 531 650 557 650 l 528 650 q 463 539 463 650 q 451 535 459 534 q 414 536 444 536 l 64 536 q 88 637 67 585 q 243 788 128 742 q 471 838 358 833 l 512 840 l 534 842 q 542 840 538 842 l 551 840 l 581 841 q 624 836 591 841 l 644 833 q 659 833 648 833 q 701 828 669 833 q 782 805 734 824 q 864 761 831 786 q 922 701 898 736 q 983 556 968 634 q 998 382 998 477 q 1003 354 1003 367 l 1000 307 l 1000 229 q 1000 217 1000 227 l 999 171 l 999 165 q 1001 155 1001 161 m 605 293 l 606 315 q 600 380 606 349 q 557 361 585 372 q 511 344 528 351 q 480 319 494 337 q 467 270 467 301 q 487 213 467 239 q 530 187 507 187 q 603 224 581 187 l 604 231 l 605 273 l 605 293 m 356 956 l 345 956 l 312 956 l 302 975 l 416 1169 q 449 1217 445 1212 l 496 1217 l 780 1210 l 780 1208 q 691 1108 753 1177 q 600 1006 629 1039 q 550 966 571 972 q 480 958 528 959 l 356 956 z "},"":{"ha":1068,"x_min":24,"x_max":1027,"o":"m 382 450 l 389 450 l 406 450 q 441 453 429 450 l 478 458 q 591 508 572 465 q 600 563 600 530 q 596 589 596 570 q 577 629 596 608 q 531 650 557 650 l 528 650 q 463 539 463 650 q 451 535 459 534 q 414 536 444 536 l 64 536 q 88 637 67 583 q 243 788 128 742 q 471 838 358 833 l 512 840 l 534 842 q 542 840 538 842 l 551 840 l 581 841 q 624 836 591 841 l 644 833 q 659 833 648 833 q 701 828 669 833 q 783 805 734 824 q 983 555 948 740 q 998 382 998 477 q 1003 354 1003 367 l 1000 307 l 1000 229 q 1000 217 1000 227 l 999 171 l 999 165 q 1001 155 1001 161 l 1000 149 l 1000 135 q 1020 13 1000 71 l 1027 -2 l 720 -2 l 696 -1 q 654 -2 669 -1 q 613 109 633 39 q 583 67 604 91 q 551 44 562 44 q 399 -12 451 -5 q 316 -24 321 -24 q 310 -24 310 -24 q 65 88 148 -24 q 24 222 24 146 q 177 424 24 387 q 329 444 216 433 l 351 446 l 382 450 m 605 293 l 606 315 q 600 380 606 349 q 557 361 585 372 q 511 344 528 351 q 480 319 494 337 q 467 270 467 301 q 487 213 467 239 q 530 187 507 187 q 603 224 581 187 l 604 231 l 605 273 l 605 293 m 804 954 l 604 949 q 566 997 583 961 q 560 1007 562 1005 l 540 1048 q 513 1014 529 1038 q 486 973 498 990 q 466 956 473 956 l 277 956 l 244 954 q 205 962 205 954 q 206 966 205 964 q 329 1138 252 1038 l 344 1162 q 393 1195 361 1190 q 575 1204 425 1201 l 695 1206 q 719 1183 707 1200 q 734 1161 730 1166 q 743 1148 737 1157 q 751 1136 749 1139 l 751 1137 l 793 1074 q 825 1030 802 1062 l 839 1011 q 849 996 842 1006 l 861 981 q 871 960 871 967 q 853 953 871 953 l 846 954 l 804 954 z "},"":{"ha":1068,"x_min":24,"x_max":1027,"o":"m 1001 155 l 1000 149 l 1000 135 q 1020 13 1000 71 l 1027 -2 l 720 -2 l 696 -1 q 654 -2 669 -1 q 613 109 633 39 q 583 67 604 91 q 551 44 562 44 q 399 -12 452 -5 q 316 -24 321 -24 q 310 -24 310 -24 q 65 88 148 -24 q 24 222 24 146 q 177 424 24 387 q 329 444 216 433 l 351 446 l 382 450 l 389 450 l 406 450 q 441 453 429 450 l 478 458 q 591 508 572 465 q 600 563 600 530 q 596 589 596 570 q 577 629 596 608 q 531 650 557 650 l 528 650 q 463 539 463 650 q 451 535 459 534 q 414 536 444 536 l 64 536 q 88 637 67 585 q 243 788 128 742 q 471 838 358 833 l 512 840 l 534 842 q 542 840 538 842 l 551 840 l 581 841 q 624 836 591 841 l 644 833 q 659 833 648 833 q 701 828 669 833 q 782 805 734 824 q 864 761 831 786 q 922 701 898 736 q 983 556 968 634 q 998 382 998 477 q 1003 354 1003 367 l 1000 307 l 1000 229 q 1000 217 1000 227 l 999 171 l 999 165 q 1001 155 1001 161 m 605 293 l 606 315 q 600 380 606 349 q 557 361 585 372 q 511 344 528 351 q 480 319 494 337 q 467 270 467 301 q 487 213 467 239 q 530 187 507 187 q 603 224 581 187 l 604 231 l 605 273 l 605 293 m 659 1187 l 674 1200 l 846 1196 q 854 1185 848 1195 q 662 952 840 952 q 566 966 625 952 l 526 979 q 438 1001 454 1001 q 414 998 421 1001 q 406 987 407 995 q 403 969 404 979 q 244 960 401 960 l 226 960 q 222 972 222 964 q 274 1146 222 1089 q 422 1204 326 1204 q 549 1179 458 1204 l 549 1179 q 608 1162 569 1172 l 628 1158 q 637 1151 631 1158 l 654 1170 q 659 1187 658 1181 m 632 1183 l 638 1190 l 643 1179 l 632 1183 z "},"":{"ha":1068,"x_min":24,"x_max":1027,"o":"m 382 450 l 389 450 l 406 450 q 441 453 429 450 l 478 458 q 591 508 572 465 q 600 563 600 530 q 596 589 596 570 q 577 629 596 608 q 531 650 557 650 l 528 650 q 463 539 463 650 q 451 535 459 534 q 414 536 444 536 l 64 536 q 88 637 67 583 q 243 788 128 742 q 471 838 358 833 l 512 840 l 534 842 q 542 840 538 842 l 551 840 l 581 841 q 624 836 591 841 l 644 833 q 659 833 648 833 q 701 828 669 833 q 783 805 734 824 q 983 555 948 740 q 998 382 998 477 q 1003 354 1003 367 l 1000 307 l 1000 229 q 1000 217 1000 227 l 999 171 l 999 165 q 1001 155 1001 161 l 1000 149 l 1000 135 q 1020 13 1000 71 l 1027 -2 l 720 -2 l 696 -1 q 654 -2 669 -1 q 613 109 633 39 q 583 67 604 91 q 551 44 562 44 q 399 -12 451 -5 q 316 -24 321 -24 q 310 -24 310 -24 q 65 88 148 -24 q 24 222 24 146 q 177 424 24 387 q 329 444 216 433 l 351 446 l 382 450 m 605 293 l 606 315 q 600 380 606 349 q 557 361 585 372 q 511 344 528 351 q 480 319 494 337 q 467 270 467 301 q 487 213 467 239 q 530 187 507 187 q 603 224 581 187 l 604 231 l 605 273 l 605 293 m 692 1227 l 808 1230 q 851 1224 849 1230 q 856 992 854 1121 q 854 985 854 988 l 849 986 l 623 977 l 606 996 q 610 1138 606 1054 q 622 1230 614 1221 q 692 1227 659 1227 m 606 996 l 606 996 l 606 996 m 853 985 l 863 984 q 853 972 863 972 q 846 975 849 972 l 853 985 m 467 1181 l 468 1114 l 468 1093 q 469 987 468 1019 q 414 980 462 980 l 399 981 l 365 981 l 238 976 l 222 1000 q 237 1230 222 1213 q 340 1229 261 1229 q 463 1227 419 1228 q 467 1210 467 1225 l 467 1202 l 467 1181 z "},"":{"ha":1068,"x_min":24,"x_max":1027,"o":"m 1001 155 l 1000 149 l 1000 135 q 1020 13 1000 71 l 1027 -2 l 720 -2 l 696 -1 q 654 -2 669 -1 q 613 109 633 39 q 583 67 604 91 q 551 44 562 44 q 399 -12 452 -5 q 316 -24 321 -24 q 310 -24 310 -24 q 65 88 148 -24 q 24 222 24 146 q 177 424 24 387 q 329 444 216 433 l 351 446 l 382 450 l 389 450 l 406 450 q 441 453 429 450 l 478 458 q 591 508 572 465 q 600 563 600 530 q 596 589 596 570 q 577 629 596 608 q 531 650 557 650 l 528 650 q 463 539 463 650 q 451 535 459 534 q 414 536 444 536 l 64 536 q 88 637 67 585 q 243 788 128 742 q 471 838 358 833 l 512 840 l 534 842 q 542 840 538 842 l 551 840 l 581 841 q 624 836 591 841 l 644 833 q 659 833 648 833 q 701 828 669 833 q 782 805 734 824 q 864 761 831 786 q 922 701 898 736 q 983 556 968 634 q 998 382 998 477 q 1003 354 1003 367 l 1000 307 l 1000 229 q 1000 217 1000 227 l 999 171 l 999 165 q 1001 155 1001 161 m 605 293 l 606 315 q 600 380 606 349 q 557 361 585 372 q 511 344 528 351 q 480 319 494 337 q 467 270 467 301 q 487 213 467 239 q 530 187 507 187 q 603 224 581 187 l 604 231 l 605 273 l 605 293 m 531 1341 q 573 1341 531 1341 q 675 1285 615 1341 q 734 1149 734 1230 q 676 1013 734 1068 q 543 957 618 957 q 363 1077 420 957 q 342 1145 347 1110 q 345 1165 342 1146 q 361 1217 348 1183 q 397 1278 374 1250 q 531 1341 447 1341 m 629 1149 q 629 1171 629 1149 q 602 1217 629 1192 q 540 1241 575 1241 q 477 1219 505 1241 q 443 1158 450 1197 q 474 1085 443 1112 q 541 1058 505 1058 q 603 1082 577 1058 q 629 1149 629 1106 z "},"":{"ha":1424,"x_min":-43,"x_max":1405,"o":"m 975 701 q 845 707 949 701 q 849 675 845 688 q 852 659 852 663 l 867 600 l 880 599 l 911 599 l 1164 603 q 1185 597 1179 603 q 1193 578 1191 591 q 1199 559 1196 565 l 1206 532 q 1212 519 1210 527 q 1215 508 1213 512 l 1225 473 q 1254 387 1232 452 l 1072 382 l 997 382 q 941 384 985 382 l 947 359 q 950 349 947 355 l 971 276 l 983 275 l 994 275 l 1289 282 q 1332 271 1307 282 l 1347 223 l 1354 204 l 1354 205 l 1390 83 q 1394 74 1391 79 q 1397 63 1397 68 l 1402 47 q 1405 33 1405 37 q 1399 30 1405 30 l 1390 30 l 1343 32 l 1309 32 l 1301 33 l 1238 33 l 1233 33 l 1198 33 q 1036 35 1144 33 q 1011 32 1030 32 l 945 32 q 890 31 926 31 q 840 32 854 31 l 780 29 l 780 32 l 738 32 l 701 31 q 656 43 658 31 l 629 147 q 620 172 624 168 q 593 175 615 175 l 366 175 q 349 115 357 147 l 332 40 q 269 28 325 28 l 260 29 l 212 29 q 127 27 182 27 l -14 27 l -20 26 l -31 37 q -32 40 -31 39 l -16 87 q -11 110 -15 92 q 2 141 -6 127 l 1 141 q 45 267 18 189 l 61 321 l 60 321 q 129 525 81 385 q 197 728 176 665 l 211 770 q 269 940 235 831 l 268 940 l 273 950 q 347 949 298 949 l 446 949 q 469 949 452 949 l 538 949 l 561 948 l 585 948 l 638 947 l 649 947 q 711 944 682 947 q 916 947 785 947 l 951 947 l 968 947 l 1101 947 q 1121 913 1112 944 q 1135 868 1131 883 q 1141 848 1139 853 l 1185 703 q 1174 699 1179 699 q 1166 699 1168 699 l 1157 699 l 1148 700 l 1004 701 l 975 701 m 403 446 l 397 411 l 400 382 q 441 384 420 382 l 550 380 q 553 381 553 381 l 557 381 q 591 389 584 381 q 598 411 598 397 q 588 464 598 426 l 588 462 l 583 482 q 578 499 578 494 l 559 585 q 553 618 556 600 l 543 671 q 538 685 541 673 l 538 683 l 526 737 q 500 768 520 759 q 452 659 474 758 l 446 626 q 441 614 443 619 l 437 598 q 403 446 427 546 m -31 37 q -28 30 -29 37 q -31 22 -28 22 l -38 3 q -43 18 -43 9 q -40 36 -43 28 l -39 36 l -40 36 q -34 44 -38 40 l -32 40 l -33 38 q -39 36 -33 36 l -31 36 l -31 37 m 780 29 l 781 22 l 774 40 l 780 29 m 1190 701 q 1185 703 1186 701 q 1188 704 1186 704 q 1190 701 1190 704 m 1255 387 l 1259 387 q 1256 385 1256 386 l 1256 383 l 1255 387 q 1254 387 1254 387 l 1255 387 m 276 952 l 271 950 l 276 952 z "},"":{"ha":1031,"x_min":0,"x_max":1012,"o":"m 533 -21 l 479 -24 q 397 -15 437 -24 q 324 -1 370 -15 q 94 126 170 36 l 81 140 q 5 345 22 216 l 3 359 q 0 411 0 380 q 12 492 0 441 q 191 755 54 683 l 283 804 q 536 841 385 841 q 643 826 594 841 l 656 822 q 656 823 656 822 l 657 823 q 963 621 887 762 l 964 616 q 1010 463 998 547 l 994 468 l 570 468 l 566 493 q 530 597 555 571 l 516 605 q 449 442 456 601 q 447 416 448 420 l 448 395 l 450 355 q 450 345 450 351 l 457 338 l 450 338 q 471 260 453 288 q 507 233 489 233 q 555 275 542 233 q 568 352 568 317 q 725 355 620 355 l 751 355 l 816 354 l 881 354 l 1012 353 q 806 45 991 136 q 769 30 793 41 l 743 18 q 546 -24 635 -24 q 533 -21 536 -24 m 477 -1 l 483 -1 l 494 -1 l 588 -3 q 595 -11 595 -4 q 591 -24 595 -17 q 576 -48 587 -32 q 555 -82 565 -64 q 682 -116 637 -82 q 726 -205 726 -150 q 663 -321 726 -279 q 521 -363 599 -363 q 378 -350 443 -363 q 313 -318 313 -337 q 332 -270 313 -304 l 341 -250 q 345 -238 341 -248 q 357 -224 349 -229 q 376 -232 362 -227 q 475 -256 436 -256 q 549 -214 549 -256 q 496 -184 549 -184 q 475 -189 491 -186 l 460 -194 q 436 -183 452 -194 l 421 -174 l 422 -174 q 392 -134 392 -157 q 464 -5 427 -72 q 474 -1 467 -2 l 477 -1 m 460 -194 l 460 -208 l 456 -208 l 455 -195 l 460 -194 z "},"":{"ha":1000,"x_min":-7,"x_max":968,"o":"m 375 831 q 440 840 406 840 q 506 838 475 840 l 534 835 q 637 819 602 829 l 637 820 l 652 814 q 873 680 794 770 l 873 680 q 919 615 892 659 q 945 554 945 571 l 951 536 l 954 516 q 967 440 967 471 q 968 393 967 410 l 409 393 l 409 371 q 413 338 413 355 q 413 312 413 321 q 415 293 414 302 q 417 278 416 283 q 420 264 417 272 q 423 254 422 256 q 427 243 423 251 q 433 228 431 235 q 442 214 435 220 l 442 214 l 450 200 q 485 180 463 186 q 535 218 522 188 q 557 294 549 249 q 627 301 582 301 l 713 299 l 964 299 q 915 147 956 216 l 916 147 q 806 52 880 92 q 535 -22 595 -22 q 517 -21 524 -22 l 502 -21 l 496 -22 l 490 -22 q 476 -20 484 -22 q 460 -24 469 -24 l 401 -18 q 381 -20 396 -20 q 305 -1 367 -20 l 305 -2 l 289 3 l 273 8 q 98 113 171 38 q 5 288 26 188 q -2 325 3 300 q -7 358 -7 349 l -7 391 q -7 408 -7 402 l -7 418 q 79 667 -7 562 q 308 814 164 772 l 324 819 q 376 832 360 825 l 375 831 m 578 483 l 592 492 q 570 586 581 565 q 551 621 560 606 q 504 650 533 650 q 455 621 475 650 q 410 480 419 571 q 490 483 453 483 l 578 483 m 486 970 l 480 967 q 456 997 479 968 l 456 996 l 435 1022 q 318 1151 374 1095 q 262 1225 262 1208 q 268 1234 262 1228 q 566 1221 407 1221 l 587 1221 l 591 1222 q 661 1118 606 1211 q 730 1005 716 1025 q 743 978 743 986 q 702 970 743 970 l 486 970 z "},"":{"ha":1000,"x_min":-7,"x_max":968,"o":"m 375 831 q 440 840 406 840 q 506 838 475 840 l 534 835 q 637 819 602 829 l 637 820 l 652 814 q 873 680 794 770 l 873 680 q 919 615 892 659 q 945 554 945 571 l 951 536 l 954 516 q 967 440 967 471 q 968 393 967 410 l 409 393 l 409 371 q 413 338 413 355 q 413 312 413 321 q 415 293 414 302 q 417 278 416 283 q 420 264 417 272 q 423 254 422 256 q 427 243 423 251 q 433 228 431 235 q 442 214 435 220 l 442 214 l 450 200 q 485 180 463 186 q 535 218 522 188 q 557 294 549 249 q 627 301 582 301 l 713 299 l 964 299 q 915 147 956 216 l 916 147 q 806 52 880 92 q 535 -22 595 -22 q 517 -21 524 -22 l 502 -21 l 496 -22 l 490 -22 q 476 -20 484 -22 q 460 -24 469 -24 l 401 -18 q 381 -20 396 -20 q 305 -1 367 -20 l 305 -2 l 289 3 l 273 8 q 98 113 171 38 q 5 288 26 188 q -2 325 3 300 q -7 358 -7 349 l -7 391 q -7 408 -7 402 l -7 418 q 79 667 -7 562 q 308 814 164 772 l 324 819 q 376 832 360 825 l 375 831 m 578 483 l 592 492 q 570 586 581 565 q 551 621 560 606 q 504 650 533 650 q 455 621 475 650 q 410 480 419 571 q 490 483 453 483 l 578 483 m 322 956 l 311 956 l 278 956 l 268 975 l 382 1169 q 415 1217 411 1212 l 463 1217 l 746 1210 l 746 1208 q 657 1108 719 1177 q 566 1006 595 1039 q 516 966 537 972 q 446 958 494 959 l 322 956 z "},"":{"ha":1000,"x_min":-7,"x_max":968,"o":"m 375 831 q 440 840 406 840 q 506 838 475 840 l 534 835 q 637 819 602 829 l 637 820 l 652 814 q 873 680 794 770 l 873 680 q 919 615 892 659 q 945 554 945 571 l 951 536 l 954 516 q 967 440 967 471 q 968 393 967 410 l 409 393 l 409 371 q 413 338 413 355 q 413 312 413 321 q 415 293 414 302 q 417 278 416 283 q 420 264 417 272 q 423 254 422 256 q 427 243 423 251 q 433 228 431 235 q 442 214 435 220 l 442 214 l 450 200 q 485 180 463 186 q 535 218 522 188 q 557 294 549 249 q 627 301 582 301 l 713 299 l 964 299 q 915 147 956 216 l 916 147 q 806 52 880 92 q 535 -22 595 -22 q 517 -21 524 -22 l 502 -21 l 496 -22 l 490 -22 q 476 -20 484 -22 q 460 -24 469 -24 l 401 -18 q 381 -20 396 -20 q 305 -1 367 -20 l 305 -2 l 289 3 l 273 8 q 98 113 171 38 q 5 288 26 188 q -2 325 3 300 q -7 358 -7 349 l -7 391 q -7 408 -7 402 l -7 418 q 79 667 -7 562 q 308 814 164 772 l 324 819 q 376 832 360 825 l 375 831 m 578 483 l 592 492 q 570 586 581 565 q 551 621 560 606 q 504 650 533 650 q 455 621 475 650 q 410 480 419 571 q 490 483 453 483 l 578 483 m 770 954 l 570 949 q 532 997 549 961 q 526 1007 528 1005 l 506 1048 q 479 1014 495 1038 q 452 973 464 990 q 432 956 439 956 l 243 956 l 210 954 q 172 962 172 954 q 172 966 172 964 q 295 1138 218 1038 l 310 1162 q 359 1195 327 1190 q 541 1204 391 1201 l 661 1206 q 685 1183 673 1200 q 700 1161 696 1166 q 709 1148 703 1157 q 718 1136 715 1139 l 718 1137 l 760 1074 q 791 1030 768 1062 l 805 1011 q 815 996 808 1006 l 827 981 q 838 960 838 967 q 819 953 838 953 l 812 954 l 770 954 z "},"":{"ha":1000,"x_min":-7,"x_max":968,"o":"m 375 831 q 440 840 406 840 q 506 838 475 840 l 534 835 q 637 819 602 829 l 637 820 l 652 814 q 873 680 794 770 l 873 680 q 919 615 892 659 q 945 554 945 571 l 951 536 l 954 516 q 967 440 967 471 q 968 393 967 410 l 409 393 l 409 371 q 413 338 413 355 q 413 312 413 321 q 415 293 414 302 q 417 278 416 283 q 420 264 417 272 q 423 254 422 256 q 427 243 423 251 q 433 228 431 235 q 442 214 435 220 l 442 214 l 450 200 q 485 180 463 186 q 535 218 522 188 q 557 294 549 249 q 627 301 582 301 l 713 299 l 964 299 q 915 147 956 216 l 916 147 q 806 52 880 92 q 535 -22 595 -22 q 517 -21 524 -22 l 502 -21 l 496 -22 l 490 -22 q 476 -20 484 -22 q 460 -24 469 -24 l 401 -18 q 381 -20 396 -20 q 305 -1 367 -20 l 305 -2 l 289 3 l 273 8 q 98 113 171 38 q 5 288 26 188 q -2 325 3 300 q -7 358 -7 349 l -7 391 q -7 408 -7 402 l -7 418 q 79 667 -7 562 q 308 814 164 772 l 324 819 q 376 832 360 825 l 375 831 m 578 483 l 592 492 q 570 586 581 565 q 551 621 560 606 q 504 650 533 650 q 455 621 475 650 q 410 480 419 571 q 490 483 453 483 l 578 483 m 659 1227 l 774 1230 q 817 1224 815 1230 q 822 992 821 1121 q 820 985 820 988 l 815 986 l 589 977 l 572 996 q 576 1138 572 1054 q 588 1230 580 1221 q 659 1227 625 1227 m 572 996 l 572 996 l 572 996 m 819 985 l 829 984 q 819 972 829 972 q 812 975 815 972 l 819 985 m 433 1181 l 434 1114 l 434 1093 q 435 987 434 1019 q 380 980 428 980 l 366 981 l 331 981 l 204 976 q 188 1000 190 997 q 203 1230 188 1213 q 306 1229 227 1229 q 429 1227 385 1228 q 433 1210 433 1225 l 433 1202 l 433 1181 z "},"":{"ha":454,"x_min":-12,"x_max":470,"o":"m 415 212 l 416 206 l 416 104 q 411 22 416 62 q 398 -17 406 -17 l 199 -17 l 172 -21 q 56 -20 132 -21 l 43 -9 l 43 0 l 42 14 l 42 45 q 45 267 42 169 l 47 412 l 52 690 l 52 709 l 140 710 l 153 709 l 199 709 l 216 710 l 396 707 q 400 708 399 708 q 401 705 401 708 l 401 662 l 401 636 l 401 585 q 408 401 401 470 l 410 373 q 416 254 414 325 l 416 236 q 415 233 416 235 l 415 212 m 213 970 l 207 967 q 182 997 205 968 l 182 996 l 161 1022 q 45 1151 101 1095 q -12 1225 -12 1208 q -5 1234 -12 1228 q 293 1221 134 1221 l 313 1221 l 317 1222 q 388 1118 332 1211 q 456 1005 443 1025 q 470 978 470 986 q 429 970 470 970 l 213 970 z "},"":{"ha":454,"x_min":-5,"x_max":473,"o":"m 415 212 l 416 206 l 416 104 q 411 22 416 62 q 398 -17 406 -17 l 199 -17 l 172 -21 q 56 -20 132 -21 l 43 -9 l 43 0 l 42 14 l 42 45 q 45 267 42 169 l 47 412 l 52 690 l 52 709 l 140 710 l 153 709 l 199 709 l 216 710 l 396 707 q 400 708 399 708 q 401 705 401 708 l 401 662 l 401 636 l 401 585 q 408 401 401 470 l 410 373 q 416 254 414 325 l 416 236 q 415 233 416 235 l 415 212 m 49 956 l 38 956 l 5 956 l -5 975 l 109 1169 q 142 1217 138 1212 l 189 1217 l 473 1210 l 473 1208 q 384 1108 446 1177 q 293 1006 322 1039 q 242 966 264 972 q 173 958 221 959 l 49 956 z "},"":{"ha":454,"x_min":-101,"x_max":565,"o":"m 415 212 l 416 206 l 416 104 q 411 22 416 62 q 398 -17 406 -17 l 199 -17 l 172 -21 q 56 -20 132 -21 l 43 -9 l 43 0 l 42 14 l 42 45 q 45 267 42 169 l 47 412 l 52 690 l 52 709 l 140 710 l 153 709 l 199 709 l 216 710 l 396 707 q 400 708 399 708 q 401 705 401 708 l 401 662 l 401 636 l 401 585 q 408 401 401 470 l 410 373 q 416 254 414 325 l 416 236 q 415 233 416 235 l 415 212 m 497 954 l 297 949 q 259 997 276 961 q 254 1007 255 1005 l 233 1048 q 207 1014 222 1038 q 179 973 191 990 q 159 956 167 956 l -29 956 l -62 954 q -101 962 -101 954 q -100 966 -101 964 q 22 1138 -54 1038 l 37 1162 q 86 1195 54 1190 q 269 1204 118 1201 l 389 1206 q 412 1183 401 1200 q 427 1161 424 1166 q 436 1148 431 1157 q 445 1136 442 1139 l 445 1137 l 487 1074 q 519 1030 495 1062 l 532 1011 q 543 996 536 1006 l 554 981 q 565 960 565 967 q 547 953 565 953 l 539 954 l 497 954 z "},"":{"ha":454,"x_min":-85,"x_max":555,"o":"m 415 212 l 416 206 l 416 104 q 411 22 416 62 q 398 -17 406 -17 l 199 -17 l 172 -21 q 56 -20 132 -21 l 43 -9 l 43 0 l 42 14 l 42 45 q 45 267 42 169 l 47 412 l 52 690 l 52 709 l 140 710 l 153 709 l 199 709 l 216 710 l 396 707 q 400 708 399 708 q 401 705 401 708 l 401 662 l 401 636 l 401 585 q 408 401 401 470 l 410 373 q 416 254 414 325 l 416 236 q 415 233 416 235 l 415 212 m 385 1227 l 500 1230 q 544 1224 542 1230 q 549 992 547 1121 q 547 985 547 988 l 542 986 l 316 977 l 298 996 q 302 1138 298 1054 q 315 1230 307 1221 q 385 1227 352 1227 m 298 996 l 298 996 l 298 996 m 546 985 l 555 984 q 546 972 555 972 q 539 975 542 972 l 546 985 m 159 1181 l 161 1114 l 161 1093 q 161 987 161 1019 q 106 980 155 980 l 92 981 l 58 981 l -69 976 q -85 1000 -83 997 q -71 1230 -85 1213 q 33 1229 -46 1229 q 155 1227 112 1228 q 160 1210 160 1225 l 159 1202 l 159 1181 z "},"":{"ha":985,"x_min":-18,"x_max":969,"o":"m -16 530 l -17 557 q -7 589 -17 589 l 74 589 q 72 621 72 606 l 70 654 l 70 765 q 64 903 64 854 l 64 934 l 61 937 q 68 939 62 939 l 75 939 q 137 945 88 939 q 311 951 185 951 l 401 951 q 701 917 593 951 q 861 813 809 883 q 969 494 969 680 q 777 104 969 232 q 546 29 671 35 l 542 31 l 512 30 q 466 28 496 28 q 410 31 435 28 l 335 31 l 319 31 l 82 27 q 71 72 71 48 l 71 165 q 73 334 73 221 l 73 379 l 73 436 q -1 435 52 435 q -18 446 -7 437 l -17 454 l -17 465 l -16 522 l -16 530 m 404 368 l 404 349 l 404 334 q 425 222 404 234 l 449 222 q 530 243 496 222 q 580 287 564 264 q 610 368 597 309 q 623 496 623 426 l 623 551 q 618 597 621 563 q 604 665 616 631 q 536 746 581 726 q 436 766 491 766 l 418 766 l 410 741 l 410 743 l 401 727 q 401 702 401 707 l 401 694 l 402 686 l 402 646 l 401 611 l 401 590 l 434 590 l 446 589 l 484 589 q 493 519 493 589 l 492 500 l 492 464 q 484 445 492 445 q 404 444 426 445 l 404 407 l 404 397 l 404 368 z "},"":{"ha":990,"x_min":34,"x_max":949,"o":"m 214 811 l 396 812 q 408 767 399 798 q 425 706 417 736 l 438 655 q 471 731 465 724 l 482 745 q 692 841 551 841 q 820 801 760 841 q 915 695 881 760 q 949 559 949 631 q 947 546 949 551 l 947 129 l 947 -1 l 551 -1 l 549 338 l 552 408 q 497 511 552 511 q 438 413 438 511 q 439 383 438 391 l 439 373 l 439 361 l 439 0 l 237 -1 l 35 -1 l 34 406 l 34 812 l 214 811 m 619 1187 l 635 1200 l 806 1196 q 815 1185 808 1195 q 623 952 800 952 q 526 966 585 952 l 487 979 q 398 1001 415 1001 q 375 998 382 1001 q 366 987 368 995 q 363 969 365 979 q 205 960 362 960 l 186 960 q 182 972 182 964 q 235 1146 182 1089 q 383 1204 287 1204 q 509 1179 419 1204 l 509 1179 q 568 1162 530 1172 l 589 1158 q 598 1151 591 1158 l 615 1170 q 619 1187 618 1181 m 593 1183 l 599 1190 l 604 1179 l 593 1183 z "},"":{"ha":1064,"x_min":15,"x_max":1026,"o":"m 1026 410 q 1025 402 1025 404 l 1025 397 q 973 195 1023 285 l 974 195 q 781 33 905 90 q 537 -24 657 -24 q 338 -1 417 -24 q 192 67 259 22 q 92 153 125 112 q 15 429 15 251 q 17 439 15 435 l 17 450 q 15 456 15 453 l 16 463 l 16 463 q 66 619 28 582 q 75 636 66 627 l 75 635 l 85 652 q 269 792 165 754 l 292 801 q 418 833 337 823 l 439 836 q 459 837 444 836 q 479 840 473 838 l 509 839 q 513 840 511 840 q 519 839 516 840 l 519 840 q 531 838 523 838 q 541 840 534 840 q 791 780 688 840 l 804 774 q 1026 410 1026 667 m 604 406 q 566 589 602 541 q 529 608 551 608 q 492 584 508 608 q 466 506 475 559 q 456 412 456 453 q 459 341 456 371 q 471 279 463 312 q 494 224 478 246 q 529 202 509 202 q 604 406 604 202 m 518 970 l 512 967 q 488 997 511 968 l 488 996 l 467 1022 q 350 1151 406 1095 q 294 1225 294 1208 q 300 1234 294 1228 q 598 1221 439 1221 l 618 1221 l 623 1222 q 693 1118 637 1211 q 762 1005 748 1025 q 775 978 775 986 q 734 970 775 970 l 518 970 z "},"":{"ha":1064,"x_min":15,"x_max":1026,"o":"m 1026 410 q 1025 402 1025 404 l 1025 397 q 973 195 1023 285 l 974 195 q 781 33 905 90 q 537 -24 657 -24 q 338 -1 417 -24 q 192 67 259 22 q 92 153 125 112 q 15 429 15 251 q 17 439 15 435 l 17 450 q 15 456 15 453 l 16 463 l 16 463 q 66 619 28 582 q 75 636 66 627 l 75 635 l 85 652 q 269 792 165 754 l 292 801 q 418 833 337 823 l 439 836 q 459 837 444 836 q 479 840 473 838 l 509 839 q 513 840 511 840 q 519 839 516 840 l 519 840 q 531 838 523 838 q 541 840 534 840 q 791 780 688 840 l 804 774 q 1026 410 1026 667 m 604 406 q 566 589 602 541 q 529 608 551 608 q 492 584 508 608 q 466 506 475 559 q 456 412 456 453 q 459 341 456 371 q 471 279 463 312 q 494 224 478 246 q 529 202 509 202 q 604 406 604 202 m 354 956 l 343 956 l 310 956 l 300 975 l 414 1169 q 447 1217 443 1212 l 494 1217 l 778 1210 l 778 1208 q 689 1108 751 1177 q 598 1006 627 1039 q 548 966 569 972 q 478 958 526 959 l 354 956 z "},"":{"ha":1064,"x_min":15,"x_max":1026,"o":"m 1026 410 q 1025 402 1025 404 l 1025 397 q 973 195 1023 285 l 974 195 q 781 33 905 90 q 537 -24 657 -24 q 338 -1 417 -24 q 192 67 259 22 q 92 153 125 112 q 15 429 15 251 q 17 439 15 435 l 17 450 q 15 456 15 453 l 16 463 l 16 463 q 66 619 28 582 q 75 636 66 627 l 75 635 l 85 652 q 269 792 165 754 l 292 801 q 418 833 337 823 l 439 836 q 459 837 444 836 q 479 840 473 838 l 509 839 q 513 840 511 840 q 519 839 516 840 l 519 840 q 531 838 523 838 q 541 840 534 840 q 791 780 688 840 l 804 774 q 1026 410 1026 667 m 604 406 q 566 589 602 541 q 529 608 551 608 q 492 584 508 608 q 466 506 475 559 q 456 412 456 453 q 459 341 456 371 q 471 279 463 312 q 494 224 478 246 q 529 202 509 202 q 604 406 604 202 m 802 954 l 602 949 q 564 997 581 961 q 558 1007 559 1005 l 538 1048 q 511 1014 527 1038 q 484 973 496 990 q 464 956 471 956 l 275 956 l 242 954 q 203 962 203 954 q 204 966 203 964 q 327 1138 250 1038 l 342 1162 q 391 1195 359 1190 q 573 1204 422 1201 l 693 1206 q 717 1183 705 1200 q 732 1161 728 1166 q 741 1148 735 1157 q 749 1136 747 1139 l 749 1137 l 791 1074 q 823 1030 800 1062 l 837 1011 q 847 996 840 1006 l 859 981 q 869 960 869 967 q 851 953 869 953 l 844 954 l 802 954 z "},"":{"ha":1064,"x_min":15,"x_max":1026,"o":"m 1026 410 q 1025 402 1025 404 l 1025 397 q 973 195 1023 285 l 974 195 q 781 33 905 90 q 537 -24 657 -24 q 338 -1 417 -24 q 192 67 259 22 q 92 153 125 112 q 15 429 15 251 q 17 439 15 435 l 17 450 q 15 456 15 453 l 16 463 l 16 463 q 66 619 28 582 q 75 636 66 627 l 75 635 l 85 652 q 269 792 165 754 l 292 801 q 418 833 337 823 l 439 836 q 459 837 444 836 q 479 840 473 838 l 509 839 q 513 840 511 840 q 519 839 516 840 l 519 840 q 531 838 523 838 q 541 840 534 840 q 791 780 688 840 l 804 774 q 1026 410 1026 667 m 604 406 q 566 589 602 541 q 529 608 551 608 q 492 584 508 608 q 466 506 475 559 q 456 412 456 453 q 459 341 456 371 q 471 279 463 312 q 494 224 478 246 q 529 202 509 202 q 604 406 604 202 m 656 1187 l 672 1200 l 844 1196 q 852 1185 846 1195 q 660 952 838 952 q 564 966 623 952 l 524 979 q 436 1001 452 1001 q 412 998 419 1001 q 404 987 405 995 q 401 969 402 979 q 242 960 399 960 l 224 960 q 220 972 220 964 q 272 1146 220 1089 q 420 1204 324 1204 q 547 1179 456 1204 l 547 1179 q 606 1162 567 1172 l 626 1158 q 635 1151 629 1158 l 652 1170 q 656 1187 656 1181 m 630 1183 l 636 1190 l 641 1179 l 630 1183 z "},"":{"ha":1064,"x_min":15,"x_max":1026,"o":"m 1026 410 q 1025 402 1025 404 l 1025 397 q 973 195 1023 285 l 974 195 q 781 33 905 90 q 537 -24 657 -24 q 338 -1 417 -24 q 192 67 259 22 q 92 153 125 112 q 15 429 15 251 q 17 439 15 435 l 17 450 q 15 456 15 453 l 16 463 l 16 463 q 66 619 28 582 q 75 636 66 627 l 75 635 l 85 652 q 269 792 165 754 l 292 801 q 418 833 337 823 l 439 836 q 459 837 444 836 q 479 840 473 838 l 509 839 q 513 840 511 840 q 519 839 516 840 l 519 840 q 531 838 523 838 q 541 840 534 840 q 791 780 688 840 l 804 774 q 1026 410 1026 667 m 604 406 q 566 589 602 541 q 529 608 551 608 q 492 584 508 608 q 466 506 475 559 q 456 412 456 453 q 459 341 456 371 q 471 279 463 312 q 494 224 478 246 q 529 202 509 202 q 604 406 604 202 m 690 1227 l 806 1230 q 849 1224 847 1230 q 854 992 852 1121 q 852 985 852 988 l 847 986 l 621 977 l 604 996 q 608 1138 604 1054 q 620 1230 612 1221 q 690 1227 657 1227 m 604 996 l 604 996 l 604 996 m 851 985 l 861 984 q 851 972 861 972 q 844 975 847 972 l 851 985 m 465 1181 l 466 1114 l 466 1093 q 467 987 466 1019 q 412 980 460 980 l 397 981 l 363 981 l 236 976 l 220 1000 q 235 1230 220 1213 q 338 1229 259 1229 q 460 1227 417 1228 q 465 1210 465 1225 l 465 1202 l 465 1181 z "},"":{"ha":869,"x_min":71,"x_max":813,"o":"m 605 450 l 797 452 q 813 451 813 452 l 807 313 l 807 282 l 808 275 q 786 270 804 270 l 787 271 q 569 267 646 267 l 552 267 q 440 261 509 267 l 268 255 q 81 249 83 249 q 71 287 71 264 q 95 458 71 436 l 135 458 l 605 450 m 503 0 q 444 -16 477 -16 q 378 8 410 -16 q 347 77 347 33 q 375 152 347 122 q 444 182 404 182 q 516 155 485 182 q 547 78 547 128 q 503 0 547 28 m 450 734 q 470 734 450 734 q 520 708 490 734 q 551 646 551 682 q 533 585 551 610 q 452 539 499 539 q 378 566 406 539 q 351 636 351 593 q 380 707 351 680 q 450 734 410 734 z "},"":{"ha":987,"x_min":16,"x_max":966,"o":"m 176 -104 l 155 -96 l 168 -42 q 176 -25 170 -37 q 185 -8 182 -14 l 227 71 l 208 83 q 94 195 144 126 l 94 195 q 18 455 33 292 l 16 496 l 19 511 q 137 840 40 727 l 153 857 q 252 922 188 895 l 279 934 q 462 972 358 968 l 465 972 q 502 975 488 972 q 694 942 607 972 l 789 1116 q 812 1107 789 1118 l 834 1097 q 842 1095 834 1095 l 846 1093 q 807 1005 846 1074 q 760 915 769 937 q 779 902 763 912 q 852 838 833 863 l 867 819 q 966 495 966 694 q 875 181 966 296 l 846 145 q 680 43 787 76 q 485 9 573 9 q 299 39 396 9 q 279 -1 292 25 q 236 -81 253 -53 q 204 -109 219 -109 l 185 -104 l 176 -104 m 572 715 q 485 745 536 745 q 404 714 433 745 q 359 627 375 684 l 360 627 q 347 525 347 591 l 347 491 q 363 326 347 419 l 572 715 m 620 653 l 410 249 q 482 230 452 230 q 536 239 512 230 q 577 261 561 248 q 604 296 593 274 q 630 383 625 336 q 635 490 635 430 l 635 516 q 620 653 635 572 m 842 1095 l 842 1095 l 842 1095 z "},"":{"ha":1043,"x_min":37,"x_max":1003,"o":"m 469 746 l 467 315 q 517 246 467 246 q 558 319 558 246 l 558 810 l 781 811 l 1002 811 l 1003 1 l 623 1 l 591 111 q 353 -24 505 -24 q 134 50 223 -24 l 135 55 q 106 80 123 58 q 81 117 90 101 q 37 352 37 197 l 37 374 l 37 810 l 253 810 l 469 811 l 469 746 m 508 970 l 502 967 q 477 997 500 968 l 477 996 l 456 1022 q 340 1151 396 1095 q 283 1225 283 1208 q 290 1234 283 1228 q 588 1221 429 1221 l 608 1221 l 612 1222 q 683 1118 627 1211 q 751 1005 738 1025 q 765 978 765 986 q 724 970 765 970 l 508 970 z "},"":{"ha":1043,"x_min":37,"x_max":1003,"o":"m 469 746 l 467 315 q 517 246 467 246 q 558 319 558 246 l 558 810 l 781 811 l 1002 811 l 1003 1 l 623 1 l 591 111 q 353 -24 505 -24 q 134 50 223 -24 l 135 55 q 106 80 123 58 q 81 117 90 101 q 37 352 37 197 l 37 374 l 37 810 l 253 810 l 469 811 l 469 746 m 343 956 l 332 956 l 299 956 l 289 975 l 403 1169 q 436 1217 432 1212 l 484 1217 l 767 1210 l 767 1208 q 678 1108 740 1177 q 587 1006 616 1039 q 537 966 558 972 q 467 958 515 959 l 343 956 z "},"":{"ha":1043,"x_min":37,"x_max":1003,"o":"m 469 746 l 467 315 q 517 246 467 246 q 558 319 558 246 l 558 810 l 781 811 l 1002 811 l 1003 1 l 623 1 l 591 111 q 353 -24 505 -24 q 134 50 223 -24 l 135 55 q 106 80 123 58 q 81 117 90 101 q 37 352 37 197 l 37 374 l 37 810 l 253 810 l 469 811 l 469 746 m 791 954 l 591 949 q 553 997 570 961 q 548 1007 549 1005 l 528 1048 q 501 1014 517 1038 q 473 973 486 990 q 454 956 461 956 l 265 956 l 232 954 q 193 962 193 954 q 194 966 193 964 q 317 1138 240 1038 l 332 1162 q 380 1195 349 1190 q 563 1204 412 1201 l 683 1206 q 707 1183 695 1200 q 722 1161 718 1166 q 731 1148 725 1157 q 739 1136 736 1139 l 739 1137 l 781 1074 q 813 1030 789 1062 l 827 1011 q 837 996 830 1006 l 848 981 q 859 960 859 967 q 841 953 859 953 l 833 954 l 791 954 z "},"":{"ha":1043,"x_min":37,"x_max":1003,"o":"m 469 746 l 467 315 q 517 246 467 246 q 558 319 558 246 l 558 810 l 781 811 l 1002 811 l 1003 1 l 623 1 l 591 111 q 353 -24 505 -24 q 134 50 223 -24 l 135 55 q 106 80 123 58 q 81 117 90 101 q 37 352 37 197 l 37 374 l 37 810 l 253 810 l 469 811 l 469 746 m 680 1227 l 795 1230 q 838 1224 836 1230 q 843 992 842 1121 q 841 985 841 988 l 836 986 l 610 977 l 593 996 q 597 1138 593 1054 q 609 1230 601 1221 q 680 1227 647 1227 m 593 996 l 593 996 l 593 996 m 840 985 l 850 984 q 840 972 850 972 q 833 975 836 972 l 840 985 m 454 1181 l 455 1114 l 455 1093 q 456 987 455 1019 q 401 980 449 980 l 387 981 l 352 981 l 225 976 q 209 1000 211 997 q 224 1230 209 1213 q 327 1229 248 1229 q 450 1227 406 1228 q 454 1210 454 1225 l 454 1202 l 454 1181 z "},"":{"ha":951,"x_min":-11,"x_max":932,"o":"m 161 -94 q 224 28 224 -73 q 199 149 224 66 l 188 182 q -11 810 109 437 l 196 810 l 400 811 l 431 635 q 441 553 434 606 q 452 472 449 499 l 518 811 l 919 811 l 919 812 l 932 811 l 929 798 l 928 798 l 749 301 q 707 184 721 231 q 677 96 694 137 q 617 -67 660 54 q 536 -257 575 -188 q 342 -370 475 -361 l 278 -370 l 223 -373 q 197 -371 208 -373 q 182 -372 192 -372 l 141 -370 l 115 -372 q 98 -371 111 -372 q 41 -371 69 -371 l 28 -336 q 26 -326 26 -332 q 27 -317 26 -319 l 27 -312 l 28 -305 l 28 -228 q 27 -109 28 -148 q 48 -108 37 -108 q 66 -110 59 -108 q 91 -108 75 -108 l 96 -108 q 121 -102 102 -104 q 150 -96 140 -99 q 161 -94 160 -94 l 161 -94 m 298 956 l 287 956 l 254 956 l 243 975 l 357 1169 q 391 1217 387 1212 l 438 1217 l 722 1210 l 722 1208 q 633 1108 694 1177 q 542 1006 571 1039 q 491 966 513 972 q 422 958 470 959 l 298 956 z "},"":{"ha":926,"x_min":68,"x_max":930,"o":"m 71 484 l 73 932 l 73 1112 l 68 1183 q 110 1193 73 1193 l 425 1193 q 427 1170 427 1190 l 427 949 l 600 943 l 610 943 l 615 943 l 630 943 q 812 889 730 943 l 812 889 q 897 784 863 853 q 930 640 930 715 q 796 389 930 497 q 593 338 713 346 l 569 337 q 472 332 541 332 l 463 332 q 437 330 452 332 l 437 257 q 444 39 437 133 q 401 28 438 28 l 79 28 q 70 59 73 45 l 70 271 q 71 306 70 294 l 71 484 m 426 759 q 411 734 420 753 l 411 686 l 408 661 q 402 577 402 605 q 416 525 402 550 l 416 525 q 418 517 416 522 q 420 513 420 513 l 427 519 q 452 517 431 517 q 555 546 505 517 q 605 637 605 574 q 579 724 605 700 q 518 753 553 748 q 437 759 484 759 l 426 759 z "},"":{"ha":951,"x_min":-11,"x_max":932,"o":"m 161 -94 q 224 28 224 -73 q 199 149 224 66 l 188 182 q -11 810 109 437 l 196 810 l 400 811 l 431 635 q 441 553 434 606 q 452 472 449 499 l 518 811 l 919 811 l 919 812 l 932 811 l 929 798 l 928 798 l 749 301 q 707 184 721 231 q 677 96 694 137 q 617 -67 660 54 q 536 -257 575 -188 q 342 -370 475 -361 l 278 -370 l 223 -373 q 197 -371 208 -373 q 182 -372 192 -372 l 141 -370 l 115 -372 q 98 -371 111 -372 q 41 -371 69 -371 l 28 -336 q 26 -326 26 -332 q 27 -317 26 -319 l 27 -312 l 28 -305 l 28 -228 q 27 -109 28 -148 q 48 -108 37 -108 q 66 -110 59 -108 q 91 -108 75 -108 l 96 -108 q 121 -102 102 -104 q 150 -96 140 -99 q 161 -94 160 -94 l 161 -94 m 634 1227 l 749 1230 q 793 1224 791 1230 q 798 992 796 1121 q 795 985 795 988 l 791 986 l 565 977 l 547 996 q 551 1138 547 1054 q 564 1230 555 1221 q 634 1227 602 1227 m 547 996 l 547 996 l 547 996 m 795 985 l 804 984 q 795 972 804 972 q 788 975 791 972 l 795 985 m 408 1181 l 410 1114 l 410 1093 q 410 987 410 1019 q 355 980 404 980 l 341 981 l 307 981 l 180 976 q 163 1000 165 997 q 178 1230 163 1213 q 282 1229 203 1229 q 404 1227 361 1228 q 409 1210 409 1225 l 408 1202 l 408 1181 z "},"":{"ha":454,"x_min":42,"x_max":416,"o":"m 415 212 l 416 206 l 416 104 q 411 22 416 62 q 398 -17 406 -17 l 199 -17 l 172 -21 q 56 -20 132 -21 l 43 -9 l 43 0 l 42 14 l 42 45 q 45 267 42 169 l 47 412 l 52 690 l 52 709 l 140 710 l 153 709 l 199 709 l 216 710 l 396 707 q 400 708 399 708 q 401 705 401 708 l 401 662 l 401 636 l 401 585 q 408 401 401 470 l 410 373 q 416 254 414 325 l 416 236 q 415 233 416 235 l 415 212 z "},"":{"ha":857,"x_min":-46,"x_max":880,"o":"m 568 766 q 633 786 623 786 q 675 688 667 715 q 688 650 684 661 q 692 634 692 640 q 685 626 692 629 l 486 554 l 479 536 l 479 280 l 508 264 q 746 272 631 272 q 862 260 861 272 q 857 220 857 241 l 857 204 q 862 153 857 168 q 861 -5 862 50 q 192 -23 857 -23 q 91 -22 159 -23 q 79 45 79 0 l 81 90 l 81 401 l 67 399 q 45 391 62 399 l 20 381 q 0 389 11 382 l -16 441 l -26 463 q -46 533 -46 522 q -43 547 -46 545 q -35 552 -41 549 q -26 556 -30 554 q -14 560 -22 557 q -5 563 -7 562 l 13 569 l 12 568 l 82 591 l 82 726 l 83 758 q 81 812 83 769 l 81 820 l 78 918 q 94 1029 78 998 q 131 1029 106 1029 l 162 1029 l 276 1030 q 492 1005 471 1030 l 486 769 l 486 736 l 568 767 l 568 766 m 861 258 q 875 269 868 269 l 880 258 l 873 252 l 872 252 l 861 258 z "},"":{"ha":765,"x_min":-80,"x_max":771,"o":"m 75 711 l 70 844 q 87 951 70 929 q 298 947 209 947 q 419 947 359 947 q 440 945 425 945 l 444 945 q 455 928 448 941 l 455 921 q 453 877 455 892 l 453 847 q 451 817 452 838 q 450 790 451 796 l 449 720 l 541 760 q 589 778 582 778 q 639 673 596 778 q 644 660 644 662 l 440 568 l 440 525 q 438 433 438 494 l 438 391 q 434 288 438 342 l 538 288 l 551 288 l 699 288 l 750 289 q 770 278 770 289 l 770 187 q 771 43 770 84 q 717 31 766 31 l 668 31 l 484 28 l 285 28 q 239 27 256 27 l 234 27 q 208 26 218 26 l 140 26 l 121 26 l 73 27 q 66 38 71 27 l 66 201 q 67 261 66 227 l 69 330 l 68 339 q 77 402 68 357 l -15 360 l -29 362 q -37 363 -33 362 l -45 383 l -44 382 l -50 399 l -52 403 l -60 419 q -80 474 -80 463 q -78 486 -80 486 l 74 553 q 75 711 75 604 z "},"":{"ha":1351,"x_min":28,"x_max":1346,"o":"m 707 -13 l 565 -16 q 294 38 397 -16 q 146 142 208 71 q 28 484 28 281 q 52 692 28 607 q 227 940 123 888 l 296 979 l 295 979 q 592 1025 425 1025 q 768 1013 657 1025 l 1333 1025 q 1343 1016 1341 1024 q 1345 884 1343 972 q 1346 754 1346 797 l 1327 736 q 1026 739 1183 739 l 1024 642 q 1230 646 1164 646 q 1302 639 1296 646 q 1308 608 1308 633 l 1306 427 l 1306 371 q 1300 363 1304 366 l 1267 363 q 1021 366 1190 363 l 1021 255 q 1103 256 1044 256 l 1154 255 l 1302 255 q 1337 256 1326 255 q 1341 250 1339 254 l 1338 -7 q 1336 -6 1337 -7 l 707 -13 m 1337 -17 l 1338 -13 l 1338 -7 l 1344 -10 l 1337 -17 m 571 805 l 553 806 q 399 549 408 806 q 399 530 399 541 q 400 502 399 519 q 401 450 401 485 q 403 384 402 415 q 412 315 404 353 q 435 251 420 278 q 480 207 450 224 q 553 189 511 189 q 652 212 595 189 l 665 238 q 652 768 652 539 q 576 805 651 789 l 571 805 m 573 260 l 593 267 l 600 245 q 578 237 593 237 l 573 260 z "},"":{"ha":1317,"x_min":24,"x_max":1329,"o":"m 406 739 l 469 741 q 688 670 576 741 q 953 750 793 750 q 1329 325 1329 750 q 1314 277 1329 296 l 1304 277 l 1130 278 l 1003 278 q 830 279 884 278 l 830 254 q 920 152 830 152 q 981 182 953 152 q 998 197 991 194 q 1048 195 1031 195 l 1276 199 q 1302 190 1302 199 q 1279 121 1302 174 q 1047 -28 1213 3 q 953 -37 1001 -37 q 675 51 763 -37 q 412 -30 586 -30 q 131 67 237 -30 q 24 329 24 165 q 98 590 24 492 q 406 739 238 739 m 523 544 q 517 550 523 544 q 492 564 511 555 q 447 572 474 572 q 396 555 419 572 q 328 349 328 505 q 439 134 328 134 q 539 194 513 134 q 565 346 565 254 q 558 466 565 439 q 543 513 551 493 q 523 544 534 532 m 873 418 l 981 414 q 1040 422 1023 414 q 1057 454 1057 431 l 1057 477 q 1022 552 1057 515 q 936 589 987 589 q 856 549 886 589 q 823 448 825 509 q 857 418 823 418 l 867 418 l 873 418 z "},"":{"ha":1008,"x_min":37,"x_max":998,"o":"m 51 280 l 401 286 q 429 252 415 286 q 467 205 443 217 q 525 194 490 194 q 589 216 559 194 q 619 279 619 238 q 583 337 619 319 q 506 364 546 355 q 452 378 466 374 l 414 387 q 409 388 412 387 q 129 500 214 429 q 45 692 45 572 q 206 978 45 878 q 549 1057 333 1057 q 701 1040 621 1057 q 838 988 781 1023 l 839 987 q 942 878 920 930 q 970 760 964 825 l 955 744 l 892 741 q 735 736 812 736 q 631 738 658 736 q 598 747 604 740 q 588 764 592 754 q 579 783 585 774 q 524 806 565 806 q 450 786 483 806 q 418 745 418 766 q 485 686 418 706 q 598 660 552 666 q 830 583 753 623 q 998 324 998 494 q 804 16 998 100 q 489 -39 677 -39 q 184 23 301 -39 q 92 111 119 58 q 53 183 62 153 q 37 281 43 214 q 51 280 41 280 m 223 1519 l 245 1518 l 355 1518 q 430 1510 404 1518 q 471 1470 456 1501 q 503 1420 477 1459 l 521 1419 q 551 1464 544 1451 q 559 1478 559 1478 l 580 1514 l 640 1513 l 826 1513 l 829 1509 q 782 1435 824 1489 q 749 1379 762 1400 q 702 1307 728 1341 q 646 1268 676 1273 q 545 1263 615 1263 q 359 1260 474 1263 q 293 1345 332 1278 l 282 1362 l 283 1362 q 247 1418 264 1390 q 228 1448 229 1447 l 216 1466 q 191 1511 191 1503 q 223 1519 191 1519 m 838 992 l 841 987 q 838 988 840 987 l 838 992 m 559 1480 l 560 1482 q 559 1480 560 1480 z "},"":{"ha":891,"x_min":24,"x_max":884,"o":"m 158 307 l 320 309 l 351 309 q 384 264 369 305 q 409 237 389 249 q 460 224 428 224 l 464 224 q 545 294 541 226 q 496 350 545 329 q 414 376 461 364 q 353 393 368 388 l 311 404 q 33 659 33 486 q 72 806 33 744 q 308 966 146 926 q 483 979 370 979 q 696 939 595 979 q 789 873 762 909 l 814 846 q 862 714 853 802 l 846 696 l 846 695 l 738 694 l 723 694 l 601 696 l 597 696 q 568 702 574 696 q 553 723 562 707 q 477 753 538 753 q 377 706 377 753 q 457 654 377 671 q 496 642 489 647 l 524 633 q 572 622 554 626 q 623 607 590 617 q 677 588 656 597 q 729 565 699 579 q 779 535 759 550 q 884 339 884 455 q 770 97 884 174 q 617 32 703 51 q 438 7 531 14 q 151 76 231 16 l 137 84 q 24 305 40 161 q 26 308 24 308 l 52 306 q 60 307 58 306 l 96 307 q 151 307 136 307 l 158 307 m 846 695 l 859 695 l 853 687 l 846 695 m 854 686 l 852 686 l 854 686 m 493 1261 l 524 1310 l 562 1310 l 604 1310 l 779 1310 q 781 1308 781 1310 q 741 1243 781 1295 l 650 1109 q 632 1081 640 1089 q 550 1057 612 1057 l 433 1056 l 382 1054 l 374 1055 l 294 1053 l 280 1065 q 222 1149 262 1092 q 164 1234 182 1207 l 150 1254 q 117 1305 117 1299 q 124 1317 117 1312 l 335 1311 l 343 1311 q 383 1302 369 1310 q 414 1265 397 1293 l 450 1198 q 493 1261 466 1219 l 493 1261 m 511 1322 l 524 1326 l 530 1317 l 524 1310 l 513 1310 l 511 1322 z "},"":{"ha":1034,"x_min":-22,"x_max":1070,"o":"m 1038 1022 l 1060 1023 q 1070 1006 1067 1019 l 1050 966 l 1050 966 l 1006 882 q 877 635 906 697 l 854 591 q 727 338 817 519 q 726 269 726 315 l 726 -12 q 712 -22 722 -22 l 323 -25 q 309 18 309 -6 l 310 103 l 310 123 l 311 143 l 311 193 q 239 496 311 334 q 193 592 223 530 l 92 794 q 71 836 88 802 q 32 909 53 869 l 32 908 q -22 1018 -22 991 q -1 1021 -22 1021 l 174 1021 q 391 1019 318 1021 q 505 693 413 1015 l 535 585 q 681 1018 604 770 q 781 1023 682 1023 l 868 1023 q 920 1022 899 1023 l 1038 1022 m 696 1379 l 811 1381 q 854 1375 852 1381 q 859 1143 858 1272 q 857 1137 857 1139 l 852 1137 l 627 1128 l 609 1147 q 613 1289 609 1205 q 625 1381 617 1373 q 696 1379 663 1379 m 609 1147 l 609 1147 l 609 1147 m 857 1136 l 866 1135 q 857 1124 866 1124 q 850 1126 852 1124 l 857 1136 m 470 1332 l 471 1265 l 471 1244 q 472 1139 471 1171 q 417 1131 465 1131 l 403 1132 l 368 1132 l 241 1127 l 225 1151 q 240 1381 225 1364 q 343 1380 264 1380 q 466 1378 422 1379 q 471 1361 471 1377 l 470 1354 l 470 1332 z "},"":{"ha":946,"x_min":13,"x_max":935,"o":"m 916 935 l 914 800 l 914 791 q 766 572 904 723 l 713 515 q 572 346 626 412 l 494 252 l 530 252 l 924 257 q 934 136 934 257 l 934 60 l 935 16 q 927 -11 935 -5 q 897 -17 918 -17 l 879 -17 l 66 -24 q 37 -20 47 -24 q 18 -1 28 -16 q 13 230 18 184 l 24 239 l 119 355 q 446 757 330 618 l 245 755 l 195 753 q 47 751 121 751 q 40 772 39 755 q 40 798 41 788 l 40 810 l 41 816 l 41 856 l 35 1011 l 35 1015 q 41 1013 37 1015 q 175 1013 59 1013 q 726 1019 290 1013 l 873 1021 q 907 1013 896 1021 q 918 980 918 1005 l 916 942 l 916 935 m 522 1317 l 553 1367 l 590 1367 l 632 1366 l 807 1366 q 809 1364 809 1366 q 770 1299 809 1352 l 679 1165 q 661 1137 668 1145 q 578 1114 640 1114 l 461 1112 l 411 1110 l 402 1111 l 322 1109 l 309 1121 q 251 1206 290 1148 q 193 1291 211 1263 l 178 1310 q 145 1362 145 1355 q 153 1373 145 1369 l 363 1367 l 372 1367 q 412 1358 397 1367 q 442 1322 426 1350 l 479 1255 q 522 1318 494 1275 l 522 1317 m 539 1378 l 552 1383 l 558 1373 l 552 1367 l 542 1367 l 539 1378 z "},"":{"ha":977,"x_min":-2,"x_max":949,"o":"m 309 555 l 155 557 l 99 557 l 99 811 l 949 811 q 946 809 948 809 l 869 686 q 622 251 704 400 l 750 251 l 899 250 l 899 -1 l 98 -1 q 39 -3 98 -1 q 7 -1 20 -3 l 8 -1 q 3 0 6 -1 q -2 1 -1 1 q 92 150 5 17 q 210 334 179 283 l 347 555 l 309 555 m 537 1152 l 568 1202 l 606 1202 l 648 1201 l 823 1201 q 825 1199 825 1201 q 785 1135 825 1187 l 694 1000 q 676 972 684 981 q 594 949 656 949 l 477 947 l 427 945 l 418 946 l 338 945 l 324 956 q 266 1041 306 983 q 208 1126 227 1099 l 194 1145 q 161 1197 161 1190 q 168 1208 161 1204 l 379 1202 l 387 1202 q 427 1193 413 1202 q 458 1157 441 1185 l 494 1090 q 537 1153 510 1110 l 537 1152 m 555 1213 l 568 1218 l 574 1208 l 568 1202 l 557 1202 l 555 1213 z "},"":{"ha":1015,"x_min":67,"x_max":895,"o":"m 895 1027 l 860 807 l 852 801 q 800 811 839 801 l 800 819 q 785 819 800 819 l 776 819 q 716 750 731 819 q 718 751 717 750 q 690 622 697 681 l 821 603 l 827 604 l 838 604 q 843 603 842 604 l 843 546 q 848 404 848 431 q 847 374 848 376 q 749 368 814 370 q 651 363 684 366 l 618 184 q 613 143 616 172 q 608 106 609 115 l 605 86 q 541 -175 579 -100 q 279 -306 463 -306 q 153 -296 239 -306 q 67 -266 67 -286 q 72 -243 67 -256 l 83 -168 q 108 -48 98 -56 q 123 -58 113 -48 l 127 -54 q 168 -64 150 -64 q 243 19 227 -64 q 273 201 258 102 l 277 231 q 298 356 283 274 l 264 355 q 242 359 256 355 l 226 359 l 210 359 l 197 359 q 162 360 174 359 q 150 378 153 370 q 144 499 144 397 q 165 614 144 601 q 339 633 201 617 l 345 675 q 459 976 378 894 q 664 1058 541 1057 q 837 1048 787 1059 q 895 1027 887 1038 m 128 -53 l 123 -52 l 122 -52 l 115 -43 l 121 -8 l 149 -25 q 137 -40 140 -33 q 128 -53 133 -47 m 800 806 l 798 794 l 785 794 l 774 813 l 789 813 l 800 812 l 800 806 m 733 774 l 738 763 l 734 760 l 724 766 q 733 774 728 774 m 860 807 l 866 799 l 861 801 q 859 803 859 801 l 860 807 z "},"":{"ha":1112,"x_min":-26,"x_max":1151,"o":"m 1151 -7 q 1114 -16 1150 -16 l 1051 -16 l 1009 -17 l 968 -17 l 902 -18 q 739 -13 804 -18 q 734 -5 736 -12 l 730 9 q 699 144 724 79 l 408 142 q 391 73 406 130 q 368 -13 376 16 q 304 -20 361 -20 l 287 -19 l 248 -19 l 71 -23 l 51 -23 l 32 -24 l -16 -24 q -26 -12 -20 -19 q 158 570 42 223 l 174 618 l 173 618 l 191 675 q 242 825 200 702 q 294 985 283 949 q 307 1022 304 1021 l 419 1022 l 660 1025 l 725 1022 l 779 1025 q 819 1009 819 1025 q 1000 465 887 820 q 1128 65 1114 109 l 1137 31 q 1151 -7 1142 13 m 479 363 l 507 362 l 669 363 q 654 481 659 444 l 628 597 q 586 781 587 777 q 584 787 585 784 q 582 791 583 790 q 580 795 581 792 q 578 799 579 798 q 576 802 577 800 q 556 816 571 810 q 447 408 538 812 l 439 363 l 479 363 m 101 1290 l 385 1295 q 409 1296 403 1295 l 417 1296 l 425 1297 q 455 1253 435 1286 l 463 1239 l 463 1240 l 493 1186 q 573 1057 512 1152 l 560 1036 q 545 1038 553 1038 l 432 1035 q 396 1038 415 1038 q 365 1040 378 1038 q 334 1038 355 1038 q 287 1072 313 1038 l 270 1093 q 101 1289 196 1176 l 101 1290 m 552 1290 l 730 1295 l 821 1297 l 873 1298 q 909 1243 895 1271 l 1023 1055 l 1010 1035 l 864 1040 l 848 1040 l 834 1040 q 772 1047 790 1040 q 735 1077 755 1054 q 551 1288 653 1173 q 551 1289 551 1288 l 552 1290 m 412 1316 l 431 1310 l 431 1297 l 427 1297 q 412 1316 422 1297 m 557 1028 q 558 1031 558 1031 l 562 1036 q 564 1035 562 1035 l 557 1028 m 100 1290 l 101 1289 l 100 1289 l 100 1290 z "},"":{"ha":1068,"x_min":24,"x_max":1027,"o":"m 1001 155 l 1000 149 l 1000 135 q 1020 13 1000 71 l 1027 -2 l 720 -2 l 696 -1 q 654 -2 669 -1 q 613 109 633 39 q 583 67 604 91 q 551 44 562 44 q 399 -12 452 -5 q 316 -24 321 -24 q 310 -24 310 -24 q 65 88 148 -24 q 24 222 24 146 q 177 424 24 387 q 329 444 216 433 l 351 446 l 382 450 l 389 450 l 406 450 q 441 453 429 450 l 478 458 q 591 508 572 465 q 600 563 600 530 q 596 589 596 570 q 577 629 596 608 q 531 650 557 650 l 528 650 q 463 539 463 650 q 451 535 459 534 q 414 536 444 536 l 64 536 q 88 637 67 585 q 243 788 128 742 q 471 838 358 833 l 512 840 l 534 842 q 542 840 538 842 l 551 840 l 581 841 q 624 836 591 841 l 644 833 q 659 833 648 833 q 701 828 669 833 q 782 805 734 824 q 864 761 831 786 q 922 701 898 736 q 983 556 968 634 q 998 382 998 477 q 1003 354 1003 367 l 1000 307 l 1000 229 q 1000 217 1000 227 l 999 171 l 999 165 q 1001 155 1001 161 m 605 293 l 606 315 q 600 380 606 349 q 557 361 585 372 q 511 344 528 351 q 480 319 494 337 q 467 270 467 301 q 487 213 467 239 q 530 187 507 187 q 603 224 581 187 l 604 231 l 605 273 l 605 293 m 79 1208 l 363 1214 q 387 1215 381 1214 l 395 1215 l 404 1215 q 433 1172 413 1204 l 441 1158 l 441 1158 l 471 1105 q 551 975 490 1071 l 538 954 q 524 956 532 956 l 410 954 q 375 956 393 956 q 343 958 356 956 q 312 957 334 957 q 265 990 291 957 l 248 1012 q 79 1208 174 1095 l 79 1208 m 530 1208 l 709 1213 l 800 1215 l 852 1217 q 888 1162 873 1190 l 1001 973 l 988 954 l 842 958 l 826 959 l 812 959 q 751 966 768 959 q 713 996 733 972 q 529 1206 631 1092 q 530 1208 530 1206 l 530 1208 m 391 1235 l 409 1229 l 409 1215 l 406 1215 q 391 1235 400 1215 m 535 947 q 536 950 536 949 l 540 954 q 542 954 541 954 l 535 947 m 79 1208 l 79 1208 l 78 1208 l 79 1208 z "},"":{"ha":1112,"x_min":-26,"x_max":1151,"o":"m 1151 -7 q 1114 -16 1150 -16 l 1051 -16 l 1009 -17 l 968 -17 l 902 -18 q 739 -13 804 -18 q 734 -5 736 -12 l 730 9 q 699 144 724 79 l 408 142 q 391 73 406 130 q 368 -13 376 16 q 304 -20 361 -20 l 287 -19 l 248 -19 l 71 -23 l 51 -23 l 32 -24 l -16 -24 q -26 -12 -20 -19 q 158 570 42 223 l 174 618 l 173 618 l 191 675 q 242 825 200 702 q 294 985 283 949 q 307 1022 304 1021 l 419 1022 l 660 1025 l 725 1022 l 779 1025 q 819 1009 819 1025 q 1000 465 887 820 q 1128 65 1114 109 l 1137 31 q 1151 -7 1142 13 m 479 363 l 507 362 l 669 363 q 654 481 659 444 l 628 597 q 586 781 587 777 q 584 787 585 784 q 582 791 583 790 q 580 795 581 792 q 578 799 579 798 q 576 802 577 800 q 556 816 571 810 q 447 408 538 812 l 439 363 l 479 363 m 458 1029 l 367 1025 l 304 1023 q 283 1022 284 1022 l 281 1022 l 266 1043 q 317 1183 286 1133 q 417 1262 349 1234 q 561 1291 485 1291 q 709 1253 637 1291 q 820 1153 781 1216 q 857 1040 840 1111 q 842 1035 855 1035 l 837 1035 l 832 1036 l 644 1031 q 631 1059 640 1036 l 632 1059 q 596 1111 619 1101 q 565 1116 585 1116 q 531 1107 545 1116 q 513 1085 518 1098 q 503 1059 507 1072 q 458 1029 491 1029 m 271 1023 q 285 1022 283 1022 l 287 1000 l 269 1011 l 271 1023 z "},"":{"ha":1068,"x_min":24,"x_max":1027,"o":"m 1001 155 l 1000 149 l 1000 135 q 1020 13 1000 71 l 1027 -2 l 720 -2 l 696 -1 q 654 -2 669 -1 q 613 109 633 39 q 583 67 604 91 q 551 44 562 44 q 399 -12 452 -5 q 316 -24 321 -24 q 310 -24 310 -24 q 65 88 148 -24 q 24 222 24 146 q 177 424 24 387 q 329 444 216 433 l 351 446 l 382 450 l 389 450 l 406 450 q 441 453 429 450 l 478 458 q 591 508 572 465 q 600 563 600 530 q 596 589 596 570 q 577 629 596 608 q 531 650 557 650 l 528 650 q 463 539 463 650 q 451 535 459 534 q 414 536 444 536 l 64 536 q 88 637 67 585 q 243 788 128 742 q 471 838 358 833 l 512 840 l 534 842 q 542 840 538 842 l 551 840 l 581 841 q 624 836 591 841 l 644 833 q 659 833 648 833 q 701 828 669 833 q 782 805 734 824 q 864 761 831 786 q 922 701 898 736 q 983 556 968 634 q 998 382 998 477 q 1003 354 1003 367 l 1000 307 l 1000 229 q 1000 217 1000 227 l 999 171 l 999 165 q 1001 155 1001 161 m 605 293 l 606 315 q 600 380 606 349 q 557 361 585 372 q 511 344 528 351 q 480 319 494 337 q 467 270 467 301 q 487 213 467 239 q 530 187 507 187 q 603 224 581 187 l 604 231 l 605 273 l 605 293 m 436 947 l 345 944 l 283 942 q 262 941 262 941 l 260 941 l 244 962 q 296 1102 264 1051 q 395 1181 328 1152 q 539 1209 463 1209 q 687 1172 615 1209 q 798 1072 760 1135 q 835 959 818 1029 q 821 954 833 954 l 815 954 l 810 954 l 623 950 q 610 977 618 954 l 610 977 q 574 1029 597 1020 q 543 1034 563 1034 q 510 1025 523 1034 q 491 1004 496 1017 q 481 978 486 991 q 436 947 469 947 m 250 941 q 263 941 262 941 l 265 919 l 247 930 l 250 941 z "},"":{"ha":886,"x_min":-13,"x_max":910,"o":"m 77 840 l 74 1018 q 79 1016 75 1018 q 855 1025 594 1025 q 859 1021 858 1024 l 859 830 q 858 785 859 802 q 818 774 854 774 l 813 774 q 471 779 649 774 q 470 758 471 773 q 467 735 468 742 l 464 709 q 459 620 460 684 l 669 625 q 748 626 724 626 l 759 626 q 813 624 800 626 q 826 610 826 621 l 825 604 l 825 588 l 829 414 l 828 413 l 828 414 q 498 404 622 404 l 467 404 l 467 239 l 835 251 q 873 242 865 251 q 873 192 873 224 l 878 7 q 863 -12 878 -9 l 637 -10 q 373 -15 571 -10 l 262 -18 q 87 -22 144 -22 l 85 -20 l 85 -20 q 73 -7 79 -14 l 73 16 l 77 741 l 77 840 m -12 1290 l 273 1295 q 296 1296 290 1295 l 304 1296 l 313 1297 q 342 1253 322 1286 l 350 1239 l 350 1240 l 380 1186 q 460 1057 399 1152 l 448 1036 q 433 1038 440 1038 l 319 1035 q 284 1038 302 1038 q 252 1040 265 1038 q 221 1038 243 1038 q 174 1072 200 1038 l 157 1093 q -12 1289 83 1176 l -12 1290 m 439 1290 l 618 1295 l 709 1297 l 761 1298 q 797 1243 782 1271 l 910 1055 l 897 1035 l 751 1040 l 735 1040 l 722 1040 q 660 1047 677 1040 q 623 1077 642 1054 q 438 1288 541 1173 q 439 1289 439 1288 l 439 1290 m 300 1316 l 318 1310 l 318 1297 l 315 1297 q 300 1316 309 1297 m 444 1028 q 446 1031 446 1031 l 449 1036 q 451 1035 450 1035 l 444 1028 m -12 1290 l -12 1289 l -13 1289 l -12 1290 z "},"":{"ha":1000,"x_min":-7,"x_max":968,"o":"m 375 831 q 440 840 406 840 q 506 838 475 840 l 534 835 q 637 819 602 829 l 637 820 l 652 814 q 873 680 794 770 l 873 680 q 919 615 892 659 q 945 554 945 571 l 951 536 l 954 516 q 967 440 967 471 q 968 393 967 410 l 409 393 l 409 371 q 413 338 413 355 q 413 312 413 321 q 415 293 414 302 q 417 278 416 283 q 420 264 417 272 q 423 254 422 256 q 427 243 423 251 q 433 228 431 235 q 442 214 435 220 l 442 214 l 450 200 q 485 180 463 186 q 535 218 522 188 q 557 294 549 249 q 627 301 582 301 l 713 299 l 964 299 q 915 147 956 216 l 916 147 q 806 52 880 92 q 535 -22 595 -22 q 517 -21 524 -22 l 502 -21 l 496 -22 l 490 -22 q 476 -20 484 -22 q 460 -24 469 -24 l 401 -18 q 381 -20 396 -20 q 305 -1 367 -20 l 305 -2 l 289 3 l 273 8 q 98 113 171 38 q 5 288 26 188 q -2 325 3 300 q -7 358 -7 349 l -7 391 q -7 408 -7 402 l -7 418 q 79 667 -7 562 q 308 814 164 772 l 324 819 q 376 832 360 825 l 375 831 m 578 483 l 592 492 q 570 586 581 565 q 551 621 560 606 q 504 650 533 650 q 455 621 475 650 q 410 480 419 571 q 490 483 453 483 l 578 483 m 45 1208 l 330 1214 q 353 1215 347 1214 l 361 1215 l 370 1215 q 399 1172 379 1204 l 407 1158 l 407 1158 l 437 1105 q 517 975 456 1071 l 505 954 q 490 956 497 956 l 376 954 q 341 956 359 956 q 309 958 322 956 q 278 957 300 957 q 231 990 257 957 l 214 1012 q 45 1208 140 1095 l 45 1208 m 496 1208 l 675 1213 l 766 1215 l 818 1217 q 854 1162 839 1190 l 967 973 l 954 954 l 808 958 l 792 959 l 779 959 q 717 966 734 959 q 680 996 699 972 q 495 1206 597 1092 q 496 1208 496 1206 l 496 1208 m 357 1235 l 375 1229 l 375 1215 l 372 1215 q 357 1235 366 1215 m 501 947 q 503 950 503 949 l 506 954 q 508 954 507 954 l 501 947 m 45 1208 l 45 1208 l 44 1208 l 45 1208 z "},"":{"ha":886,"x_min":73,"x_max":878,"o":"m 77 840 l 74 1018 q 79 1016 75 1018 q 855 1025 594 1025 q 859 1021 858 1024 l 859 830 q 858 785 859 802 q 818 774 854 774 l 813 774 q 471 779 649 774 q 470 758 471 773 q 467 735 468 742 l 464 709 q 459 620 460 684 l 669 625 q 748 626 724 626 l 759 626 q 813 624 800 626 q 826 610 826 621 l 825 604 l 825 588 l 829 414 l 828 413 l 828 414 q 498 404 622 404 l 467 404 l 467 239 l 835 251 q 873 242 865 251 q 873 192 873 224 l 878 7 q 863 -12 878 -9 l 637 -10 q 373 -15 571 -10 l 262 -18 q 87 -22 144 -22 l 85 -20 l 85 -20 q 73 -7 79 -14 l 73 16 l 77 741 l 77 840 m 345 1029 l 254 1025 l 191 1023 q 170 1022 171 1022 l 168 1022 l 153 1043 q 204 1183 172 1133 q 304 1262 236 1234 q 448 1291 372 1291 q 596 1253 524 1291 q 707 1153 668 1216 q 743 1040 726 1111 q 729 1035 742 1035 l 724 1035 l 719 1036 l 531 1031 q 518 1059 527 1036 l 519 1059 q 483 1111 506 1101 q 451 1116 471 1116 q 418 1107 431 1116 q 399 1085 405 1098 q 389 1059 394 1072 q 345 1029 378 1029 m 158 1023 q 155 1011 158 1023 l 174 1000 l 172 1022 q 158 1023 170 1022 z "},"":{"ha":1000,"x_min":-7,"x_max":968,"o":"m 375 831 q 440 840 406 840 q 506 838 475 840 l 534 835 q 637 819 602 829 l 637 820 l 652 814 q 873 680 794 770 l 873 680 q 919 615 892 659 q 945 554 945 571 l 951 536 l 954 516 q 967 440 967 471 q 968 393 967 410 l 409 393 l 409 371 q 413 338 413 355 q 413 312 413 321 q 415 293 414 302 q 417 278 416 283 q 420 264 417 272 q 423 254 422 256 q 427 243 423 251 q 433 228 431 235 q 442 214 435 220 l 442 214 l 450 200 q 485 180 463 186 q 535 218 522 188 q 557 294 549 249 q 627 301 582 301 l 713 299 l 964 299 q 915 147 956 216 l 916 147 q 806 52 880 92 q 535 -22 595 -22 q 517 -21 524 -22 l 502 -21 l 496 -22 l 490 -22 q 476 -20 484 -22 q 460 -24 469 -24 l 401 -18 q 381 -20 396 -20 q 305 -1 367 -20 l 305 -2 l 289 3 l 273 8 q 98 113 171 38 q 5 288 26 188 q -2 325 3 300 q -7 358 -7 349 l -7 391 q -7 408 -7 402 l -7 418 q 79 667 -7 562 q 308 814 164 772 l 324 819 q 376 832 360 825 l 375 831 m 578 483 l 592 492 q 570 586 581 565 q 551 621 560 606 q 504 650 533 650 q 455 621 475 650 q 410 480 419 571 q 490 483 453 483 l 578 483 m 402 947 l 311 944 l 249 942 q 228 941 229 941 l 226 941 l 210 962 q 262 1102 230 1051 q 361 1181 294 1152 q 505 1209 429 1209 q 653 1172 581 1209 q 764 1072 726 1135 q 801 959 784 1029 q 787 954 800 954 l 781 954 l 777 954 l 589 950 q 576 977 585 954 l 576 977 q 541 1029 564 1020 q 509 1034 529 1034 q 476 1025 489 1034 q 457 1004 463 1017 q 447 978 452 991 q 402 947 435 947 m 216 941 q 229 941 228 941 l 231 919 l 213 930 l 216 941 z "},"":{"ha":571,"x_min":-170,"x_max":753,"o":"m 70 73 q 77 264 70 210 q 85 859 77 559 q 83 945 83 901 l 83 967 q 81 1004 81 988 q 84 1025 81 1021 q 338 1017 229 1017 q 488 1021 448 1017 q 490 1009 490 1019 l 486 1009 l 486 764 l 490 212 q 492 201 490 205 l 492 200 q 494 191 494 196 l 500 -6 q 488 -18 496 -14 l 465 -18 l 85 -24 q 67 -14 78 -20 l 68 -2 l 70 73 m -169 1290 l 115 1295 q 139 1296 133 1295 l 147 1296 l 155 1297 q 185 1253 165 1286 l 193 1239 l 193 1240 l 223 1186 q 303 1057 242 1152 l 290 1036 q 275 1038 283 1038 l 162 1035 q 126 1038 145 1038 q 95 1040 108 1038 q 64 1038 85 1038 q 17 1072 43 1038 l 0 1093 q -169 1289 -74 1176 l -169 1290 m 282 1290 l 460 1295 l 551 1297 l 604 1298 q 640 1243 625 1271 l 753 1055 l 740 1035 l 594 1040 l 578 1040 l 564 1040 q 503 1047 520 1040 q 465 1077 485 1054 q 281 1288 383 1173 q 281 1289 281 1288 l 282 1290 m 142 1316 l 161 1310 l 161 1297 l 157 1297 q 142 1316 152 1297 m 287 1028 q 288 1031 288 1031 l 292 1036 q 294 1035 292 1035 l 287 1028 m -170 1290 l -169 1289 l -170 1289 l -170 1290 z "},"":{"ha":454,"x_min":-229,"x_max":694,"o":"m 415 212 l 416 206 l 416 104 q 411 22 416 62 q 398 -17 406 -17 l 199 -17 l 172 -21 q 56 -20 132 -21 l 43 -9 l 43 0 l 42 14 l 42 45 q 45 267 42 169 l 47 412 l 52 690 l 52 709 l 140 710 l 153 709 l 199 709 l 216 710 l 396 707 q 400 708 399 708 q 401 705 401 708 l 401 662 l 401 636 l 401 585 q 408 401 401 470 l 410 373 q 416 254 414 325 l 416 236 q 415 233 416 235 l 415 212 m -227 1208 l 57 1214 q 81 1215 75 1214 l 89 1215 l 97 1215 q 127 1172 106 1204 l 134 1158 l 134 1158 l 165 1105 q 245 975 184 1071 l 232 954 q 217 956 225 956 l 104 954 q 68 956 87 956 q 37 958 50 956 q 6 957 27 957 q -41 990 -16 957 l -58 1012 q -227 1208 -132 1095 l -227 1208 m 224 1208 l 402 1213 l 493 1215 l 545 1217 q 581 1162 566 1190 l 694 973 l 682 954 l 536 958 l 519 959 l 506 959 q 444 966 462 959 q 407 996 427 972 q 222 1206 325 1092 q 223 1208 223 1206 l 224 1208 m 84 1235 l 102 1229 l 102 1215 l 99 1215 q 84 1235 94 1215 m 229 947 q 230 950 230 949 l 233 954 q 235 954 234 954 l 229 947 m -228 1208 l -227 1208 l -229 1208 l -228 1208 z "},"":{"ha":571,"x_min":-5,"x_max":586,"o":"m 70 73 q 77 264 70 210 q 85 859 77 559 q 83 945 83 901 l 83 967 q 81 1004 81 988 q 84 1025 81 1021 q 338 1017 229 1017 q 488 1021 448 1017 q 490 1009 490 1019 l 486 1009 l 486 764 l 490 212 q 492 201 490 205 l 492 200 q 494 191 494 196 l 500 -6 q 488 -18 496 -14 l 465 -18 l 85 -24 q 67 -14 78 -20 l 68 -2 l 70 73 m 187 1029 l 96 1025 l 34 1023 q 13 1022 14 1022 l 11 1022 l -5 1043 q 47 1183 15 1133 q 146 1262 79 1234 q 290 1291 214 1291 q 438 1253 366 1291 q 549 1153 511 1216 q 586 1040 569 1111 q 572 1035 585 1035 l 566 1035 l 562 1036 l 374 1031 q 361 1059 370 1036 l 361 1059 q 326 1111 349 1101 q 294 1116 314 1116 q 261 1107 274 1116 q 242 1085 248 1098 q 232 1059 237 1072 q 187 1029 220 1029 m 1 1023 q 14 1022 13 1022 l 16 1000 l -2 1011 l 1 1023 z "},"":{"ha":518,"x_min":-31,"x_max":559,"o":"m 415 212 l 416 206 l 416 104 q 411 22 416 62 q 398 -17 406 -17 l 199 -17 l 172 -21 q 56 -20 132 -21 l 43 -9 l 43 0 l 42 14 l 42 45 q 45 267 42 169 l 47 412 l 52 690 l 52 709 l 140 710 l 153 709 l 199 709 l 216 710 l 396 707 q 400 708 399 708 q 401 705 401 708 l 401 662 l 401 636 l 401 585 q 408 401 401 470 l 410 373 q 416 254 414 325 l 416 236 q 415 233 416 235 l 415 212 m 161 947 l 70 944 l 7 942 q -14 941 -13 941 l -16 941 l -31 962 q 20 1102 -12 1051 q 120 1181 52 1152 q 264 1209 188 1209 q 412 1172 340 1209 q 523 1072 484 1135 q 559 959 543 1029 q 545 954 558 954 l 540 954 l 535 954 l 347 950 q 334 977 343 954 l 335 977 q 299 1029 322 1020 q 268 1034 288 1034 q 234 1025 248 1034 q 216 1004 221 1017 q 205 978 210 991 q 161 947 194 947 m -26 941 q -12 941 -14 941 l -10 919 l -28 930 l -26 941 z "},"":{"ha":1116,"x_min":24,"x_max":1090,"o":"m 414 515 q 413 512 414 515 l 413 510 q 410 446 410 481 q 416 372 410 411 q 435 293 422 332 q 476 229 448 254 q 543 203 506 203 q 605 214 580 203 q 648 241 631 224 q 678 285 665 257 q 711 514 711 359 q 674 735 711 672 q 565 799 638 799 q 501 781 528 799 q 459 745 473 764 q 431 664 446 726 q 416 550 416 602 l 414 515 m 24 510 l 25 525 q 47 675 33 610 q 91 798 60 741 q 293 988 163 923 q 573 1053 423 1053 q 846 992 724 1053 q 961 901 920 956 q 1065 719 1040 802 q 1090 526 1090 635 q 990 156 1090 283 l 959 115 q 781 2 896 41 q 552 -39 665 -38 q 234 42 358 -39 q 24 510 24 178 m 103 1290 l 387 1295 q 411 1296 405 1295 l 419 1296 l 427 1297 q 457 1253 437 1286 l 465 1239 l 465 1240 l 495 1186 q 575 1057 514 1152 l 562 1036 q 547 1038 555 1038 l 434 1035 q 398 1038 417 1038 q 367 1040 380 1038 q 336 1038 357 1038 q 289 1072 315 1038 l 272 1093 q 103 1289 198 1176 l 103 1290 m 554 1290 l 732 1295 l 823 1297 l 876 1298 q 911 1243 897 1271 l 1025 1055 l 1012 1035 l 866 1040 l 850 1040 l 836 1040 q 774 1047 792 1040 q 737 1077 757 1054 q 553 1288 655 1173 q 553 1289 553 1288 l 554 1290 m 414 1316 l 433 1310 l 433 1297 l 429 1297 q 414 1316 424 1297 m 559 1028 q 566 1035 559 1028 q 564 1036 564 1035 l 560 1031 q 559 1028 560 1031 m 102 1290 l 103 1289 l 102 1289 l 102 1290 z "},"":{"ha":1064,"x_min":15,"x_max":1026,"o":"m 1026 410 q 1025 402 1025 404 l 1025 397 q 973 195 1023 285 l 974 195 q 781 33 905 90 q 537 -24 657 -24 q 338 -1 417 -24 q 192 67 259 22 q 92 153 125 112 q 15 429 15 251 q 17 439 15 435 l 17 450 q 15 456 15 453 l 16 463 l 16 463 q 66 619 28 582 q 75 636 66 627 l 75 635 l 85 652 q 269 792 165 754 l 292 801 q 418 833 337 823 l 439 836 q 459 837 444 836 q 479 840 473 838 l 509 839 q 513 840 511 840 q 519 839 516 840 l 519 840 q 531 838 523 838 q 541 840 534 840 q 791 780 688 840 l 804 774 q 1026 410 1026 667 m 604 406 q 566 589 602 541 q 529 608 551 608 q 492 584 508 608 q 466 506 475 559 q 456 412 456 453 q 459 341 456 371 q 471 279 463 312 q 494 224 478 246 q 529 202 509 202 q 604 406 604 202 m 77 1208 l 361 1214 q 385 1215 379 1214 l 393 1215 l 401 1215 q 431 1172 412 1204 l 439 1158 l 439 1158 l 469 1105 q 549 975 488 1071 l 536 954 q 522 956 529 956 l 408 954 q 373 956 391 956 q 341 958 354 956 q 310 957 332 957 q 263 990 289 957 l 246 1012 q 77 1208 172 1095 l 77 1208 m 528 1208 l 707 1213 l 798 1215 l 850 1217 q 886 1162 871 1190 l 999 973 l 986 954 l 840 958 l 824 959 l 810 959 q 749 966 766 959 q 711 996 731 972 q 527 1206 629 1092 q 528 1208 528 1206 l 528 1208 m 389 1235 l 407 1229 l 407 1215 l 404 1215 q 389 1235 398 1215 m 533 947 q 534 950 534 949 l 538 954 q 540 954 538 954 l 533 947 m 77 1208 l 77 1208 l 76 1208 l 77 1208 z "},"":{"ha":1116,"x_min":24,"x_max":1090,"o":"m 414 515 q 413 512 414 515 l 413 510 q 410 446 410 481 q 416 372 410 411 q 435 293 422 332 q 476 229 448 254 q 543 203 506 203 q 605 214 580 203 q 648 241 631 224 q 678 285 665 257 q 711 514 711 359 q 674 735 711 672 q 565 799 638 799 q 501 781 528 799 q 459 745 473 764 q 431 664 446 726 q 416 550 416 602 l 414 515 m 24 510 l 25 525 q 47 675 33 610 q 91 798 60 741 q 293 988 163 923 q 573 1053 423 1053 q 846 992 724 1053 q 961 901 920 956 q 1065 719 1040 802 q 1090 526 1090 635 q 990 156 1090 283 l 959 115 q 781 2 896 41 q 552 -39 665 -38 q 234 42 358 -39 q 24 510 24 178 m 460 1029 l 369 1025 l 307 1023 q 286 1022 286 1022 l 283 1022 l 268 1043 q 319 1183 288 1133 q 419 1262 351 1234 q 563 1291 487 1291 q 711 1253 639 1291 q 822 1153 783 1216 q 859 1040 842 1111 q 844 1035 857 1035 l 839 1035 l 834 1036 l 646 1031 q 633 1059 642 1036 l 634 1059 q 598 1111 621 1101 q 567 1116 587 1116 q 533 1107 547 1116 q 515 1085 520 1098 q 505 1059 509 1072 q 460 1029 493 1029 m 273 1023 q 287 1022 286 1022 l 289 1000 l 271 1011 l 273 1023 z "},"":{"ha":1064,"x_min":15,"x_max":1026,"o":"m 1026 410 q 1025 402 1025 404 l 1025 397 q 973 195 1023 285 l 974 195 q 781 33 905 90 q 537 -24 657 -24 q 338 -1 417 -24 q 192 67 259 22 q 92 153 125 112 q 15 429 15 251 q 17 439 15 435 l 17 450 q 15 456 15 453 l 16 463 l 16 463 q 66 619 28 582 q 75 636 66 627 l 75 635 l 85 652 q 269 792 165 754 l 292 801 q 418 833 337 823 l 439 836 q 459 837 444 836 q 479 840 473 838 l 509 839 q 513 840 511 840 q 519 839 516 840 l 519 840 q 531 838 523 838 q 541 840 534 840 q 791 780 688 840 l 804 774 q 1026 410 1026 667 m 604 406 q 566 589 602 541 q 529 608 551 608 q 492 584 508 608 q 466 506 475 559 q 456 412 456 453 q 459 341 456 371 q 471 279 463 312 q 494 224 478 246 q 529 202 509 202 q 604 406 604 202 m 434 947 l 343 944 l 281 942 q 260 941 260 941 l 258 941 l 242 962 q 294 1102 262 1051 q 393 1181 326 1152 q 537 1209 461 1209 q 685 1172 613 1209 q 796 1072 758 1135 q 833 959 816 1029 q 819 954 831 954 l 813 954 l 808 954 l 621 950 q 608 977 616 954 l 608 977 q 572 1029 595 1020 q 541 1034 561 1034 q 508 1025 521 1034 q 489 1004 494 1017 q 479 978 484 991 q 434 947 467 947 m 248 941 q 261 941 260 941 l 263 919 l 245 930 l 248 941 z "},"":{"ha":1059,"x_min":70,"x_max":1069,"o":"m 379 1020 l 597 1022 q 722 1019 666 1022 q 952 948 873 1015 q 1031 759 1031 881 q 982 614 1031 674 q 838 509 932 554 q 1020 278 988 461 q 1032 186 1027 238 q 1039 117 1036 135 l 1046 83 q 1065 -5 1057 22 l 1062 -7 q 851 -15 947 -15 q 683 -12 756 -15 l 679 -12 q 634 189 658 -12 l 631 218 q 605 318 628 292 q 524 344 581 344 l 515 343 l 479 343 l 479 137 l 479 115 l 479 -9 q 469 -17 477 -16 q 259 -20 395 -20 q 79 -20 123 -20 l 75 -19 l 74 -20 q 70 -18 73 -20 l 71 43 l 71 64 l 73 345 l 73 395 l 74 446 l 75 621 l 75 644 l 73 798 q 76 1015 73 798 q 115 1020 76 1020 l 158 1019 l 199 1019 l 286 1019 l 379 1020 m 1069 -3 l 1065 -5 l 1065 -4 q 1069 -3 1065 -3 m 1065 -5 l 1065 -6 q 1065 -5 1065 -6 l 1065 -5 m 630 799 q 522 817 589 817 l 482 817 q 475 702 475 806 q 478 564 475 599 q 690 710 690 568 q 630 799 690 770 m 75 1290 l 359 1295 q 382 1296 376 1295 l 391 1296 l 399 1297 q 429 1253 408 1286 l 436 1239 l 436 1240 l 467 1186 q 547 1057 486 1152 l 534 1036 q 519 1038 527 1038 l 406 1035 q 370 1038 389 1038 q 338 1040 351 1038 q 308 1038 329 1038 q 260 1072 286 1038 l 243 1093 q 75 1289 170 1176 l 75 1290 m 526 1290 l 704 1295 l 795 1297 l 847 1298 q 883 1243 868 1271 l 996 1055 l 983 1035 l 838 1040 l 821 1040 l 808 1040 q 746 1047 764 1040 q 709 1077 728 1054 q 524 1288 627 1173 q 525 1289 525 1288 l 526 1290 m 386 1316 l 404 1310 l 404 1297 l 401 1297 q 386 1316 395 1297 m 530 1028 q 532 1031 532 1031 l 535 1036 q 537 1035 536 1035 l 530 1028 m 74 1290 l 75 1289 l 73 1289 l 74 1290 z "},"":{"ha":804,"x_min":-54,"x_max":869,"o":"m 30 812 l 210 812 l 391 812 l 406 722 q 424 613 421 626 l 448 613 q 544 778 473 729 l 571 793 q 595 808 573 798 l 593 808 l 608 814 q 723 841 675 840 q 736 840 733 841 l 762 840 l 762 461 q 717 465 747 465 q 654 456 686 465 q 600 433 622 447 q 562 397 578 419 q 511 196 511 330 l 513 125 l 513 0 l 271 -1 l 31 -1 l 30 404 l 30 812 m -52 1208 l 232 1214 q 256 1215 250 1214 l 264 1215 l 272 1215 q 302 1172 282 1204 l 309 1158 l 309 1158 l 340 1105 q 420 975 359 1071 l 407 954 q 392 956 399 956 l 279 954 q 243 956 262 956 q 212 958 224 956 q 181 957 202 957 q 134 990 159 957 l 117 1012 q -52 1208 43 1095 l -52 1208 m 399 1208 l 577 1213 l 668 1215 l 720 1217 q 756 1162 741 1190 l 869 973 l 857 954 l 711 958 l 694 959 l 681 959 q 619 966 637 959 q 582 996 602 972 q 397 1206 500 1092 q 398 1208 398 1206 l 399 1208 m 259 1235 l 277 1229 l 277 1215 l 274 1215 q 259 1235 269 1215 m 404 947 q 405 950 405 949 l 408 954 q 410 954 409 954 l 404 947 m -53 1208 l -52 1208 l -54 1208 l -53 1208 z "},"":{"ha":1059,"x_min":70,"x_max":1069,"o":"m 379 1020 l 597 1022 q 722 1019 666 1022 q 952 948 873 1015 q 1031 759 1031 881 q 982 614 1031 674 q 838 509 932 554 q 1020 278 988 461 q 1032 186 1027 238 q 1039 117 1036 135 l 1046 83 q 1065 -5 1057 22 l 1062 -7 q 851 -15 947 -15 q 683 -12 756 -15 l 679 -12 q 634 189 658 -12 l 631 218 q 605 318 628 292 q 524 344 581 344 l 515 343 l 479 343 l 479 137 l 479 115 l 479 -9 q 469 -17 477 -16 q 259 -20 395 -20 q 79 -20 123 -20 l 75 -19 l 74 -20 q 70 -18 73 -20 l 71 43 l 71 64 l 73 345 l 73 395 l 74 446 l 75 621 l 75 644 l 73 798 q 76 1015 73 798 q 115 1020 76 1020 l 158 1019 l 199 1019 l 286 1019 l 379 1020 m 1069 -3 l 1065 -5 l 1065 -4 q 1069 -3 1065 -3 m 1065 -5 l 1065 -6 q 1065 -5 1065 -6 l 1065 -5 m 630 799 q 522 817 589 817 l 482 817 q 475 702 475 806 q 478 564 475 599 q 690 710 690 568 q 630 799 690 770 m 431 1029 l 340 1025 l 278 1023 q 257 1022 258 1022 l 255 1022 l 239 1043 q 291 1183 259 1133 q 391 1262 323 1234 q 534 1291 458 1291 q 683 1253 610 1291 q 793 1153 755 1216 q 830 1040 813 1111 q 816 1035 829 1035 l 810 1035 l 806 1036 l 618 1031 q 605 1059 614 1036 l 606 1059 q 570 1111 593 1101 q 538 1116 558 1116 q 505 1107 518 1116 q 486 1085 492 1098 q 476 1059 481 1072 q 431 1029 465 1029 m 245 1023 q 242 1011 245 1023 l 260 1000 l 258 1022 q 245 1023 257 1022 z "},"":{"ha":804,"x_min":30,"x_max":762,"o":"m 30 812 l 210 812 l 391 812 l 406 722 q 424 613 421 626 l 448 613 q 544 778 473 729 l 571 793 q 595 808 573 798 l 593 808 l 608 814 q 723 841 675 840 q 736 840 733 841 l 762 840 l 762 461 q 717 465 747 465 q 654 456 686 465 q 600 433 622 447 q 562 397 578 419 q 511 196 511 330 l 513 125 l 513 0 l 271 -1 l 31 -1 l 30 404 l 30 812 m 304 947 l 213 944 l 151 942 q 130 941 130 941 l 127 941 l 112 962 q 163 1102 132 1051 q 263 1181 195 1152 q 407 1209 331 1209 q 555 1172 483 1209 q 666 1072 627 1135 q 703 959 686 1029 q 688 954 701 954 l 683 954 l 678 954 l 490 950 q 477 977 486 954 l 478 977 q 442 1029 465 1020 q 411 1034 431 1034 q 377 1025 391 1034 q 359 1004 364 1017 q 349 978 353 991 q 304 947 337 947 m 117 941 q 131 941 130 941 l 133 919 l 115 930 l 117 941 z "},"":{"ha":1095,"x_min":71,"x_max":1053,"o":"m 1048 526 l 1046 335 q 1018 180 1046 248 q 944 72 990 113 q 573 -42 819 -42 q 191 77 328 -42 q 110 185 143 119 q 71 334 77 251 q 74 859 74 618 q 71 930 71 859 q 77 1018 71 1001 l 91 1018 q 363 1023 191 1023 q 407 1020 375 1021 q 452 1018 439 1019 l 473 1015 q 479 646 477 881 l 475 373 q 553 237 475 237 q 609 267 587 237 q 633 332 632 296 l 636 339 l 638 568 l 639 588 q 635 892 639 745 l 633 941 q 632 995 632 971 q 640 1027 632 1019 q 1034 1025 901 1027 q 1046 1017 1039 1021 l 1046 1017 l 1053 1012 q 1048 682 1048 884 l 1048 566 l 1048 526 m 93 1290 l 377 1295 q 401 1296 395 1295 l 409 1296 l 417 1297 q 447 1253 427 1286 l 454 1239 l 454 1240 l 485 1186 q 565 1057 504 1152 l 552 1036 q 537 1038 545 1038 l 424 1035 q 388 1038 407 1038 q 357 1040 370 1038 q 326 1038 347 1038 q 279 1072 304 1038 l 262 1093 q 93 1289 188 1176 l 93 1290 m 544 1290 l 722 1295 l 813 1297 l 865 1298 q 901 1243 886 1271 l 1015 1055 l 1002 1035 l 856 1040 l 840 1040 l 826 1040 q 764 1047 782 1040 q 727 1077 747 1054 q 543 1288 645 1173 q 543 1289 543 1288 l 544 1290 m 404 1316 l 422 1310 l 422 1297 l 419 1297 q 404 1316 414 1297 m 549 1028 q 550 1031 550 1031 l 553 1036 q 555 1035 554 1035 l 549 1028 m 92 1290 l 93 1289 l 92 1289 l 92 1290 z "},"":{"ha":1043,"x_min":37,"x_max":1003,"o":"m 469 746 l 467 315 q 517 246 467 246 q 558 319 558 246 l 558 810 l 781 811 l 1002 811 l 1003 1 l 623 1 l 591 111 q 353 -24 505 -24 q 134 50 223 -24 l 135 55 q 106 80 123 58 q 81 117 90 101 q 37 352 37 197 l 37 374 l 37 810 l 253 810 l 469 811 l 469 746 m 67 1208 l 351 1214 q 375 1215 369 1214 l 383 1215 l 391 1215 q 421 1172 401 1204 l 429 1158 l 429 1158 l 459 1105 q 539 975 478 1071 l 526 954 q 511 956 519 956 l 398 954 q 362 956 381 956 q 331 958 344 956 q 300 957 321 957 q 253 990 279 957 l 236 1012 q 67 1208 162 1095 l 67 1208 m 518 1208 l 696 1213 l 787 1215 l 840 1217 q 876 1162 861 1190 l 989 973 l 976 954 l 830 958 l 814 959 l 800 959 q 739 966 756 959 q 701 996 721 972 q 517 1206 619 1092 q 517 1208 517 1206 l 518 1208 m 378 1235 l 397 1229 l 397 1215 l 393 1215 q 378 1235 388 1215 m 523 947 q 524 950 524 949 l 528 954 q 530 954 528 954 l 523 947 m 66 1208 l 67 1208 l 66 1208 l 66 1208 z "},"":{"ha":1095,"x_min":71,"x_max":1053,"o":"m 1048 526 l 1046 335 q 1018 180 1046 248 q 944 72 990 113 q 573 -42 819 -42 q 191 77 328 -42 q 110 185 143 119 q 71 334 77 251 q 74 859 74 618 q 71 930 71 859 q 77 1018 71 1001 l 91 1018 q 363 1023 191 1023 q 407 1020 375 1021 q 452 1018 439 1019 l 473 1015 q 479 646 477 881 l 475 373 q 553 237 475 237 q 609 267 587 237 q 633 332 632 296 l 636 339 l 638 568 l 639 588 q 635 892 639 745 l 633 941 q 632 995 632 971 q 640 1027 632 1019 q 1034 1025 901 1027 q 1046 1017 1039 1021 l 1046 1017 l 1053 1012 q 1048 682 1048 884 l 1048 566 l 1048 526 m 450 1029 q 494 1059 483 1029 q 505 1085 499 1072 q 523 1107 510 1098 q 556 1116 536 1116 q 588 1111 576 1116 q 624 1059 611 1101 l 623 1059 q 636 1031 632 1036 l 824 1036 l 829 1035 l 834 1035 q 848 1040 847 1035 q 812 1153 831 1111 q 701 1253 773 1216 q 553 1291 629 1291 q 409 1262 477 1291 q 309 1183 341 1234 q 258 1043 277 1133 l 273 1022 l 275 1022 q 296 1023 276 1022 l 359 1025 l 450 1029 m 263 1023 q 260 1011 263 1023 l 279 1000 l 277 1022 q 263 1023 275 1022 z "},"":{"ha":1043,"x_min":37,"x_max":1003,"o":"m 469 746 l 467 315 q 517 246 467 246 q 558 319 558 246 l 558 810 l 781 811 l 1002 811 l 1003 1 l 623 1 l 591 111 q 353 -24 505 -24 q 134 50 223 -24 l 135 55 q 106 80 123 58 q 81 117 90 101 q 37 352 37 197 l 37 374 l 37 810 l 253 810 l 469 811 l 469 746 m 423 947 l 332 944 l 270 942 q 249 941 250 941 l 247 941 l 231 962 q 283 1102 251 1051 q 382 1181 315 1152 q 526 1209 450 1209 q 674 1172 602 1209 q 785 1072 747 1135 q 822 959 805 1029 q 808 954 821 954 l 802 954 l 798 954 l 610 950 q 597 977 606 954 l 597 977 q 562 1029 585 1020 q 530 1034 550 1034 q 497 1025 510 1034 q 478 1004 484 1017 q 468 978 473 991 q 423 947 456 947 m 237 941 q 250 941 249 941 l 252 919 l 234 930 l 237 941 z "},"":{"ha":904,"x_min":36,"x_max":999,"o":"m 42 280 l 401 286 q 424 263 414 286 q 441 227 433 240 q 511 194 463 194 q 589 217 559 194 q 619 275 619 239 q 601 325 619 311 q 561 350 583 338 q 497 370 539 363 q 450 378 454 376 l 452 378 l 413 388 q 351 403 376 395 q 116 512 189 446 q 44 689 44 578 q 74 834 44 770 q 152 939 104 899 q 536 1057 291 1057 q 842 986 730 1057 l 841 986 q 939 885 912 935 q 972 762 965 835 l 954 744 q 638 737 776 737 q 589 762 597 737 q 581 782 585 772 q 520 806 572 806 l 517 806 q 449 788 477 806 q 420 751 420 769 q 428 722 420 734 q 444 704 435 711 q 471 690 453 697 q 499 681 490 683 q 528 673 508 678 l 551 667 q 634 646 566 663 q 749 615 703 630 l 749 616 q 946 494 894 567 q 999 324 999 421 q 690 -11 999 66 q 499 -43 601 -33 q 252 -6 374 -43 q 89 113 130 31 q 52 187 61 153 q 36 281 42 220 q 42 280 38 280 m 484 -165 l 586 -163 q 679 -171 679 -163 l 679 -174 q 625 -338 637 -298 l 614 -376 q 593 -439 605 -405 l 581 -482 q 538 -604 570 -517 l 537 -607 q 399 -618 523 -618 l 370 -618 l 242 -618 l 229 -604 q 278 -380 235 -583 q 337 -166 321 -178 q 376 -165 349 -165 l 484 -165 z "},"":{"ha":801,"x_min":24,"x_max":884,"o":"m 158 307 l 320 309 l 351 309 q 384 264 369 305 q 409 237 389 249 q 460 224 428 224 l 464 224 q 545 294 541 226 q 496 350 545 329 q 414 376 461 364 q 353 393 368 388 l 311 404 q 33 659 33 486 q 72 806 33 744 q 308 966 146 926 q 483 979 370 979 q 696 939 595 979 q 789 873 762 909 l 814 846 q 862 714 853 802 l 846 696 l 846 695 l 738 694 l 723 694 l 601 696 l 597 696 q 568 702 574 696 q 553 723 562 707 q 477 753 538 753 q 377 706 377 753 q 457 654 377 671 q 496 642 489 647 l 524 633 q 572 622 554 626 q 623 607 590 617 q 677 588 656 597 q 729 565 699 579 q 779 535 759 550 q 884 339 884 455 q 770 97 884 174 q 617 32 703 51 q 438 7 531 14 q 151 76 231 16 l 137 84 q 24 305 40 161 q 26 308 24 308 l 52 306 q 60 307 58 306 l 96 307 q 151 307 136 307 l 158 307 m 846 695 l 859 695 l 853 687 l 846 695 m 854 686 l 852 686 l 854 686 m 431 -178 l 533 -176 q 626 -184 626 -176 l 626 -187 q 572 -351 585 -311 l 561 -389 q 541 -453 552 -418 l 528 -496 q 486 -618 517 -530 l 484 -621 q 346 -632 470 -632 l 317 -631 l 189 -631 l 176 -618 q 225 -394 182 -596 q 284 -180 268 -191 q 323 -178 296 -178 l 431 -178 z "},"":{"ha":894,"x_min":-3,"x_max":907,"o":"m 907 770 q 902 747 907 747 q 656 749 902 747 q 655 544 655 684 q 656 350 655 404 l 659 -9 q 645 -20 655 -19 l 502 -18 l 501 -18 l 456 -18 l 332 -18 q 257 -18 282 -18 l 245 -8 q 237 3 245 -7 q 241 268 237 62 l 249 629 l 248 646 q 238 725 243 713 q 221 739 234 738 q 202 740 208 740 l 175 739 l 7 741 q -2 821 -2 759 l -1 880 l -1 899 q -3 1015 -1 1007 q 3 1013 -1 1015 l 866 1021 q 899 1017 892 1021 q 906 1003 906 1013 l 906 824 l 907 770 m 482 -165 l 585 -163 q 677 -171 677 -163 l 677 -174 q 624 -338 636 -298 l 612 -376 q 592 -439 604 -405 l 579 -482 q 537 -604 569 -517 l 536 -607 q 397 -618 522 -618 l 369 -618 l 241 -618 l 228 -604 q 276 -380 233 -583 q 336 -166 319 -178 q 375 -165 347 -165 l 482 -165 z "},"":{"ha":707,"x_min":34,"x_max":667,"o":"m 535 338 l 534 328 q 536 293 534 304 q 550 266 538 281 q 629 251 562 251 l 648 250 q 666 252 658 250 l 667 -1 l 296 -1 l 273 -2 l 265 -2 q 210 14 240 -2 q 166 43 180 31 q 141 75 151 56 q 118 148 122 112 q 115 236 115 183 l 115 612 l 35 612 l 34 707 l 34 804 l 112 804 l 112 1028 l 321 1028 l 531 1029 l 532 805 l 645 805 l 646 708 l 646 612 l 535 612 l 535 338 m 389 -165 l 491 -163 q 584 -171 584 -163 l 584 -174 q 530 -338 543 -298 l 519 -376 q 498 -439 510 -405 l 486 -482 q 444 -604 475 -517 l 442 -607 q 304 -618 428 -618 l 275 -618 l 147 -618 l 134 -604 q 183 -380 140 -583 q 242 -166 226 -178 q 281 -165 254 -165 l 389 -165 z "},"":{"ha":481,"x_min":-85,"x_max":581,"o":"m 513 954 l 313 949 q 275 997 292 961 q 270 1007 271 1005 l 250 1048 q 223 1014 239 1038 q 195 973 208 990 q 176 956 183 956 l -13 956 l -46 954 q -85 962 -85 954 q -84 966 -85 964 q 39 1138 -38 1038 l 54 1162 q 102 1195 71 1190 q 285 1204 134 1201 l 405 1206 q 429 1183 417 1200 q 444 1161 440 1166 q 453 1148 447 1157 q 461 1136 458 1139 l 461 1137 l 503 1074 q 535 1030 511 1062 l 549 1011 q 559 996 552 1006 l 570 981 q 581 960 581 967 q 563 953 581 953 l 555 954 l 513 954 z "},"":{"ha":481,"x_min":-87,"x_max":577,"o":"m 290 1152 l 321 1202 l 358 1202 l 400 1201 l 575 1201 q 577 1199 577 1201 q 538 1135 577 1187 l 447 1000 q 429 972 436 981 q 347 949 408 949 l 229 947 l 179 945 l 170 946 l 90 945 l 77 956 q 19 1041 58 983 q -39 1126 -21 1099 l -54 1145 q -87 1197 -87 1190 q -79 1208 -87 1204 l 132 1202 l 140 1202 q 180 1193 165 1202 q 210 1157 194 1185 l 247 1090 q 290 1153 262 1110 l 290 1152 m 307 1213 l 320 1218 l 326 1208 l 320 1202 l 310 1202 l 307 1213 z "},"":{"ha":463,"x_min":-76,"x_max":544,"o":"m 511 1209 l 516 1210 q 544 1190 543 1210 q 506 1072 526 1111 q 390 966 466 1005 q 236 928 315 928 q 86 958 157 928 q -22 1046 15 989 q -76 1191 -56 1103 l -52 1223 q -38 1221 -45 1221 l -30 1221 l -21 1222 l 41 1219 q 86 1217 65 1217 l 90 1217 q 133 1216 100 1217 q 173 1208 165 1215 q 186 1188 182 1202 q 191 1172 191 1173 q 241 1130 202 1130 q 271 1139 258 1130 q 293 1176 283 1148 l 292 1176 q 315 1213 302 1204 q 420 1211 334 1212 l 511 1209 m -52 1221 l -52 1221 l -51 1219 l -51 1221 l -52 1221 z "},"":{"ha":444,"x_min":98,"x_max":353,"o":"m 98 795 l 103 873 q 104 953 104 887 q 113 1025 105 1019 l 163 1025 q 347 1021 208 1025 q 350 1004 350 1019 l 349 998 l 351 916 q 353 848 351 863 l 353 827 q 352 782 353 799 q 292 773 350 773 l 266 773 l 258 774 l 115 770 l 100 793 q 98 795 98 795 z "},"":{"ha":406,"x_min":8,"x_max":401,"o":"m 197 1341 q 239 1341 197 1341 q 341 1285 281 1341 q 401 1149 401 1230 q 343 1013 401 1068 q 209 957 285 957 q 29 1077 86 957 q 8 1145 14 1110 q 12 1165 9 1146 q 27 1217 14 1183 q 64 1278 41 1250 q 197 1341 113 1341 m 296 1149 q 296 1171 296 1149 q 269 1217 296 1192 q 206 1241 241 1241 q 144 1219 171 1241 q 109 1158 117 1197 q 140 1085 109 1112 q 207 1058 171 1058 q 270 1082 243 1058 q 296 1149 296 1106 z "},"":{"ha":429,"x_min":75,"x_max":469,"o":"m 421 -208 l 426 -206 l 427 -206 q 435 -205 431 -205 q 457 -245 446 -205 q 469 -314 469 -286 q 399 -346 468 -332 q 258 -359 331 -359 q 130 -325 186 -359 q 75 -212 75 -290 q 140 -68 75 -133 q 283 15 206 -3 q 308 14 292 14 l 425 12 q 440 5 430 12 q 450 -8 450 -3 q 442 -28 447 -16 l 433 -27 q 320 -111 351 -77 q 289 -176 289 -144 q 355 -220 289 -220 q 414 -210 382 -220 l 416 -205 l 418 -209 q 421 -208 420 -208 z "},"":{"ha":474,"x_min":-85,"x_max":547,"o":"m 351 1187 l 367 1200 l 538 1196 q 547 1185 541 1195 q 355 952 532 952 q 258 966 317 952 l 219 979 q 131 1001 147 1001 q 107 998 114 1001 q 98 987 100 995 q 96 969 97 979 q -63 960 94 960 l -81 960 q -85 972 -85 964 q -33 1146 -85 1089 q 115 1204 19 1204 q 241 1179 151 1204 l 241 1179 q 300 1162 262 1172 l 321 1158 q 330 1151 323 1158 l 347 1170 q 351 1187 351 1181 m 325 1183 l 331 1190 l 336 1179 l 325 1183 z "},"":{"ha":525,"x_min":-163,"x_max":704,"o":"m 11 959 l -151 954 l -162 971 q -163 973 -163 972 l -50 1162 q -16 1217 -37 1192 l 129 1213 l 308 1208 l 308 1206 l 134 1008 q 85 968 107 978 q 24 959 62 959 l 11 959 m 377 1215 l 385 1215 l 393 1215 q 417 1214 399 1214 l 559 1211 q 624 1210 572 1211 q 701 1208 675 1208 l 613 1105 q 558 1042 593 1081 l 521 998 q 508 981 516 992 q 499 968 500 969 q 494 990 494 985 q 391 975 441 981 l 257 956 q 241 954 247 956 l 230 975 q 337 1151 310 1103 l 343 1164 l 347 1169 l 347 1168 q 377 1215 364 1202 m 369 1227 l 393 1230 q 371 1215 378 1215 l 369 1227 m 500 966 q 496 957 500 957 q 493 959 493 957 q 499 968 493 960 l 500 966 m 701 1208 l 704 1212 q 703 1208 704 1208 q 703 1208 703 1208 q 702 1208 703 1208 l 701 1208 z "},"":{"ha":530,"x_min":-164,"x_max":759,"o":"m -163 1208 l 121 1214 q 145 1215 139 1214 l 153 1215 l 161 1215 q 191 1172 171 1204 l 199 1158 l 199 1158 l 229 1105 q 309 975 248 1071 l 296 954 q 281 956 290 956 l 168 954 q 133 956 151 956 q 101 958 114 956 q 70 957 92 957 q 23 990 49 957 l 6 1012 q -163 1208 -68 1095 l -163 1208 m 288 1208 l 467 1213 l 557 1215 l 610 1217 q 646 1162 631 1190 l 759 973 l 746 954 l 600 958 l 584 959 l 570 959 q 509 966 526 959 q 471 996 491 972 q 287 1206 389 1092 q 288 1208 288 1206 l 288 1208 m 149 1235 l 167 1229 l 167 1215 l 163 1215 q 149 1235 158 1215 m 293 947 q 294 950 294 949 l 298 954 q 300 954 298 954 l 293 947 m -163 1208 l -163 1208 l -164 1208 l -163 1208 z "},"":{"ha":463,"x_min":-60,"x_max":530,"o":"m 132 947 l 41 944 l -22 942 q -43 941 -42 941 l -45 941 l -60 962 q -9 1102 -41 1051 q 91 1181 23 1152 q 235 1209 159 1209 q 383 1172 311 1209 q 494 1072 455 1135 q 530 959 513 1029 q 516 954 529 954 l 511 954 l 506 954 l 318 950 q 305 977 314 954 l 306 977 q 270 1029 293 1020 q 238 1034 258 1034 q 205 1025 218 1034 q 186 1004 192 1017 q 176 978 181 991 q 132 947 165 947 m -55 941 q -41 941 -43 941 l -39 919 l -58 930 l -55 941 z "},"":{"ha":498,"x_min":5,"x_max":455,"o":"m 260 -165 l 362 -163 q 455 -171 455 -163 l 455 -174 q 401 -338 414 -298 l 390 -376 q 370 -439 381 -405 l 357 -482 q 315 -604 347 -517 l 313 -607 q 175 -618 299 -618 l 146 -618 l 18 -618 l 5 -604 q 54 -380 11 -583 q 113 -166 97 -178 q 153 -165 125 -165 l 260 -165 z "},"":{"ha":1255,"x_min":42,"x_max":1222,"o":"m 42 18 l 44 214 q 54 228 44 222 l 250 228 q 109 397 154 313 q 64 577 64 481 q 103 762 64 673 q 221 914 142 851 q 401 1018 295 985 q 625 1052 507 1052 q 1104 854 933 1052 l 1104 854 q 1201 595 1201 735 q 983 216 1201 393 l 1206 218 q 1217 204 1217 218 q 1217 185 1217 190 l 1217 178 l 1216 170 l 1216 118 q 1221 -7 1216 2 l 1217 -4 q 921 -18 1073 -18 q 680 -12 769 -18 q 680 -10 680 -11 l 680 29 l 680 85 q 677 156 680 153 q 828 311 781 229 q 874 527 874 393 q 798 746 874 662 q 635 810 739 810 q 465 732 532 810 q 397 527 397 654 q 430 351 397 437 q 527 211 463 265 q 564 186 535 203 q 597 165 593 170 q 598 78 597 141 q 600 -14 600 16 l 593 -12 l 597 -11 l 52 -22 q 42 18 42 -14 m 1222 -9 q 1221 -7 1221 -9 q 1222 -9 1221 -7 m 604 -15 l 602 -14 l 604 -15 z "},"":{"ha":1076,"x_min":-9,"x_max":1100,"o":"m 500 808 l 838 805 q 1088 811 984 805 q 1100 800 1097 810 q 1093 737 1095 772 q 1090 690 1091 702 l 1082 616 q 1076 568 1082 596 l 1058 551 l 1054 551 l 1047 551 q 970 546 1008 549 q 966 231 966 376 q 984 -7 966 85 q 972 -23 983 -18 q 772 -19 865 -22 l 673 -16 q 635 162 635 -7 q 639 522 635 330 l 639 536 l 640 557 l 488 563 q 418 51 473 259 l 414 35 q 396 -14 404 -7 q 90 -6 273 -14 q 171 528 170 304 q 153 557 171 553 q 25 545 87 557 q -9 733 9 551 q 26 769 -9 754 q 313 802 106 802 q 500 808 437 808 m 73 4 l 89 14 l 89 -6 l 90 -6 q 89 -9 89 -7 l 89 -27 q 66 1 66 -5 q 73 4 66 3 z "},"":{"ha":715,"x_min":-10,"x_max":733,"o":"m 659 501 l 699 503 q 728 495 722 503 q 733 275 733 367 q 723 256 733 256 l 721 256 l 7 243 l 6 243 q -10 281 -10 256 l -8 374 l -9 431 q 0 500 -9 500 l 295 497 q 629 500 495 497 l 659 501 z "},"":{"ha":1388,"x_min":-16,"x_max":1425,"o":"m 1425 484 l 1420 262 q 1413 258 1417 260 q 905 264 1220 264 l 873 264 q 99 247 625 264 l 49 245 q 3 243 19 243 q -12 265 -11 262 q -16 498 -12 492 q -5 494 -14 498 l 264 494 q 804 498 446 494 l 1332 500 l 1420 501 q 1425 484 1425 498 z "},"":{"ha":493,"x_min":26,"x_max":462,"o":"m 100 593 l 67 593 l 40 593 q 26 622 33 604 q 57 705 38 652 q 85 779 77 758 l 122 880 l 185 1036 q 328 1040 194 1040 q 462 1030 462 1040 q 443 921 462 992 q 420 830 425 850 l 414 798 q 365 604 380 627 q 357 597 361 597 l 355 597 q 169 593 279 593 l 100 593 z "},"":{"ha":492,"x_min":24,"x_max":467,"o":"m 277 1036 l 363 1038 q 467 1030 467 1038 q 465 1023 465 1027 q 441 957 456 1000 q 423 903 427 914 l 404 848 q 320 614 354 699 q 184 592 292 592 l 122 592 l 113 591 l 67 591 q 31 597 36 591 l 24 606 q 28 626 25 613 q 33 645 32 638 l 59 740 q 47 745 56 741 q 142 1036 132 965 q 164 1036 151 1036 l 277 1036 m 328 621 l 316 602 l 320 614 q 328 621 326 618 m 329 623 l 328 621 l 329 623 z "}}}
